<svg viewBox="0 0 24 24" fill="none" xmlns="http://www.w3.org/2000/svg">
<path fill-rule="evenodd" clip-rule="evenodd" d="M2 4.5C2 4.22386 2.22386 4 2.5 4H21.5C21.7761 4 22 4.22386 22 4.5V19.5C22 19.7761 21.7761 20 21.5 20H2.5C2.22386 20 2 19.7761 2 19.5V4.5ZM20 6V8.4V18H4V6H20Z" fill="currentColor"/>
<path fill-rule="evenodd" clip-rule="evenodd" d="M20 8.4V6H4V18H20V8.4ZM7.125 10C7.125 10.552 7.33467 11.0518 7.67371 11.4137C7.97105 11.7311 8.36789 11.9424 8.81005 11.9899C8.87252 11.9966 8.93588 12 9 12C9.06412 12 9.12748 11.9966 9.18995 11.9899C9.63211 11.9424 10.029 11.7311 10.3263 11.4137C10.6653 11.0518 10.875 10.552 10.875 10C10.875 8.89543 10.0355 8 9 8C7.96447 8 7.125 8.89543 7.125 10ZM6 13.8616C6 13.7027 6.0882 13.5588 6.22469 13.4951L6.59511 13.3223C8.12822 12.6068 9.87178 12.6068 11.4049 13.3223L11.7753 13.4951C11.9118 13.5588 12 13.7027 12 13.8616V15.6C12 15.8209 11.8321 16 11.625 16H6.375C6.16789 16 6 15.8209 6 15.6V13.8616ZM17.75 8H14.25C14.1119 8 14 8.11193 14 8.25V9.75C14 9.88807 14.1119 10 14.25 10H17.75C17.8881 10 18 9.88807 18 9.75V8.25C18 8.11193 17.8881 8 17.75 8ZM17.75 11H14.25C14.1119 11 14 11.1119 14 11.25V12.75C14 12.8881 14.1119 13 14.25 13H17.75C17.8881 13 18 12.8881 18 12.75V11.25C18 11.1119 17.8881 11 17.75 11Z" fill="currentColor"/>
</svg>
