<svg viewBox="0 0 24 24" fill="none" xmlns="http://www.w3.org/2000/svg">
<path fill-rule="evenodd" clip-rule="evenodd" d="M15.1464 3.14645L17 5H21.5C21.7761 5 22 5.22386 22 5.5V20.5C22 20.7761 21.7761 21 21.5 21H2.5C2.22386 21 2 20.7761 2 20.5V5.5C2 5.22386 2.22386 5 2.5 5H7L8.85355 3.14645C8.94732 3.05268 9.0745 3 9.20711 3H14.7929C14.9255 3 15.0527 3.05268 15.1464 3.14645ZM7.82843 7L9.82843 5H14.1716L16.1716 7H20V19H4V7H7.82843Z" fill="currentColor"/>
<path fill-rule="evenodd" clip-rule="evenodd" d="M14.1716 5H9.82843L7.82843 7H4V19H20V7H16.1716L14.1716 5ZM17 13C17 15.7614 14.7614 18 12 18C9.23858 18 7 15.7614 7 13C7 10.2386 9.23858 8 12 8C14.7614 8 17 10.2386 17 13Z" fill="currentColor"/>
<path d="M12 16C13.6569 16 15 14.6569 15 13C15 11.3431 13.6569 10 12 10C10.3431 10 9 11.3431 9 13C9 14.6569 10.3431 16 12 16Z" fill="currentColor"/>
</svg>
