<svg viewBox="0 0 24 24" fill="none" xmlns="http://www.w3.org/2000/svg">
<path d="M11.25 13.1443C11.0953 13.055 11 12.89 11 12.7113V8.25C11 8.11193 11.1119 8 11.25 8H12.75C12.8881 8 13 8.11193 13 8.25V11.8453L15.5507 13.3179C15.6703 13.387 15.7112 13.5399 15.6422 13.6595L14.8922 14.9585C14.8232 15.0781 14.6703 15.119 14.5507 15.05L11.25 13.1443Z" fill="currentColor"/>
<path fill-rule="evenodd" clip-rule="evenodd" d="M12 21C16.9706 21 21 16.9706 21 12C21 7.02944 16.9706 3 12 3C7.02944 3 3 7.02944 3 12C3 16.9706 7.02944 21 12 21ZM12 19C15.866 19 19 15.866 19 12C19 8.13401 15.866 5 12 5C8.13401 5 5 8.13401 5 12C5 15.866 8.13401 19 12 19Z" fill="currentColor"/>
</svg>
