<svg viewBox="0 0 64 65" fill="none" xmlns="http://www.w3.org/2000/svg">
<path fill-rule="evenodd" clip-rule="evenodd" d="M50.6663 8.75163C50.6663 10.2244 49.4724 11.4183 47.9997 11.4183V19.4183C47.9997 24.9847 45.1561 29.8854 40.8434 32.7516C45.1561 35.6178 47.9997 40.5186 47.9997 46.085V54.085C49.4724 54.085 50.6663 55.2789 50.6663 56.7516C50.6663 58.2244 49.4724 59.4183 47.9997 59.4183H15.9997C14.5269 59.4183 13.333 58.2244 13.333 56.7516C13.333 55.2789 14.5269 54.085 15.9997 54.085V46.085C15.9997 40.5194 18.8417 35.618 23.1533 32.7516C18.8417 29.8852 15.9997 24.9839 15.9997 19.4183V11.4183C14.5269 11.4183 13.333 10.2244 13.333 8.75163C13.333 7.27887 14.5269 6.08496 15.9997 6.08496H47.9997C49.4724 6.08496 50.6663 7.27887 50.6663 8.75163ZM31.9997 35.4183C26.1086 35.4183 21.333 40.1939 21.333 46.085V54.085H42.6663V46.085C42.6663 40.1939 37.8907 35.4183 31.9997 35.4183ZM21.333 19.4183C21.333 25.3093 26.1086 30.085 31.9997 30.085C37.8907 30.085 42.6663 25.3093 42.6663 19.4183V11.4183H21.333V19.4183Z" fill="currentColor"/>
</svg>
