<svg viewBox="0 0 24 24" fill="none" xmlns="http://www.w3.org/2000/svg">
<path d="M9.02066 13.2785C7.84968 13.4994 6.69762 13.8517 5.58697 14.3355L4.59919 14.7657C4.2352 14.9242 4 15.2823 4 15.6778V20.0044C4 20.5543 4.44771 21 5 21H12.5278C11.5777 19.9385 11 18.5367 11 17C11 15.4674 11.5747 14.0689 12.5203 13.0084C12.3469 13.0028 12.1734 13 12 13C11.0024 13 10.0049 13.0928 9.02066 13.2785Z" fill="currentColor"/>
<path d="M9.41721 11.1855C8.25781 10.3714 7.5 9.02422 7.5 7.5C7.5 5.01472 9.51472 3 12 3C14.4853 3 16.5 5.01472 16.5 7.5C16.5 9.02422 15.7422 10.3714 14.5828 11.1855C13.8518 11.6987 12.9611 12 12 12C11.0389 12 10.1482 11.6987 9.41721 11.1855Z" fill="currentColor"/>
<path fill-rule="evenodd" clip-rule="evenodd" d="M21 17C21 19.2091 19.2091 21 17 21C14.7909 21 13 19.2091 13 17C13 14.7909 14.7909 13 17 13C19.2091 13 21 14.7909 21 17ZM16.2924 14.8226C15.9513 14.9425 15.6904 15.1598 15.5344 15.4511C15.4271 15.6514 15.3694 15.8868 15.3694 16.1495C15.3694 16.846 15.7456 17.2878 16.4758 17.4412L17.0014 17.5578C17.4578 17.6591 17.632 17.791 17.632 18.0365C17.632 18.3279 17.372 18.5304 16.9931 18.5304C16.6423 18.5304 16.382 18.3873 16.2909 18.1528C16.2594 18.0716 16.1899 18.0027 16.1025 18.0027H15.4597C15.3661 18.0027 15.2897 18.0797 15.3011 18.1723C15.3433 18.514 15.4934 18.795 15.7327 19C15.8848 19.1303 16.073 19.23 16.2924 19.2949V19.9634C16.2924 20.0112 16.3314 20.05 16.3794 20.05H17.5431C17.5912 20.05 17.6301 20.0112 17.6301 19.9634V19.2897C18.2657 19.0945 18.6333 18.6035 18.6333 17.9015C18.6333 17.3737 18.4335 17.019 18 16.8037C17.8564 16.7324 17.6871 16.6763 17.491 16.6343L16.9765 16.5239C16.556 16.4318 16.379 16.2907 16.379 16.0483C16.379 15.9236 16.4211 15.8182 16.4968 15.738C16.5999 15.6288 16.7652 15.5666 16.9709 15.5666C17.2668 15.5666 17.5018 15.7163 17.5861 15.9459C17.6162 16.028 17.6862 16.0974 17.774 16.0974H18.3853C18.4789 16.0974 18.5554 16.0203 18.543 15.9278C18.4738 15.4076 18.1357 15.0112 17.6301 14.8282V14.1367C17.6301 14.0889 17.5912 14.05 17.5431 14.05H16.3794C16.3314 14.05 16.2924 14.0889 16.2924 14.1367V14.8226Z" fill="currentColor"/>
</svg>
