<svg width="24" height="24" viewBox="0 0 24 24" fill="none" xmlns="http://www.w3.org/2000/svg">
<path d="M10 8C10 9.10457 9.10457 10 8 10C6.89543 10 6 9.10457 6 8C6 6.89543 6.89543 6 8 6C9.10457 6 10 6.89543 10 8Z" fill="black"/>
<path fill-rule="evenodd" clip-rule="evenodd" d="M12.1464 2.14645C12.0527 2.05268 11.9255 2 11.7929 2H2.5C2.22386 2 2 2.22386 2 2.5V11.7929C2 11.9255 2.05268 12.0527 2.14645 12.1464L11.6464 21.6464C11.8417 21.8417 12.1583 21.8417 12.3536 21.6464L21.6464 12.3536C21.8417 12.1583 21.8417 11.8417 21.6464 11.6464L12.1464 2.14645ZM19.1716 12L12 19.1716L4 11.1716V4H11.1716L19.1716 12Z" fill="black"/>
</svg>
