<svg viewBox="0 0 24 24" fill="none" xmlns="http://www.w3.org/2000/svg">
<path d="M20 13.0591C18.429 13.5129 16.3446 13.8331 14 13.9505V15.75C14 15.8881 13.8881 16 13.75 16H10.25C10.1119 16 10 15.8881 10 15.75V13.9505C7.65544 13.8331 5.57098 13.5129 4 13.0591V18H20V13.0591Z" fill="currentColor"/>
<path fill-rule="evenodd" clip-rule="evenodd" d="M8 3.5V6H2.5C2.22386 6 2 6.22386 2 6.5V19.5C2 19.7761 2.22386 20 2.5 20H21.5C21.7761 20 22 19.7761 22 19.5V6.5C22 6.22386 21.7761 6 21.5 6H16V3.5C16 3.22386 15.7761 3 15.5 3H8.5C8.22386 3 8 3.22386 8 3.5ZM10 5V6H14V5H10ZM4 11V8H20V11V13.0591V18H4V13.0591V11Z" fill="currentColor"/>
<path d="M4 8V11H4.11159C4.30311 11.0639 4.51501 11.1282 4.74806 11.1918C6.52296 11.6759 9.08766 12 12 12C14.9123 12 17.477 11.6759 19.2519 11.1918C19.485 11.1282 19.6969 11.0639 19.8884 11L20 11V8.94094V8H4Z" fill="currentColor"/>
</svg>
