<svg viewBox="0 0 18 18" fill="none" xmlns="http://www.w3.org/2000/svg">
<path fill-rule="evenodd" clip-rule="evenodd" d="M15 2.25C15 2.66421 14.6642 3 14.25 3H14.0046L15.7881 8.25H16C16.2761 8.25 16.5043 8.4754 16.4584 8.74771C16.3556 9.35866 16.065 9.9272 15.6211 10.3711C15.5766 10.4156 15.531 10.4586 15.4841 10.5C14.9378 10.9818 14.2327 11.25 13.5 11.25L13.3513 11.2463C12.6592 11.212 12.0002 10.9388 11.4866 10.4736L11.3789 10.3711C10.935 9.9272 10.6444 9.35866 10.5416 8.74771C10.4957 8.4754 10.7239 8.25 11 8.25H11.2881L13.0042 3H9.75V15H12C12.4142 15 12.75 15.3358 12.75 15.75C12.75 16.1642 12.4142 16.5 12 16.5H6C5.58579 16.5 5.25 16.1642 5.25 15.75C5.25 15.3358 5.58579 15 6 15H8.25V3H5.00464L6.78809 8.25H7C7.27614 8.25 7.50425 8.4754 7.45841 8.74771C7.35555 9.35866 7.06499 9.9272 6.62109 10.3711C6.57662 10.4156 6.53102 10.4586 6.48413 10.5C5.93783 10.9818 5.23268 11.25 4.5 11.25L4.35132 11.2463C3.6592 11.212 3.00024 10.9388 2.48657 10.4736L2.37891 10.3711C1.93501 9.9272 1.64445 9.35866 1.54159 8.74771C1.49575 8.4754 1.72386 8.25 2 8.25H2.28809L4.00415 3H3.75C3.33579 3 3 2.66421 3 2.25C3 1.83579 3.33579 1.5 3.75 1.5H14.25C14.6642 1.5 15 1.83579 15 2.25ZM3.88037 8.25H5.18848L4.52197 6.28784L3.88037 8.25ZM12.8804 8.25H14.1885L13.522 6.28784L12.8804 8.25Z" fill="currentColor"/>
</svg>
