<svg viewBox="0 0 24 24" fill="none" xmlns="http://www.w3.org/2000/svg">
<path d="M14.25 13C14.1119 13 14 13.1119 14 13.25V16.75C14 16.8881 14.1119 17 14.25 17H17.75C17.8881 17 18 16.8881 18 16.75V13.25C18 13.1119 17.8881 13 17.75 13H14.25Z" fill="currentColor"/>
<path fill-rule="evenodd" clip-rule="evenodd" d="M7 2.5C7 2.22386 7.22386 2 7.5 2H8.5C8.77614 2 9 2.22386 9 2.5V4H15V2.5C15 2.22386 15.2239 2 15.5 2H16.5C16.7761 2 17 2.22386 17 2.5V4H20.5C20.7761 4 21 4.22386 21 4.5V19.5C21 19.7761 20.7761 20 20.5 20H3.5C3.22386 20 3 19.7761 3 19.5V4.5C3 4.22386 3.22386 4 3.5 4H7V2.5ZM19 6V8H5V6H19ZM5 10H19V18H5V10Z" fill="currentColor"/>
</svg>
