<svg viewBox="0 0 24 24" fill="none" xmlns="http://www.w3.org/2000/svg">
<path fill-rule="evenodd" clip-rule="evenodd" d="M4 15.6778C4 15.2823 4.2352 14.9242 4.59919 14.7657L5.58697 14.3355C9.67526 12.5548 14.3247 12.5548 18.413 14.3355L19.4008 14.7657C19.7648 14.9242 20 15.2823 20 15.6778V20.0044C20 20.5543 19.5523 21 19 21H5C4.44771 21 4 20.5543 4 20.0044V15.6778Z" fill="currentColor"/>
<path d="M16.5 7.5C16.5 9.98528 14.4853 12 12 12C9.51472 12 7.5 9.98528 7.5 7.5C7.5 5.01472 9.51472 3 12 3C14.4853 3 16.5 5.01472 16.5 7.5Z" fill="currentColor"/>
</svg>
