<svg viewBox="0 0 24 24" fill="none" xmlns="http://www.w3.org/2000/svg">
<path d="M4.35702 19.643L8.05719 19.1144L16.3435 10.8281L13.1719 7.65649L4.88562 15.9428L4.35702 19.643Z" fill="currentColor"/>
<path d="M17.7577 9.41385L19.1716 8L16 4.82843L14.5861 6.24228L17.7577 9.41385Z" fill="currentColor"/>
<path fill-rule="evenodd" clip-rule="evenodd" d="M3.11785 14.8821C3.04135 14.9586 2.99173 15.0579 2.97643 15.165L2.09428 21.34C2.04714 21.67 2.32998 21.9529 2.65997 21.9057L8.83501 21.0236C8.94211 21.0083 9.04135 20.9586 9.11785 20.8821L21.6464 8.35355C21.8417 8.15829 21.8417 7.84171 21.6464 7.64645L16.3536 2.35355C16.1583 2.15829 15.8417 2.15829 15.6464 2.35355L3.11785 14.8821ZM8.05719 19.1144L4.35702 19.643L4.88562 15.9428L13.1719 7.65649L14.5861 6.24228L16 4.82843L19.1716 8L17.7577 9.41385L16.3435 10.8281L8.05719 19.1144Z" fill="currentColor"/>
</svg>
