<svg xmlns="http://www.w3.org/2000/svg" width="14" height="15" viewBox="0 0 14 15" fill="none">
  <path fill-rule="evenodd" clip-rule="evenodd" d="M11.4697 4.71967C11.8092 5.05923 12 5.51978 12 6H8C6.89543 6 6 5.10457 6 4V1.5H1.5V13.5H4.5C4.91421 13.5 5.25 13.8358 5.25 14.25C5.25 14.6642 4.91421 15 4.5 15H2C0.89543 15 0 14.1046 0 13V2C0 0.89543 0.895431 0 2 0H5.92157C6.45201 0 6.96071 0.210714 7.33579 0.585786L11.4697 4.71967ZM7.5 4.5H9.12891L7.5 2.87109V4.5Z" fill="currentColor" />
  <path fill-rule="evenodd" clip-rule="evenodd" d="M9.375 7.5C11.239 7.5 12.75 9.01104 12.75 10.875C12.75 11.5355 12.5586 12.1506 12.2307 12.6709L13.2803 13.7205C13.5731 14.0133 13.5731 14.4881 13.2803 14.781C12.9874 15.0739 12.5126 15.0739 12.2197 14.781L11.1702 13.7314C10.65 14.059 10.0351 14.25 9.375 14.25C7.51104 14.25 6 12.739 6 10.875C6 9.01104 7.51104 7.5 9.375 7.5ZM9.375 9C8.33947 9 7.5 9.83947 7.5 10.875C7.5 11.9105 8.33947 12.75 9.375 12.75C10.4105 12.75 11.25 11.9105 11.25 10.875C11.25 9.83947 10.4105 9 9.375 9Z" fill="currentColor" />
</svg>