<svg viewBox="0 0 24 24" fill="none" xmlns="http://www.w3.org/2000/svg">
<path fill-rule="evenodd" clip-rule="evenodd" d="M16 12C16 14.2091 14.2091 16 12 16C9.79086 16 8 14.2091 8 12C8 9.79086 9.79086 8 12 8C14.2091 8 16 9.79086 16 12ZM14 12C14 13.1046 13.1046 14 12 14C10.8954 14 10 13.1046 10 12C10 10.8954 10.8954 10 12 10C13.1046 10 14 10.8954 14 12Z" fill="currentColor"/>
<path fill-rule="evenodd" clip-rule="evenodd" d="M21.7574 11.434L22 12L21.7574 12.566C20.0846 16.4692 16.2466 19 12 19C7.75339 19 3.91539 16.4692 2.24256 12.566L2 12L2.24256 11.434C3.91538 7.53077 7.75339 5 12 5C16.2466 5 20.0846 7.53077 21.7574 11.434ZM12 17C15.3654 17 18.4146 15.0416 19.8204 12C18.4146 8.95841 15.3654 7 12 7C8.63458 7 5.58536 8.95841 4.17964 12C5.58536 15.0416 8.63458 17 12 17Z" fill="currentColor"/>
</svg>
