<svg viewBox="0 0 24 24" fill="none" xmlns="http://www.w3.org/2000/svg">
<path d="M8.5 21C9.32843 21 10 20.3284 10 19.5C10 18.6716 9.32843 18 8.5 18C7.67157 18 7 18.6716 7 19.5C7 20.3284 7.67157 21 8.5 21Z" fill="currentColor"/>
<path d="M18.5 21C19.3284 21 20 20.3284 20 19.5C20 18.6716 19.3284 18 18.5 18C17.6716 18 17 18.6716 17 19.5C17 20.3284 17.6716 21 18.5 21Z" fill="currentColor"/>
<path fill-rule="evenodd" clip-rule="evenodd" d="M18.5 18C19.1531 18 19.7087 18.4174 19.9146 19C19.9699 19.1564 20 19.3247 20 19.5C20 20.3284 19.3284 21 18.5 21C17.6716 21 17 20.3284 17 19.5C17 19.3247 17.0301 19.1564 17.0854 19C17.2913 18.4174 17.8469 18 18.5 18ZM8.5 18C9.15311 18 9.70873 18.4174 9.91465 19C9.96992 19.1564 10 19.3247 10 19.5C10 20.3284 9.32843 21 8.5 21C7.67157 21 7 20.3284 7 19.5C7 19.3247 7.03008 19.1564 7.08535 19C7.29127 18.4174 7.84689 18 8.5 18Z" fill="currentColor"/>
<path fill-rule="evenodd" clip-rule="evenodd" d="M4.18686 5H2.25C2.11193 5 2 4.88807 2 4.75V3.25C2 3.11193 2.11193 3 2.25 3H5.40657C5.64341 3 5.84775 3.16616 5.89606 3.39802L6.2298 5H21.3767C21.6966 5 21.9342 5.29621 21.8648 5.60847L20.087 13.6085C20.0362 13.8372 19.8333 14 19.5989 14H8.1048L8.31314 15H19.465C19.625 15 19.7438 15.1483 19.709 15.3045L19.3741 16.8045C19.3486 16.9187 19.2472 17 19.1301 17H7.09343C6.85659 17 6.65225 16.8338 6.60394 16.602L6.06186 14L4.18686 5Z" fill="currentColor"/>
</svg>
