<svg viewBox="0 0 19 18" fill="none" xmlns="http://www.w3.org/2000/svg">
<path fill-rule="evenodd" clip-rule="evenodd" d="M13.9 4.5H14.9C16.0046 4.5 16.9 5.39543 16.9 6.5V14.5C16.9 15.6046 16.0046 16.5 14.9 16.5H6.90002C5.79546 16.5 4.90002 15.6046 4.90002 14.5V13.5H3.90002C2.79545 13.5 1.90002 12.6046 1.90002 11.5V3.5C1.90002 2.39543 2.79546 1.5 3.90002 1.5H11.9C13.0046 1.5 13.9 2.39543 13.9 3.5V4.5ZM13.9 13C13.9 13.2761 13.6762 13.5 13.4 13.5H6.40002V15H15.4V6H13.9V13ZM3.40002 12H12.4V3H3.40002V12Z" fill="currentColor"/>
</svg>
