<svg viewBox="0 0 18 18" fill="none" xmlns="http://www.w3.org/2000/svg">
<path d="M8.25 14.25H4.65C3.80992 14.25 3.38988 14.25 3.06902 14.0865C2.78677 13.9427 2.5573 13.7132 2.41349 13.431C2.25 13.1101 2.25 12.6901 2.25 11.85V6.15C2.25 5.30992 2.25 4.88988 2.41349 4.56901C2.5573 4.28677 2.78677 4.0573 3.06902 3.91349C3.38988 3.75 3.80992 3.75 4.65 3.75H13.35C14.1901 3.75 14.6102 3.75 14.931 3.91349C15.2132 4.0573 15.4427 4.28677 15.5865 4.56901C15.75 4.88988 15.75 5.30992 15.75 6.15V9M2.25 6.75H15.75M13.5 15.75V11.25M15.75 13.5006L11.25 13.5" stroke="currentColor" stroke-width="1.6" stroke-linecap="round" stroke-linejoin="round"/>
</svg>
