<svg viewBox="0 0 24 24" fill="none" xmlns="http://www.w3.org/2000/svg">
<path d="M6.57337 4.15224C6.76852 3.94912 7.09286 3.94723 7.29038 4.14804L10.7129 7.66107C10.8969 7.84811 11 8.09995 11 8.3623V10.1701C11 10.3939 10.7285 10.5049 10.5716 10.3453L7.93997 7.6298L7.93997 19.7514C7.93997 19.8894 7.82804 20.0014 7.68997 20.0014H6.18997C6.0519 20.0014 5.93997 19.8894 5.93997 19.7514L5.93997 7.61248L3.43073 10.3307C3.27495 10.4937 3 10.3834 3 10.1579L3 8.35548C3 8.09719 3.09995 7.84891 3.2789 7.66265L6.57337 4.15224Z" fill="currentColor"/>
<path d="M16.5734 19.8478C16.7685 20.0509 17.0929 20.0528 17.2904 19.852L20.7129 16.3389C20.8969 16.1519 21 15.9001 21 15.6377V13.8299C21 13.6061 20.7285 13.4951 20.5716 13.6548L17.94 16.3702V4.24866C17.94 4.11059 17.828 3.99866 17.69 3.99866H16.19C16.0519 3.99866 15.94 4.11059 15.94 4.24866V16.3875L13.4307 13.6693C13.275 13.5064 13 13.6166 13 13.8421V15.6445C13 15.9028 13.0999 16.1511 13.2789 16.3374L16.5734 19.8478Z" fill="currentColor"/>
</svg>
