<svg viewBox="0 0 24 24" fill="none" xmlns="http://www.w3.org/2000/svg">
<path d="M14.5769 16.0049C14.4656 16.0049 14.4098 15.8703 14.4885 15.7915L17.2752 13.0049L7.33933 13.0049C7.20126 13.0049 7.08933 12.893 7.08933 12.7549V11.2549C7.08933 11.1169 7.20126 11.0049 7.33933 11.0049L17.2752 11.0049L14.4836 8.21339C14.4049 8.13464 14.4606 8 14.572 8H16.8915C17.0242 8 17.1513 8.05268 17.2451 8.14645L20.9268 11.8281C21.0244 11.9258 21.0244 12.084 20.9268 12.1817L17.25 15.8585C17.1563 15.9523 17.0291 16.0049 16.8965 16.0049L14.5769 16.0049Z" fill="currentColor"/>
<path d="M5 5L5 19H9.75C9.88807 19 10 19.1119 10 19.25V20.75C10 20.8881 9.88807 21 9.75 21H4C3.44772 21 3 20.5523 3 20L3 4C3 3.44772 3.44772 3 4 3L9.75 3C9.88807 3 10 3.11193 10 3.25L10 4.75C10 4.88807 9.88807 5 9.75 5L5 5Z" fill="currentColor"/>
<path d="M6.25 3H12C12.5523 3 13 3.44772 13 4V6.75C13 6.88807 12.8881 7 12.75 7L11.25 7C11.1119 7 11 6.88807 11 6.75V5L6.25 5C6.11193 5 6 4.88807 6 4.75V3.25C6 3.11193 6.11193 3 6.25 3Z" fill="currentColor"/>
<path d="M6.25 21H12C12.5523 21 13 20.5523 13 20V17.25C13 17.1119 12.8881 17 12.75 17H11.25C11.1119 17 11 17.1119 11 17.25V19H6.25C6.11193 19 6 19.1119 6 19.25V20.75C6 20.8881 6.11193 21 6.25 21Z" fill="currentColor"/>
</svg>
