<svg viewBox="0 0 19 18" fill="none" xmlns="http://www.w3.org/2000/svg">
<path d="M9.5 14.25H5.15C4.30992 14.25 3.88988 14.25 3.56902 14.0865C3.28677 13.9427 3.0573 13.7132 2.91349 13.431C2.75 13.1102 2.75 12.6901 2.75 11.85V6.15C2.75 5.30992 2.75 4.88988 2.91349 4.56902C3.0573 4.28677 3.28677 4.0573 3.56902 3.91349C3.88988 3.75 4.30992 3.75 5.15 3.75H13.85C14.6901 3.75 15.1102 3.75 15.431 3.91349C15.7132 4.0573 15.9427 4.28677 16.0865 4.56902C16.25 4.88988 16.25 5.30992 16.25 6.15V10.5M2.75 6.75H16.25M16.25 13.5005L12.5 13.5" stroke="currentColor" stroke-width="1.2" stroke-linecap="round" stroke-linejoin="round"/>
</svg>
