<svg viewBox="0 0 24 24" fill="none" xmlns="http://www.w3.org/2000/svg">
<path d="M6 18H18V15.25C18 15.1119 18.1119 15 18.25 15H19.75C19.8881 15 20 15.1119 20 15.25V19C20 19.5523 19.5523 20 19 20H5C4.44772 20 4 19.5523 4 19V15.25C4 15.1119 4.11193 15 4.25 15H5.75C5.88807 15 6 15.1119 6 15.25V18Z" fill="currentColor"/>
<path d="M16.0049 9.4876C16.0049 9.37624 15.8703 9.32046 15.7915 9.39921L13.0049 12.1858V4.25C13.0049 4.11193 12.893 4 12.7549 4H11.2549C11.1169 4 11.0049 4.11193 11.0049 4.25V12.1858L8.21339 9.39428C8.13464 9.31554 8 9.37131 8 9.48267V11.8022C8 11.9348 8.05268 12.062 8.14645 12.1558L11.8281 15.8374C11.9258 15.9351 12.084 15.9351 12.1817 15.8374L15.8585 12.1607C15.9522 12.0669 16.0049 11.9397 16.0049 11.8071V9.4876Z" fill="currentColor"/>
</svg>
