<svg viewBox="0 0 24 24" fill="none" xmlns="http://www.w3.org/2000/svg">
<path d="M14.8287 11H11V11.8885C10.4223 11.7574 9.88681 11.5152 9.41721 11.1855C8.25781 10.3714 7.5 9.02422 7.5 7.5C7.5 5.01472 9.51472 3 12 3C14.4853 3 16.5 5.01472 16.5 7.5C16.5 8.91363 15.8482 10.175 14.8287 11Z" fill="currentColor"/>
<path d="M11 13.0311V21H5C4.44771 21 4 20.5543 4 20.0044V15.6778C4 15.2823 4.2352 14.9242 4.59919 14.7657L5.58697 14.3355C6.69762 13.8517 7.84968 13.4994 9.02066 13.2785C9.67583 13.1549 10.3369 13.0724 11 13.0311Z" fill="currentColor"/>
<path fill-rule="evenodd" clip-rule="evenodd" d="M12.7143 13.2143C12.7143 12.9381 12.9381 12.7143 13.2143 12.7143H20.7857C21.0619 12.7143 21.2857 12.9381 21.2857 13.2143V20.7857C21.2857 21.0619 21.0619 21.2857 20.7857 21.2857H13.2143C12.9381 21.2857 12.7143 21.0619 12.7143 20.7857V13.2143ZM19.2222 14V14.6879V18C19.2222 18.2289 18.9609 18.3596 18.7778 18.2222L17 16.8889L15.2222 18.2222C15.0391 18.3596 14.7778 18.2289 14.7778 18V14H19.2222Z" fill="currentColor"/>
<path fill-rule="evenodd" clip-rule="evenodd" d="M9.41721 11.1855C10.1482 11.6987 11.0389 12 12 12C12.9611 12 13.8518 11.6987 14.5828 11.1855C15.7422 10.3714 16.5 9.02422 16.5 7.5C16.5 5.01472 14.4853 3 12 3C9.51472 3 7.5 5.01472 7.5 7.5C7.5 9.02422 8.25781 10.3714 9.41721 11.1855ZM12 10C13.3807 10 14.5 8.88071 14.5 7.5C14.5 6.11929 13.3807 5 12 5C10.6193 5 9.5 6.11929 9.5 7.5C9.5 8.88071 10.6193 10 12 10Z" fill="currentColor"/>
<path d="M14.5 7.5C14.5 8.88071 13.3807 10 12 10C10.6193 10 9.5 8.88071 9.5 7.5C9.5 6.11929 10.6193 5 12 5C13.3807 5 14.5 6.11929 14.5 7.5Z" fill="currentColor"/>
</svg>
