<svg viewBox="0 0 64 64" fill="none" xmlns="http://www.w3.org/2000/svg">
<path d="M45.3387 34.6667C46.8115 34.6667 48.0054 35.8607 48.0054 37.3334C48.0054 38.701 46.9759 39.8281 45.6497 39.9821L45.3387 40.0001H14.4454L23.2243 48.7811C24.1856 49.7424 24.2596 51.255 23.4462 52.3011L23.2243 52.5524C22.263 53.5137 20.7504 53.5876 19.7043 52.7742L19.4531 52.5524L6.11977 39.219C4.5129 37.6122 5.53161 34.9143 7.70237 34.6827L8.00539 34.6667H45.3387ZM44.3011 11.226L44.5523 11.4478L57.8857 24.7811C59.4925 26.388 58.4738 29.0859 56.3031 29.3175L56 29.3334H18.6667C17.1939 29.3334 16 28.1395 16 26.6667C16 25.2992 17.0295 24.1721 18.3557 24.018L18.6667 24.0001H49.56L40.7811 15.219C39.8198 14.2577 39.7458 12.7451 40.5592 11.699L40.7811 11.4478C41.7424 10.4865 43.255 10.4126 44.3011 11.226Z" fill="currentColor"/>
</svg>
