<svg viewBox="0 0 64 65" fill="none" xmlns="http://www.w3.org/2000/svg">
<path d="M40.6716 3.16699C41.8026 3.16731 42.8873 3.61695 43.6872 4.41699L52.083 12.8128L52.3669 13.1253C52.9888 13.8843 53.3327 14.8387 53.333 15.8285V32.5003C53.333 33.9731 52.1391 35.167 50.6663 35.167C49.1936 35.167 47.9997 33.9731 47.9997 32.5003V16.2712L40.2288 8.50033H10.6663V56.5003H26.6663L26.9398 56.5133C28.2841 56.6502 29.333 57.7865 29.333 59.167C29.333 60.5475 28.2841 61.6838 26.9398 61.8206L26.6663 61.8337H9.59863C7.24313 61.8331 5.33357 59.9238 5.33301 57.568V7.43262C5.33357 5.07703 7.24305 3.16755 9.59863 3.16699H40.6716Z" fill="currentColor"/>
<path d="M39.9997 29.8337C41.4724 29.8337 42.6663 31.0276 42.6663 32.5003C42.6663 33.9731 41.4724 35.167 39.9997 35.167H18.6663C17.1936 35.167 15.9997 33.9731 15.9997 32.5003C15.9997 31.0276 17.1936 29.8337 18.6663 29.8337H39.9997Z" fill="currentColor"/>
<path d="M39.9997 21.8337C41.4724 21.8337 42.6663 23.0276 42.6663 24.5003C42.6663 25.9731 41.4724 27.167 39.9997 27.167H18.6663C17.1936 27.167 15.9997 25.9731 15.9997 24.5003C15.9997 23.0276 17.1936 21.8337 18.6663 21.8337H39.9997Z" fill="currentColor"/>
<path fill-rule="evenodd" clip-rule="evenodd" d="M46.0124 37.8337C46.9928 37.8337 47.8984 38.3579 48.388 39.2076L59.6583 58.7787C60.1475 59.6285 60.1474 60.6767 59.6583 61.5264C59.1688 62.3762 58.263 62.9 57.2827 62.9003H34.7422C33.7618 62.9 32.8561 62.3761 32.3666 61.5264C31.8774 60.6766 31.8774 59.6286 32.3666 58.7787L43.6369 39.2076C44.1266 38.3578 45.0322 37.8338 46.0124 37.8337ZM35.9546 59.4519H56.0703L46.0124 41.9854L35.9546 59.4519Z" fill="currentColor"/>
<path d="M45.8662 55.9778C46.6194 55.9786 47.2305 56.5891 47.2308 57.3423C47.2307 58.0958 46.6195 58.7061 45.8662 58.7069C45.1122 58.7069 44.5018 58.0963 44.5017 57.3423C44.502 56.5886 45.1124 55.9778 45.8662 55.9778Z" fill="currentColor"/>
<path d="M45.7256 45.8397C46.6044 45.7635 47.378 46.4139 47.4548 47.2929V47.5715L46.9053 53.8606C46.8542 54.4353 46.3475 54.8613 45.7725 54.8111C45.2592 54.7657 44.8657 54.3563 44.822 53.8606L44.2725 47.5715C44.1957 46.6927 44.8469 45.9169 45.7256 45.8397Z" fill="currentColor"/>
</svg>
