<svg viewBox="0 0 24 24" fill="none" xmlns="http://www.w3.org/2000/svg">
<path fill-rule="evenodd" clip-rule="evenodd" d="M15 9H21.5C21.7761 9 22 9.22386 22 9.5V12.882C22 12.9596 21.9819 13.0361 21.9472 13.1056L18.1382 20.7236C18.0535 20.893 17.8804 21 17.691 21H7V8.95509C7.05399 8.93052 7.10369 8.89631 7.14645 8.85355L12.8536 3.14645C12.9473 3.05268 13.0745 3 13.2071 3H15.4098C15.7187 3 15.9538 3.27743 15.903 3.5822L15 9ZM5 9H2.5C2.22386 9 2 9.22386 2 9.5V20.5C2 20.7761 2.22386 21 2.5 21H5V9Z" fill="currentColor"/>
</svg>
