<svg viewBox="0 0 24 24" fill="none" xmlns="http://www.w3.org/2000/svg">
<path fill-rule="evenodd" clip-rule="evenodd" d="M5.53513 8C5.19479 7.41165 5 6.72857 5 6C5 3.79086 6.79086 2 9 2C10.1947 2 11.2671 2.52376 12 3.35418C12.7329 2.52376 13.8053 2 15 2C17.2091 2 19 3.79086 19 6C19 6.72857 18.8052 7.41165 18.4649 8H21C21.5523 8 22 8.44772 22 9V13C22 13.5523 21.5523 14 21 14H20V21C20 21.5523 19.5523 22 19 22H5C4.44772 22 4 21.5523 4 21V14H3C2.44772 14 2 13.5523 2 13V9C2 8.44772 2.44772 8 3 8H5.53513ZM11 8V6C11 4.89543 10.1046 4 9 4C7.89543 4 7 4.89543 7 6C7 7.10457 7.89543 8 9 8H11ZM18 20H13H11H6V14V12H4V10H11H13H20V12H18V14V20ZM17 6C17 7.10457 16.1046 8 15 8H13V6C13 4.89543 13.8954 4 15 4C16.1046 4 17 4.89543 17 6Z" fill="currentColor"/>
<path d="M13 20H18V14H13V20Z" fill="currentColor"/>
<path d="M11 20V14H6V20H11Z" fill="currentColor"/>
<path d="M4 10V12H6H11V10H4Z" fill="currentColor"/>
<path d="M20 12V10H13V12H18H20Z" fill="currentColor"/>
</svg>
