<svg viewBox="0 0 24 24" fill="none" xmlns="http://www.w3.org/2000/svg">
<path d="M11.5748 4.15224C11.77 3.94912 12.0943 3.94723 12.2918 4.14804L17.7144 9.66107C17.8984 9.84811 18.0015 10.1 18.0015 10.3623V12.1701C18.0015 12.3939 17.7299 12.5049 17.5731 12.3453L12.9414 7.6298L12.9414 19.7514C12.9414 19.8894 12.8295 20.0014 12.6914 20.0014H11.1914C11.0534 20.0014 10.9414 19.8894 10.9414 19.7514L10.9414 7.61248L6.4322 12.3307C6.27642 12.4937 6.00146 12.3834 6.00146 12.1579L6.00146 10.3555C6.00146 10.0972 6.10141 9.84891 6.28037 9.66265L11.5748 4.15224Z" fill="currentColor"/>
</svg>
