<svg viewBox="0 0 18 18" fill="none" xmlns="http://www.w3.org/2000/svg">
<path fill-rule="evenodd" clip-rule="evenodd" d="M15.2197 15.2197C14.9268 15.5125 14.4519 15.5125 14.159 15.2197L2.78035 3.84099C2.48745 3.5481 2.48745 3.07322 2.78035 2.78033V2.78033C3.07324 2.48744 3.54811 2.48744 3.84101 2.78033L15.2197 14.159C15.5126 14.4519 15.5126 14.9268 15.2197 15.2197V15.2197Z" fill="currentColor"/>
<path fill-rule="evenodd" clip-rule="evenodd" d="M2.78033 15.2197C2.48744 14.9268 2.48744 14.4519 2.78033 14.159L14.159 2.78033C14.4519 2.48744 14.9268 2.48744 15.2197 2.78033V2.78033C15.5126 3.07322 15.5126 3.5481 15.2197 3.84099L3.84099 15.2197C3.5481 15.5125 3.07322 15.5125 2.78033 15.2197V15.2197Z" fill="currentColor"/>
</svg>
