<svg viewBox="0 0 24 24" fill="none" xmlns="http://www.w3.org/2000/svg">
<path d="M11.5748 19.8478C11.77 20.0509 12.0943 20.0528 12.2918 19.852L17.7144 14.3389C17.8984 14.1519 18.0015 13.9001 18.0015 13.6377V11.8299C18.0015 11.6061 17.7299 11.4951 17.5731 11.6548L12.9414 16.3702L12.9414 4.24866C12.9414 4.11059 12.8295 3.99866 12.6914 3.99866L11.1914 3.99866C11.0534 3.99866 10.9414 4.11059 10.9414 4.24866L10.9414 16.3875L6.4322 11.6693C6.27642 11.5064 6.00146 11.6166 6.00146 11.8421L6.00146 13.6445C6.00146 13.9028 6.10141 14.1511 6.28037 14.3374L11.5748 19.8478Z" fill="currentColor"/>
</svg>
