<svg viewBox="0 0 19 18" fill="none" xmlns="http://www.w3.org/2000/svg">
<path fill-rule="evenodd" clip-rule="evenodd" d="M16.875 9.0011C16.875 4.85896 13.5171 1.5011 9.375 1.5011C5.23286 1.5011 1.875 4.85896 1.875 9.0011C1.875 13.1432 5.23286 16.5011 9.375 16.5011C13.5171 16.5011 16.875 13.1432 16.875 9.0011ZM10.4355 9.0011L11.4961 7.94055C11.789 7.64769 11.789 7.17287 11.4961 6.88C11.2032 6.58714 10.7284 6.58714 10.4355 6.88001L9.375 7.94055L8.31445 6.88C8.02159 6.58714 7.54677 6.58714 7.25391 6.88C6.96104 7.17287 6.96104 7.64769 7.25391 7.94055L8.31445 9.0011L7.25391 10.0616C6.96104 10.3545 6.96104 10.8293 7.25391 11.1222C7.54677 11.4151 8.02159 11.4151 8.31445 11.1222L9.375 10.0616L10.4355 11.1222C10.7284 11.4151 11.2032 11.4151 11.4961 11.1222C11.789 10.8293 11.789 10.3545 11.4961 10.0616L10.4355 9.0011Z" fill="currentColor"/>
</svg>
