<svg viewBox="0 0 24 24" fill="none" xmlns="http://www.w3.org/2000/svg">
<path fill-rule="evenodd" clip-rule="evenodd" d="M9.99874 4C9.99874 2.89543 10.8942 2 11.9987 2C13.1033 2 13.9987 2.89543 13.9987 4V4.34141C16.3291 5.16508 17.9987 7.38756 17.9987 10V16L19.875 18.1733C20.1547 18.4972 19.9245 19 19.4965 19H4.50097C4.07295 19 3.8428 18.4972 4.1225 18.1733L5.99874 16V10C5.99874 7.38756 7.66836 5.16508 9.99874 4.34141V4Z" fill="currentColor"/>
<path d="M13.9987 20C13.9987 20.2626 13.947 20.5227 13.8465 20.7654C13.746 21.008 13.5987 21.2285 13.413 21.4142C13.2272 21.5999 13.0068 21.7472 12.7641 21.8478C12.5215 21.9483 12.2614 22 11.9987 22C11.7361 22 11.476 21.9483 11.2334 21.8478C10.9907 21.7472 10.7702 21.5999 10.5845 21.4142C10.3988 21.2285 10.2515 21.008 10.151 20.7654C10.0505 20.5227 9.99874 20.2626 9.99874 20H13.9987Z" fill="currentColor"/>
</svg>
