<svg viewBox="0 0 24 24" fill="none" xmlns="http://www.w3.org/2000/svg">
<path fill-rule="evenodd" clip-rule="evenodd" d="M22 5.5C22 5.22386 21.7761 5 21.5 5H2.5C2.22386 5 2 5.22386 2 5.5V18.5C2 18.7761 2.22386 19 2.5 19H21.5C21.7761 19 22 18.7761 22 18.5V5.5ZM20 8.4L16 11.7L20 15.4V8.4ZM12.3182 14.7375C12.1334 14.8899 11.8666 14.8899 11.6818 14.7375L9.55682 12.9844L5.2156 17H18.7844L14.4432 12.9844L12.3182 14.7375ZM4 15.4L8 11.7L4 8.4V15.4ZM5.44579 7L18.5542 7L14.5184 10.3295L12.9616 11.6139L12 12.4072L11.0384 11.6139L9.48159 10.3295L5.44579 7Z" fill="currentColor"/>
</svg>
