<svg viewBox="0 0 19 19" fill="none" xmlns="http://www.w3.org/2000/svg">
<path fill-rule="evenodd" clip-rule="evenodd" d="M12.5 11.75C13.4796 11.75 14.3129 12.3761 14.6218 13.25H15.5C15.9142 13.25 16.25 13.5858 16.25 14C16.25 14.4142 15.9142 14.75 15.5 14.75H14.6218C14.3129 15.6239 13.4796 16.25 12.5 16.25C11.5204 16.25 10.6871 15.6239 10.3782 14.75H3.5C3.08579 14.75 2.75 14.4142 2.75 14C2.75 13.5858 3.08579 13.25 3.5 13.25H10.3782C10.6871 12.3761 11.5204 11.75 12.5 11.75ZM12.5 13.25C12.0858 13.25 11.75 13.5858 11.75 14C11.75 14.4142 12.0858 14.75 12.5 14.75C12.9142 14.75 13.25 14.4142 13.25 14C13.25 13.5858 12.9142 13.25 12.5 13.25Z" fill="currentColor"/>
<path fill-rule="evenodd" clip-rule="evenodd" d="M6.5 7.25C7.47965 7.25 8.31294 7.87613 8.62183 8.75H15.5C15.9142 8.75 16.25 9.08579 16.25 9.5C16.25 9.91421 15.9142 10.25 15.5 10.25H8.62183C8.31294 11.1239 7.47965 11.75 6.5 11.75C5.52035 11.75 4.68706 11.1239 4.37817 10.25H3.5C3.08579 10.25 2.75 9.91421 2.75 9.5C2.75 9.08579 3.08579 8.75 3.5 8.75H4.37817C4.68706 7.87613 5.52035 7.25 6.5 7.25ZM6.5 8.75C6.08579 8.75 5.75 9.08579 5.75 9.5C5.75 9.91421 6.08579 10.25 6.5 10.25C6.91421 10.25 7.25 9.91421 7.25 9.5C7.25 9.08579 6.91421 8.75 6.5 8.75Z" fill="currentColor"/>
<path fill-rule="evenodd" clip-rule="evenodd" d="M12.5 2.75C13.4796 2.75 14.3129 3.37613 14.6218 4.25H15.5C15.9142 4.25 16.25 4.58579 16.25 5C16.25 5.41421 15.9142 5.75 15.5 5.75H14.6218C14.3129 6.62387 13.4796 7.25 12.5 7.25C11.5204 7.25 10.6871 6.62387 10.3782 5.75H3.5C3.08579 5.75 2.75 5.41421 2.75 5C2.75 4.58579 3.08579 4.25 3.5 4.25H10.3782C10.6871 3.37613 11.5204 2.75 12.5 2.75ZM12.5 4.25C12.0858 4.25 11.75 4.58579 11.75 5C11.75 5.41421 12.0858 5.75 12.5 5.75C12.9142 5.75 13.25 5.41421 13.25 5C13.25 4.58579 12.9142 4.25 12.5 4.25Z" fill="currentColor"/>
</svg>
