<svg xmlns="http://www.w3.org/2000/svg" viewBox="0 0 64 64" fill="none">
  <path d="M22.6667 26.6667C20.4575 26.6667 18.6667 24.8758 18.6667 22.6667V22.6667C18.6667 20.4575 20.4575 18.6667 22.6667 18.6667H30.6667C32.8758 18.6667 34.6667 20.4575 34.6667 22.6667V22.6667C34.6667 24.8758 32.8758 26.6667 30.6667 26.6667H22.6667Z" fill="currentColor"/>
  <path fill-rule="evenodd" clip-rule="evenodd" d="M13.3333 56C10.3878 56 8 53.6122 8 50.6667V13.3333C8 10.3878 10.3878 8 13.3333 8H43.1242C44.5387 8 45.8952 8.5619 46.8954 9.5621L54.4379 17.1046C55.4381 18.1048 56 19.4613 56 20.8758V50.6667C56 53.6122 53.6122 56 50.6667 56H13.3333ZM13.3333 13.3333H43.1242L50.6667 20.8758V50.6667H45.3333V37.3333C45.3333 34.3878 42.9455 32 40 32H24C21.0545 32 18.6667 34.3878 18.6667 37.3333V50.6667H13.3333V13.3333ZM24 50.6667H40V37.3333H24V50.6667Z" fill="currentColor"/>
</svg>