<svg viewBox="0 0 24 24" fill="none" xmlns="http://www.w3.org/2000/svg">
<path fill-rule="evenodd" clip-rule="evenodd" d="M12 19.2C15.9764 19.2 19.2 15.9764 19.2 12C19.2 8.02355 15.9764 4.8 12 4.8C8.02355 4.8 4.8 8.02355 4.8 12C4.8 15.9764 8.02355 19.2 12 19.2ZM12 21C16.9706 21 21 16.9706 21 12C21 7.02944 16.9706 3 12 3C7.02944 3 3 7.02944 3 12C3 16.9706 7.02944 21 12 21Z" fill="currentColor"/>
<path d="M11 8.25C11 8.11193 11.1119 8 11.25 8H12.75C12.8881 8 13 8.11193 13 8.25V15.75C13 15.8881 12.8881 16 12.75 16H11.25C11.1119 16 11 15.8881 11 15.75V8.25Z" fill="currentColor"/>
<path d="M15.75 11C15.8881 11 16 11.1119 16 11.25V12.75C16 12.8881 15.8881 13 15.75 13H8.25C8.11193 13 8 12.8881 8 12.75V11.25C8 11.1119 8.11193 11 8.25 11L15.75 11Z" fill="currentColor"/>
</svg>
