<svg viewBox="0 0 24 24" fill="none" xmlns="http://www.w3.org/2000/svg">
<path fill-rule="evenodd" clip-rule="evenodd" d="M3.5 3C3.22386 3 3 3.22386 3 3.5V20.5C3 20.7761 3.22386 21 3.5 21H20.5C20.7761 21 21 20.7761 21 20.5V3.5C21 3.22386 20.7761 3 20.5 3H3.5ZM12.5911 12.8232L18 7.41431V12.75C18 12.8881 18.1119 13 18.25 13H19.75C19.8881 13 20 12.8881 20 12.75V4.5C20 4.22386 19.7761 4 19.5 4H11.25C11.1119 4 11 4.11193 11 4.25V5.75C11 5.88807 11.1119 6 11.25 6H16.5859L11.1769 11.409C11.0792 11.5066 11.0792 11.6649 11.1769 11.7626L12.2375 12.8232C12.3352 12.9209 12.4935 12.9209 12.5911 12.8232Z" fill="currentColor"/>
</svg>
