<svg viewBox="0 0 24 24" fill="none" xmlns="http://www.w3.org/2000/svg">
<path fill-rule="evenodd" clip-rule="evenodd" d="M12 19C15.866 19 19 15.866 19 12C19 8.13401 15.866 5 12 5C8.13401 5 5 8.13401 5 12C5 15.866 8.13401 19 12 19ZM12 21C16.9706 21 21 16.9706 21 12C21 7.02944 16.9706 3 12 3C7.02944 3 3 7.02944 3 12C3 16.9706 7.02944 21 12 21Z" fill="currentColor"/>
<path fill-rule="evenodd" clip-rule="evenodd" d="M19 12C19 15.866 15.866 19 12 19C8.13401 19 5 15.866 5 12C5 8.13401 8.13401 5 12 5C15.866 5 19 8.13401 19 12ZM9.73877 13.429H10.6999C10.8305 13.429 10.9345 13.5324 10.9816 13.6542C11.1178 14.0059 11.507 14.2206 12.0314 14.2206C12.598 14.2206 12.9868 13.9168 12.9868 13.4796C12.9868 13.1114 12.7262 12.9135 12.0438 12.7617L11.2581 12.5868C10.1663 12.3567 9.60381 11.694 9.60381 10.6492C9.60381 9.68175 10.1232 8.96234 10.9839 8.6588V7.63C10.9839 7.5582 11.0421 7.5 11.1139 7.5H12.8539C12.9257 7.5 12.9839 7.5582 12.9839 7.63V8.66716C13.7399 8.94166 14.2454 9.53629 14.3489 10.3166C14.3673 10.4554 14.253 10.571 14.113 10.571H13.1991C13.0678 10.571 12.9632 10.467 12.9181 10.3437C12.792 9.99943 12.4407 9.77482 11.9984 9.77482C11.4649 9.77482 11.1133 10.0556 11.1133 10.4974C11.1133 10.8609 11.378 11.0726 12.0066 11.2107L12.7759 11.3764C13.9545 11.6295 14.4839 12.2232 14.4839 13.2771C14.4839 14.3302 13.9342 15.0667 12.9839 15.3595V16.37C12.9839 16.4418 12.9257 16.5 12.8539 16.5H11.1139C11.0421 16.5 10.9839 16.4418 10.9839 16.37V15.3673C10.1396 15.1165 9.60493 14.5216 9.5017 13.6833C9.48459 13.5444 9.59881 13.429 9.73877 13.429Z" fill="currentColor"/>
</svg>
