<svg viewBox="0 0 24 24" fill="none" xmlns="http://www.w3.org/2000/svg">
<path d="M12 13C13.1046 13 14 13.8954 14 15C14 16.1046 13.1046 17 12 17C10.8954 17 10 16.1046 10 15C10 13.8954 10.8954 13 12 13Z" fill="currentColor"/>
<path fill-rule="evenodd" clip-rule="evenodd" d="M17 8C18.6569 8 20 9.34315 20 11V18C20 20.2091 18.2091 22 16 22H8C5.79086 22 4 20.2091 4 18V11C4 9.34315 5.34315 8 7 8V6C7 3.79086 8.79086 2 11 2H13C15.2091 2 17 3.79086 17 6V8ZM6 18.5C6 19.3284 6.67157 20 7.5 20H16.5C17.3284 20 18 19.3284 18 18.5V11.5C18 10.6716 17.3284 10 16.5 10H7.5C6.67157 10 6 10.6716 6 11.5V18.5ZM9 8H15V6C15 4.89543 14.1046 4 13 4H11C9.89543 4 9 4.89543 9 6V8Z" fill="currentColor"/>
</svg>
