<svg viewBox="0 0 24 24" fill="none" xmlns="http://www.w3.org/2000/svg">
<path fill-rule="evenodd" clip-rule="evenodd" d="M10 3C14.4183 3 18 6.58172 18 11C18 12.7263 17.4532 14.3248 16.5234 15.632L21.8131 20.3339C21.9163 20.4256 21.9256 20.5837 21.8339 20.6868L20.8373 21.808C20.7456 21.9112 20.5876 21.9205 20.4844 21.8287L15.1702 17.105C13.7758 18.2871 11.9712 19 10 19C5.58172 19 2 15.4183 2 11C2 6.58172 5.58172 3 10 3ZM10 17C13.3137 17 16 14.3137 16 11C16 7.68629 13.3137 5 10 5C6.68629 5 4 7.68629 4 11C4 14.3137 6.68629 17 10 17Z" fill="currentColor"/>
<path fill-rule="evenodd" clip-rule="evenodd" d="M16 11C16 14.3137 13.3137 17 10 17C6.68629 17 4 14.3137 4 11C4 7.68629 6.68629 5 10 5C13.3137 5 16 7.68629 16 11ZM8.5533 10.9675L7.07322 9.48744C6.97559 9.38981 6.97559 9.23151 7.07322 9.13388L8.13388 8.07322C8.23151 7.97559 8.38981 7.97559 8.48744 8.07322L9.96751 9.5533L11.4476 8.07322C11.5452 7.97559 11.7035 7.97559 11.8011 8.07322L12.8618 9.13388C12.9594 9.23151 12.9594 9.3898 12.8618 9.48743L11.3817 10.9675L12.8618 12.4476C12.9594 12.5452 12.9594 12.7035 12.8618 12.8011L11.8011 13.8618C11.7035 13.9594 11.5452 13.9594 11.4476 13.8618L9.96751 12.3817L8.48744 13.8618C8.38981 13.9594 8.23151 13.9594 8.13388 13.8618L7.07322 12.8011C6.97559 12.7035 6.97559 12.5452 7.07322 12.4476L8.5533 10.9675Z" fill="currentColor"/>
</svg>
