<svg viewBox="0 0 24 24" fill="none" xmlns="http://www.w3.org/2000/svg">
<path fill-rule="evenodd" clip-rule="evenodd" d="M5 5V19H19V5H5ZM3.5 3C3.22386 3 3 3.22386 3 3.5V20.5C3 20.7761 3.22386 21 3.5 21H20.5C20.7761 21 21 20.7761 21 20.5V3.5C21 3.22386 20.7761 3 20.5 3H3.5Z" fill="currentColor"/>
<path fill-rule="evenodd" clip-rule="evenodd" d="M12 7.5L14 9V5H10V9L12 7.5ZM8.8 12.4C8.47038 12.6472 8 12.412 8 12V3.5C8 3.22386 8.22386 3 8.5 3H15.5C15.7761 3 16 3.22386 16 3.5V12C16 12.412 15.5296 12.6472 15.2 12.4L12 10L8.8 12.4Z" fill="currentColor"/>
</svg>
