<svg viewBox="0 0 24 24" fill="none" xmlns="http://www.w3.org/2000/svg">
<path fill-rule="evenodd" clip-rule="evenodd" d="M9 15H2.5C2.22386 15 2 14.7761 2 14.5V11.118C2 11.0404 2.01807 10.9639 2.05279 10.8944L5.8618 3.27639C5.9465 3.107 6.11963 3 6.30902 3H17V15.0449C16.946 15.0695 16.8963 15.1037 16.8536 15.1464L11.1464 20.8536C11.0527 20.9473 10.9255 21 10.7929 21H8.59023C8.28126 21 8.04624 20.7226 8.09703 20.4178L9 15ZM19 15H21.5C21.7761 15 22 14.7761 22 14.5V3.5C22 3.22386 21.7761 3 21.5 3H19V15Z" fill="currentColor"/>
</svg>
