<svg viewBox="0 0 24 24" fill="none" xmlns="http://www.w3.org/2000/svg">
<path fill-rule="evenodd" clip-rule="evenodd" d="M8 6V3.5C8 3.22386 8.22386 3 8.5 3H15.5C15.7761 3 16 3.22386 16 3.5V6H21.5C21.7761 6 22 6.22386 22 6.5V19.5C22 19.7761 21.7761 20 21.5 20H2.5C2.22386 20 2 19.7761 2 19.5V6.5C2 6.22386 2.22386 6 2.5 6H8ZM10 6V5H14V6H10ZM4 8V11H4.11159C4.30311 11.0639 4.51501 11.1282 4.74806 11.1918C6.52296 11.6759 9.08766 12 12 12C14.9123 12 17.477 11.6759 19.2519 11.1918C19.485 11.1282 19.6969 11.0639 19.8884 11L20 11V8H4ZM20 13.0591C18.429 13.5129 16.3446 13.8331 14 13.9505V15.75C14 15.8881 13.8881 16 13.75 16H10.25C10.1119 16 10 15.8881 10 15.75V13.9505C7.65544 13.8331 5.57098 13.5129 4 13.0591V18H20V13.0591Z" fill="currentColor"/>
</svg>
