<svg viewBox="0 0 24 24" fill="none" xmlns="http://www.w3.org/2000/svg">
<path fill-rule="evenodd" clip-rule="evenodd" d="M9.43884 3H14.0612C14.2497 3 14.417 3.1205 14.4766 3.29915L15.1088 5.19476C15.18 5.4081 15.4014 5.53279 15.6209 5.4831L17.5709 5.0416C17.7547 4.99999 17.9445 5.08058 18.0421 5.24165L20.4367 9.19287C20.5343 9.35394 20.5178 9.55937 20.3958 9.70285L18.8269 11.5473C18.8137 11.5629 18.7979 11.5763 18.7804 11.5869C18.6578 11.6611 18.6577 11.8389 18.7804 11.9131C18.7979 11.9237 18.8136 11.9371 18.8269 11.9527L20.3957 13.7972C20.5178 13.9406 20.5343 14.1461 20.4366 14.3072L18.0421 18.2584C17.9445 18.4194 17.7547 18.5 17.5709 18.4584L15.6209 18.0169C15.4014 17.9672 15.18 18.0919 15.1088 18.3053L14.4766 20.2008C14.417 20.3795 14.2497 20.5 14.0612 20.5H9.43884C9.2504 20.5 9.0831 20.3795 9.02351 20.2008L8.39122 18.3052C8.32006 18.0919 8.09864 17.9672 7.87916 18.0169L5.92908 18.4584C5.7453 18.5 5.55549 18.4194 5.45788 18.2583L3.06335 14.3071C2.96573 14.146 2.98221 13.9406 3.10425 13.7971L4.67308 11.9527C4.68636 11.9371 4.70208 11.9237 4.71962 11.9131C4.84223 11.8389 4.84221 11.6611 4.7196 11.5869C4.70206 11.5763 4.68634 11.5629 4.67306 11.5473L3.10423 9.70288C2.98218 9.55939 2.96571 9.35397 3.06332 9.19289L5.45785 5.24168C5.55547 5.0806 5.74527 5.00002 5.92905 5.04163L7.87916 5.48314C8.09863 5.53283 8.32005 5.40814 8.39121 5.1948L9.02351 3.29915C9.0831 3.1205 9.2504 3 9.43884 3ZM12 15C13.6569 15 15 13.6569 15 12C15 10.3431 13.6569 9 12 9C10.3431 9 9 10.3431 9 12C9 13.6569 10.3431 15 12 15Z" fill="currentColor"/>
</svg>
