<svg viewBox="0 0 24 24" fill="none" xmlns="http://www.w3.org/2000/svg">
<path d="M12.9037 7.25683L13.9547 8.37385H9.14693C8.84053 8.37385 8.63 8.63097 8.63 8.9V9.83692C8.63 10.106 8.84053 10.3631 9.14693 10.3631H13.9547L12.9008 11.4832C12.7681 11.6242 12.7537 11.8127 12.8096 11.9562C12.8659 12.1006 13.012 12.24 13.2222 12.24H14.5854C14.769 12.24 14.9402 12.1623 15.0627 12.0321L17.2264 9.73244C17.4179 9.529 17.4179 9.20795 17.2264 9.00452L15.0656 6.70793C14.9431 6.57772 14.7719 6.5 14.5883 6.5H13.2251C13.0149 6.5 12.8688 6.63941 12.8125 6.78384C12.7566 6.92726 12.771 7.1158 12.9037 7.25683Z" fill="currentColor"/>
<path d="M11.0963 12.6269L10.0453 13.744H14.8531C15.1595 13.744 15.37 14.0011 15.37 14.2701V15.207C15.37 15.4761 15.1595 15.7332 14.8531 15.7332H10.0453L11.0992 16.8533C11.2319 16.9943 11.2463 17.1828 11.1904 17.3263C11.1341 17.4707 10.988 17.6101 10.7778 17.6101H9.41457C9.23098 17.6101 9.05983 17.5324 8.93731 17.4022L6.77356 15.1026C6.58214 14.8991 6.58214 14.5781 6.77356 14.3746L8.93441 12.078C9.05693 11.9478 9.22808 11.8701 9.41167 11.8701H10.7749C10.9851 11.8701 11.1312 12.0095 11.1875 12.154C11.2434 12.2974 11.229 12.4859 11.0963 12.6269Z" fill="currentColor"/>
<path fill-rule="evenodd" clip-rule="evenodd" d="M12 20C16.4183 20 20 16.4183 20 12C20 7.58172 16.4183 4 12 4C7.58172 4 4 7.58172 4 12C4 16.4183 7.58172 20 12 20ZM12 22C17.5228 22 22 17.5228 22 12C22 6.47715 17.5228 2 12 2C6.47715 2 2 6.47715 2 12C2 17.5228 6.47715 22 12 22Z" fill="currentColor"/>
</svg>
