<svg viewBox="0 0 24 24" fill="none" xmlns="http://www.w3.org/2000/svg">
<path fill-rule="evenodd" clip-rule="evenodd" d="M2.65997 21.9057C2.32998 21.9529 2.04714 21.67 2.09428 21.34L2.97643 15.165C2.99173 15.0579 3.04135 14.9586 3.11785 14.8821L15.6464 2.35355C15.8417 2.15829 16.1583 2.15829 16.3536 2.35355L21.6464 7.64645C21.8417 7.84171 21.8417 8.15829 21.6464 8.35355L9.11785 20.8821C9.04135 20.9586 8.94211 21.0083 8.83501 21.0236L2.65997 21.9057ZM8.05719 19.1144L4.35702 19.643L4.88562 15.9428L13.1719 7.65649L16.3435 10.8281L8.05719 19.1144ZM17.7577 9.41385L19.1716 8L16 4.82843L14.5861 6.24228L17.7577 9.41385Z" fill="currentColor"/>
</svg>
