<svg xmlns="http://www.w3.org/2000/svg" width="18" height="18" viewBox="0 0 18 18" fill="none">
<path d="M6.375 9.75C6.58211 9.75 6.75 9.91789 6.75 10.125V11.625L6.74268 11.7004C6.70778 11.8714 6.55628 12 6.375 12H4.125L4.04956 11.9927C3.90294 11.9628 3.78725 11.8471 3.75732 11.7004L3.75 11.625V10.125C3.75 9.94372 3.87859 9.79222 4.04956 9.75732L4.125 9.75H6.375Z" fill="currentColor"/>
<path fill-rule="evenodd" clip-rule="evenodd" d="M15.8269 3.75366C16.205 3.79216 16.5 4.11174 16.5 4.5V13.5L16.4963 13.5769C16.4604 13.9297 16.1797 14.2104 15.8269 14.2463L15.75 14.25H2.25L2.1731 14.2463C1.82028 14.2104 1.53959 13.9297 1.50366 13.5769L1.5 13.5V4.5C1.5 4.11174 1.795 3.79216 2.1731 3.75366L2.25 3.75H15.75L15.8269 3.75366ZM3 12.75H15V8.25H3V12.75ZM3 6.75H15V5.25H3V6.75Z" fill="currentColor"/>
</svg>
