<svg viewBox="0 0 64 64" fill="none" xmlns="http://www.w3.org/2000/svg">
<path fill-rule="evenodd" clip-rule="evenodd" d="M53.3335 42.498L42.6668 33.6092L28.5515 45.3719C27.6443 46.128 26.3478 46.1972 25.3652 45.5421L18.5167 40.9765L10.6668 45.6864V48H53.3335V42.498ZM53.3335 35.5556V16H10.6668V39.4667L17.2198 35.5349C18.1034 35.0047 19.2135 35.0312 20.071 35.6028L26.6668 40L40.9597 28.0893C41.9486 27.2652 43.3851 27.2652 44.374 28.0893L53.3335 35.5556ZM19.3922 28.7404C19.1397 28.1029 19.0002 27.4022 19.0002 26.6667C19.0002 23.7212 21.2387 21.3334 24.0002 21.3334C26.7616 21.3334 29.0002 23.7212 29.0002 26.6667C29.0002 28.1388 28.441 29.4716 27.5369 30.4366C26.744 31.283 25.6858 31.8465 24.5067 31.973C24.4284 31.9814 24.3495 31.9879 24.2702 31.9924C24.1808 31.9975 24.0908 32.0001 24.0002 32.0001C23.8292 32.0001 23.6602 31.9909 23.4936 31.973C22.6079 31.878 21.7904 31.5364 21.1023 31.0135C20.8744 30.8403 20.6607 30.6472 20.4634 30.4366C20.011 29.9538 19.645 29.3788 19.3922 28.7404ZM5.3335 16.0011C5.3335 13.0551 7.72203 10.6671 10.668 10.6675C24.8901 10.6691 39.1122 10.6652 53.3344 10.6662C56.2795 10.6664 58.6668 13.0541 58.6668 15.9993V48.0011C58.6668 50.9461 56.2797 53.3338 53.3347 53.3343C39.1117 53.3368 24.8887 53.3368 10.6656 53.3343C7.72059 53.3338 5.3335 50.9461 5.3335 48.0011V16.0011Z" fill="currentColor"/>
</svg>
