<svg viewBox="0 0 24 24" fill="none" xmlns="http://www.w3.org/2000/svg">
<path d="M14.5638 8.58496C14.4131 8.58496 14.2703 8.65301 14.1754 8.77015L11.1084 12.5546L9.84702 11.069C9.75201 10.9571 9.61264 10.8926 9.46586 10.8926H7.64343C7.4304 10.8926 7.31497 11.142 7.45285 11.3044L10.7522 15.1905C10.9548 15.4291 11.3245 15.425 11.5217 15.1818L16.5404 8.99242C16.6729 8.829 16.5566 8.58496 16.3462 8.58496H14.5638Z" fill="currentColor"/>
<path fill-rule="evenodd" clip-rule="evenodd" d="M14.5638 8.58496C14.4131 8.58496 14.2703 8.65301 14.1754 8.77015L11.1084 12.5546L9.84702 11.069C9.75201 10.9571 9.61264 10.8926 9.46586 10.8926H7.64343C7.4304 10.8926 7.31497 11.142 7.45285 11.3044L10.7522 15.1905C10.9548 15.4291 11.3245 15.425 11.5217 15.1818L16.5404 8.99242C16.6729 8.829 16.5566 8.58496 16.3462 8.58496H14.5638Z" fill="currentColor"/>
<path fill-rule="evenodd" clip-rule="evenodd" d="M11.6523 2.33631C11.8461 2.1488 12.1538 2.1488 12.3476 2.33631L14.4721 4.39155L17.3989 3.97757C17.6659 3.9398 17.9148 4.12062 17.9614 4.38626L18.4721 7.29772L21.0832 8.68312C21.3215 8.80953 21.4165 9.10209 21.2981 9.34439L19.9999 12L21.2981 14.6556C21.4165 14.8979 21.3215 15.1905 21.0832 15.3169L18.4721 16.7023L17.9614 19.6137C17.9148 19.8794 17.6659 20.0602 17.3989 20.0224L14.4721 19.6085L12.3476 21.6637C12.1538 21.8512 11.8461 21.8512 11.6523 21.6637L9.52781 19.6085L6.60103 20.0224C6.33399 20.0602 6.08512 19.8794 6.03852 19.6137L5.52781 16.7023L3.34395 15.5436C2.86747 15.2908 2.67735 14.7056 2.91423 14.2211L3.99994 12L2.91423 9.77895C2.67735 9.29436 2.86747 8.70922 3.34395 8.45642L5.52781 7.29772L6.03852 4.38626C6.08512 4.12062 6.33399 3.9398 6.60103 3.97757L9.52781 4.39155L11.6523 2.33631ZM16.2839 6.3993C16.2607 6.26648 16.1362 6.17607 16.0027 6.19496L13.7842 6.50876L12.1738 4.95086C12.0769 4.85711 11.923 4.85711 11.8261 4.95086L10.2157 6.50876L7.99719 6.19496C7.86368 6.17607 7.73924 6.26648 7.71594 6.3993L7.32881 8.60623L5.34953 9.65638C5.23041 9.71958 5.18288 9.86587 5.2421 9.98701L6.22611 12L5.2421 14.013C5.18288 14.1341 5.23041 14.2804 5.34953 14.3436L7.32881 15.3938L7.71594 17.6007C7.73924 17.7335 7.86368 17.8239 7.99719 17.805L10.2157 17.4912L11.8261 19.0491C11.923 19.1429 12.0769 19.1429 12.1738 19.0491L13.7842 17.4912L16.0027 17.805C16.1362 17.8239 16.2607 17.7335 16.2839 17.6007L16.6711 15.3938L18.6504 14.3436C18.7695 14.2804 18.817 14.1341 18.7578 14.013L17.7738 12L18.7578 9.98701C18.817 9.86587 18.7695 9.71958 18.6504 9.65638L16.6711 8.60623L16.2839 6.3993Z" fill="currentColor"/>
</svg>
