<svg viewBox="0 0 24 24" fill="none" xmlns="http://www.w3.org/2000/svg">
<path fill-rule="evenodd" clip-rule="evenodd" d="M12 17C12 14.2386 14.2386 12 17 12C19.7614 12 22 14.2386 22 17C22 19.7614 19.7614 22 17 22C14.2386 22 12 19.7614 12 17ZM16.2924 14.1367C16.2924 14.0889 16.3314 14.05 16.3794 14.05H17.5431C17.5912 14.05 17.6301 14.0889 17.6301 14.1367V14.8282C18.1357 15.0112 18.4738 15.4076 18.543 15.9278C18.5554 16.0203 18.4789 16.0974 18.3853 16.0974H17.774C17.6862 16.0974 17.6162 16.028 17.5861 15.9459C17.5018 15.7163 17.2668 15.5666 16.9709 15.5666C16.7652 15.5666 16.5999 15.6288 16.4968 15.738C16.4211 15.8182 16.379 15.9236 16.379 16.0483C16.379 16.2907 16.556 16.4318 16.9765 16.5239L17.491 16.6343C17.6871 16.6763 17.8564 16.7324 18 16.8037C18.4335 17.019 18.6333 17.3737 18.6333 17.9015C18.6333 18.6035 18.2657 19.0945 17.6301 19.2897V19.9634C17.6301 20.0112 17.5912 20.05 17.5431 20.05H16.3794C16.3314 20.05 16.2924 20.0112 16.2924 19.9634V19.2949C16.073 19.23 15.8848 19.1303 15.7327 19C15.4934 18.795 15.3433 18.514 15.3011 18.1723C15.2897 18.0797 15.3661 18.0027 15.4597 18.0027H16.1025C16.1899 18.0027 16.2594 18.0716 16.2909 18.1528C16.382 18.3873 16.6423 18.5304 16.9931 18.5304C17.372 18.5304 17.632 18.3279 17.632 18.0365C17.632 17.791 17.4578 17.6591 17.0014 17.5578L16.4758 17.4412C15.7456 17.2878 15.3694 16.846 15.3694 16.1495C15.3694 15.8868 15.4271 15.6514 15.5344 15.4511C15.6904 15.1598 15.9513 14.9425 16.2924 14.8226V14.1367Z" fill="currentColor"/>
<path fill-rule="evenodd" clip-rule="evenodd" d="M14.5 7.5C14.5 8.88071 13.3807 10 12 10C10.6193 10 9.5 8.88071 9.5 7.5C9.5 6.11929 10.6193 5 12 5C13.3807 5 14.5 6.11929 14.5 7.5ZM5.58697 14.3355C6.69762 13.8517 7.84968 13.4994 9.02066 13.2785C10.0049 13.0928 11.0024 13 12 13C12.9976 13 13.9951 13.0928 14.9793 13.2785C16.1503 13.4994 17.3024 13.8517 18.413 14.3355L19.4008 14.7657C19.7648 14.9242 20 15.2823 20 15.6778V20.0044C20 20.5543 19.5523 21 19 21H5C4.44771 21 4 20.5543 4 20.0044V15.6778C4 15.2823 4.2352 14.9242 4.59919 14.7657L5.58697 14.3355ZM7.5 7.5C7.5 9.02422 8.25781 10.3714 9.41721 11.1855C10.1482 11.6987 11.0389 12 12 12C12.9611 12 13.8518 11.6987 14.5828 11.1855C15.7422 10.3714 16.5 9.02422 16.5 7.5C16.5 5.01472 14.4853 3 12 3C9.51472 3 7.5 5.01472 7.5 7.5ZM6 19V16.3371L6.38561 16.1691C9.28665 14.9056 12.5109 14.6662 15.5344 15.4511C15.6904 15.1598 15.9513 14.9425 16.2924 14.8226V14.1367C16.2924 14.0889 16.3314 14.05 16.3794 14.05H17.5431C17.5912 14.05 17.6301 14.0889 17.6301 14.1367V14.8282C18.1357 15.0112 18.4738 15.4076 18.543 15.9278C18.5554 16.0203 18.4789 16.0974 18.3853 16.0974H17.774C17.6862 16.0974 17.6162 16.028 17.5861 15.9459C17.5018 15.7163 17.2668 15.5666 16.9709 15.5666C16.7652 15.5666 16.5999 15.6288 16.4968 15.738C16.8738 15.8653 17.2467 16.009 17.6144 16.1691L18 16.3371V16.8037C18.4335 17.019 18.6333 17.3737 18.6333 17.9015C18.6333 18.6035 18.2657 19.0945 17.6301 19.2897V19.9634C17.6301 20.0112 17.5912 20.05 17.5431 20.05H16.3794C16.3314 20.05 16.2924 20.0112 16.2924 19.9634V19.2949C16.073 19.23 15.8848 19.1303 15.7327 19H6Z" fill="currentColor"/>
</svg>
