<svg viewBox="0 0 19 18" fill="none" xmlns="http://www.w3.org/2000/svg">
<path fill-rule="evenodd" clip-rule="evenodd" d="M11 7.5C10.1716 7.5 9.5 6.82843 9.5 6V3H5V15H14V7.5H11ZM15.5 6.75V15C15.5 15.8284 14.8284 16.5 14 16.5H5C4.17157 16.5 3.5 15.8284 3.5 15V3C3.5 2.17157 4.17157 1.5 5 1.5H10.25L15.5 6.75ZM12.6287 6L11 4.37132V6H12.6287Z" fill="currentColor"/>
<path fill-rule="evenodd" clip-rule="evenodd" d="M8.09375 9.75C8.09375 10.164 8.25101 10.5389 8.50528 10.8103C8.72829 11.0483 9.02592 11.2068 9.35754 11.2424C9.40439 11.2474 9.45191 11.25 9.5 11.25C9.54809 11.25 9.59561 11.2474 9.64246 11.2424C9.97408 11.2068 10.2717 11.0483 10.4947 10.8103C10.749 10.5389 10.9062 10.164 10.9062 9.75C10.9062 8.92157 10.2767 8.25 9.5 8.25C8.72335 8.25 8.09375 8.92157 8.09375 9.75Z" fill="currentColor"/>
<path d="M9.5 11.85C9.76035 11.85 10.0207 11.8711 10.2778 11.9126C10.5839 11.9693 10.884 12.0402 11.1765 12.1494C11.2196 12.1659 11.2727 12.1886 11.3292 12.2137C11.5896 12.3295 11.75 12.5928 11.75 12.8779V13.5C11.75 13.9142 11.4142 14.25 11 14.25H8C7.58579 14.25 7.25 13.9142 7.25 13.5V12.8895C7.25 12.5984 7.41779 12.3323 7.68507 12.2171C7.81425 12.1614 7.94693 12.1069 8.04376 12.0736C8.32893 11.9832 8.62004 11.9271 8.91553 11.8852C9.10944 11.8618 9.30474 11.85 9.5 11.85Z" fill="currentColor"/>
</svg>
