<svg viewBox="0 0 24 24" fill="none" xmlns="http://www.w3.org/2000/svg">
<path d="M13 3H8.2C7.0799 3 6.51984 3 6.09202 3.21799C5.71569 3.40973 5.40973 3.71569 5.21799 4.09202C5 4.51984 5 5.0799 5 6.2V17.8C5 18.9201 5 19.4802 5.21799 19.908C5.40973 20.2843 5.71569 20.5903 6.09202 20.782C6.51984 21 7.0799 21 8.2 21H12M13 3L19 9M13 3V7.4C13 7.96005 13 8.24008 13.109 8.45399C13.2049 8.64215 13.3578 8.79513 13.546 8.89101C13.7599 9 14.0399 9 14.6 9H19M19 9V12M9 17H12M9 13H15M9 9H10" stroke="currentColor" stroke-width="2" stroke-linecap="round" stroke-linejoin="round"/>
<path d="M15.8153 17.3887C15.8222 17.3889 15.829 17.3892 15.8358 17.3896C15.8771 17.3921 15.9175 17.3977 15.9569 17.4062C15.9661 17.4082 15.9751 17.4108 15.9843 17.4131C16.074 17.4358 16.1576 17.4733 16.2323 17.5234C16.2748 17.552 16.3158 17.5845 16.3534 17.6221L17.3417 18.6104L17.3964 18.6709C17.6524 18.985 17.6343 19.4484 17.3417 19.7412C17.137 19.9459 16.8491 20.0146 16.5868 19.9512V20.3516H19.7391C20.1809 20.3516 20.5388 20.7097 20.5389 21.1514C20.5389 21.5932 20.181 21.9512 19.7391 21.9512H16.4462C16.0594 21.9511 15.6874 21.7979 15.4139 21.5244C15.1406 21.2509 14.9872 20.8798 14.9872 20.4932V19.9521C14.7255 20.0152 14.4386 19.9454 14.2343 19.7412C13.9219 19.4288 13.922 18.9228 14.2343 18.6104L15.2167 17.627C15.2217 17.6219 15.2272 17.6173 15.2323 17.6123L15.2831 17.5674C15.2916 17.5604 15.3017 17.5554 15.3104 17.5488C15.4147 17.4709 15.5369 17.416 15.6718 17.3965C15.677 17.3957 15.6821 17.3942 15.6874 17.3936C15.72 17.3895 15.7533 17.3877 15.787 17.3877C15.7964 17.3877 15.806 17.3884 15.8153 17.3887ZM19.3524 15C19.6906 15.0001 20.0169 15.1176 20.2762 15.3301L20.3837 15.4268L20.4804 15.5342C20.6929 15.7937 20.8104 16.1206 20.8104 16.459V16.999C21.0724 16.9359 21.3599 17.0066 21.5643 17.2109C21.8765 17.5233 21.8765 18.0294 21.5643 18.3418L20.5761 19.3301C20.4523 19.4537 20.298 19.5261 20.1376 19.5518C20.1024 19.5574 20.0667 19.5616 20.0302 19.5625C20.0168 19.5628 20.0035 19.5628 19.9901 19.5625C19.9532 19.5616 19.9172 19.5575 19.8817 19.5518C19.8683 19.5496 19.855 19.5478 19.8417 19.5449C19.8016 19.5363 19.763 19.5241 19.7255 19.5098C19.694 19.4977 19.6627 19.4849 19.6327 19.4688C19.6256 19.4649 19.6191 19.4601 19.6122 19.4561C19.5529 19.4218 19.4959 19.3808 19.4452 19.3301L18.4569 18.3418C18.1447 18.0294 18.1447 17.5233 18.4569 17.2109C18.6614 17.0064 18.949 16.9367 19.2108 17V16.5996H16.0585C15.6166 16.5996 15.2587 16.2416 15.2587 15.7998C15.2587 15.358 15.6166 15 16.0585 15H19.3524Z" fill="currentColor"/>
</svg>
