<svg viewBox="0 0 24 24" fill="none" xmlns="http://www.w3.org/2000/svg">
<path d="M16.0049 11.4231C16.0049 11.5344 15.8703 11.5902 15.7915 11.5115L13.0049 8.72485V16.6607C13.0049 16.7987 12.893 16.9107 12.7549 16.9107H11.2549C11.1169 16.9107 11.0049 16.7987 11.0049 16.6607V8.72485L8.21339 11.5164C8.13464 11.5951 8 11.5394 8 11.428V9.10845C8 8.97585 8.05268 8.84867 8.14645 8.7549L11.8281 5.07322C11.9258 4.97559 12.084 4.97559 12.1817 5.07322L15.8585 8.74997C15.9522 8.84374 16.0049 8.97092 16.0049 9.10353V11.4231Z" fill="currentColor"/>
<path d="M6 19H18V16.25C18 16.1119 18.1119 16 18.25 16H19.75C19.8881 16 20 16.1119 20 16.25V20C20 20.5523 19.5523 21 19 21H5C4.44772 21 4 20.5523 4 20V16.25C4 16.1119 4.11193 16 4.25 16H5.75C5.88807 16 6 16.1119 6 16.25V19Z" fill="currentColor"/>
</svg>
