<svg viewBox="0 0 18 18" fill="none" xmlns="http://www.w3.org/2000/svg">
<path d="M15.0858 7.58579C15.8668 8.36683 15.8668 9.63317 15.0858 10.4142L10.4142 15.0858C9.63317 15.8668 8.36683 15.8668 7.58579 15.0858L2.08579 9.58579C1.71071 9.21071 1.5 8.70201 1.5 8.17157V3.5C1.5 2.39543 2.39543 1.5 3.5 1.5H8.17157C8.70201 1.5 9.21071 1.71071 9.58579 2.08579L15.0858 7.58579ZM3 8.37891L9 14.3789L14.3789 9L8.37891 3H3V8.37891Z" fill="currentColor"/>
<path d="M7.5 6C7.5 6.82843 6.82843 7.5 6 7.5C5.17157 7.5 4.5 6.82843 4.5 6C4.5 5.17157 5.17157 4.5 6 4.5C6.82843 4.5 7.5 5.17157 7.5 6Z" fill="currentColor"/>
<path d="M6 5.5C6.27614 5.5 6.5 5.72386 6.5 6C6.5 6.27614 6.27614 6.5 6 6.5C5.72386 6.5 5.5 6.27614 5.5 6C5.5 5.72386 5.72386 5.5 6 5.5Z" stroke="currentColor" stroke-width="2"/>
</svg>
