<svg viewBox="0 0 24 24" fill="none" xmlns="http://www.w3.org/2000/svg">
<path fill-rule="evenodd" clip-rule="evenodd" d="M5 6C5 6.72857 5.19479 7.41165 5.53513 8H3C2.44772 8 2 8.44772 2 9V13C2 13.5523 2.44772 14 3 14H4V21C4 21.5523 4.44772 22 5 22H19C19.5523 22 20 21.5523 20 21V14H21C21.5523 14 22 13.5523 22 13V9C22 8.44772 21.5523 8 21 8H18.4649C18.8052 7.41165 19 6.72857 19 6C19 3.79086 17.2091 2 15 2C13.8053 2 12.7329 2.52376 12 3.35418C11.2671 2.52376 10.1947 2 9 2C6.79086 2 5 3.79086 5 6ZM11 8V6C11 4.89543 10.1046 4 9 4C7.89543 4 7 4.89543 7 6C7 7.10457 7.89543 8 9 8H11ZM13 20H18V14H13V20ZM13 12H20V10H13V12ZM11 10H4V12H11V10ZM11 14V20H6V14H11ZM17 6C17 7.10457 16.1046 8 15 8H13V6C13 4.89543 13.8954 4 15 4C16.1046 4 17 4.89543 17 6Z" fill="currentColor"/>
</svg>
