<svg viewBox="0 0 24 24" fill="none" xmlns="http://www.w3.org/2000/svg">
<path fill-rule="evenodd" clip-rule="evenodd" d="M20.3958 9.70285C20.5178 9.55937 20.5343 9.35394 20.4367 9.19287L18.0421 5.24165C17.9445 5.08058 17.7547 4.99999 17.5709 5.0416L15.6214 5.48299C15.4019 5.53268 15.18 5.4081 15.1088 5.19476L14.4766 3.29915C14.417 3.1205 14.2497 3 14.0612 3H9.43884C9.2504 3 9.0831 3.1205 9.02351 3.29915L8.39143 5.19414C8.32027 5.40748 8.09863 5.53283 7.87916 5.48314L5.92905 5.04163C5.74527 5.00002 5.55547 5.0806 5.45785 5.24168L3.06332 9.19289C2.96571 9.35397 2.98218 9.55939 3.10423 9.70288L4.67306 11.5473C4.68634 11.5629 4.70206 11.5763 4.7196 11.5869C4.73225 11.5946 4.74359 11.6033 4.75363 11.613C4.83084 11.687 4.83088 11.8129 4.75373 11.887C4.74367 11.8967 4.7323 11.9054 4.71962 11.9131C4.70208 11.9237 4.68636 11.9371 4.67308 11.9527L3.10425 13.7971C2.98221 13.9406 2.96573 14.146 3.06335 14.3071L5.45788 18.2583C5.55549 18.4194 5.7453 18.5 5.92908 18.4584L7.87868 18.017C8.09815 17.9673 8.32006 18.0919 8.39122 18.3052L9.02351 20.2008C9.0831 20.3795 9.2504 20.5 9.43884 20.5H14.0612C14.2497 20.5 14.417 20.3795 14.4766 20.2008L15.1086 18.3059C15.1798 18.0926 15.4014 17.9672 15.6209 18.0169L17.5709 18.4584C17.7547 18.5 17.9445 18.4194 18.0421 18.2584L20.4366 14.3072C20.5343 14.1461 20.5178 13.9406 20.3957 13.7972L19.9162 13.2334L18.8269 11.9527C18.8136 11.9371 18.7979 11.9237 18.7804 11.9131C18.7677 11.9055 18.7563 11.8967 18.7463 11.887C18.6691 11.8129 18.6691 11.687 18.7464 11.6129C18.7564 11.6033 18.7677 11.5945 18.7804 11.5869C18.7979 11.5763 18.8137 11.5629 18.8269 11.5473L20.3958 9.70285ZM14.8435 9.18896C14.235 8.51561 13.4006 8.05027 12.4598 7.91245C12.2689 7.88448 12.0737 7.87 11.875 7.87C11.5696 7.87 11.2722 7.90423 10.9864 7.96905C10.1989 8.14769 9.49953 8.55872 8.96436 9.12624C8.6705 9.43785 8.42614 9.79664 8.24382 10.19C8.00711 10.7008 7.875 11.27 7.875 11.87C7.875 12.4232 7.98731 12.9502 8.19038 13.4294C8.32627 13.7501 8.5028 14.0494 8.71352 14.3208C9.32268 15.1055 10.2175 15.6573 11.2419 15.8202C11.4481 15.853 11.6596 15.87 11.875 15.87C11.995 15.87 12.1137 15.8647 12.231 15.8544C13.3885 15.7523 14.4045 15.1572 15.0675 14.2803C15.2086 14.0937 15.3337 13.8944 15.4408 13.6843C15.7184 13.1398 15.875 12.5232 15.875 11.87C15.875 11.1681 15.6942 10.5083 15.3766 9.9349C15.2275 9.66573 15.0483 9.41557 14.8435 9.18896ZM10.3855 4.75H13.1146L13.4476 5.74816C13.4475 5.74794 13.4476 5.74838 13.4476 5.74816C13.4919 5.88105 13.5482 6.00771 13.6144 6.126C14.028 6.86481 14.839 7.30277 15.6889 7.23792C15.7947 7.22985 15.9011 7.21399 16.0073 7.18995C16.0072 7.18999 16.0075 7.18992 16.0073 7.18995L17.0346 6.95737L18.4484 9.29024L17.5976 10.2905C17.5565 10.3262 17.5173 10.3633 17.48 10.4016C17.0886 10.804 16.9088 11.3426 16.9409 11.87C16.9681 12.3175 17.1478 12.757 17.48 13.0984C17.5173 13.1367 17.5565 13.1738 17.5976 13.2096L18.4484 14.2098L17.0346 16.5426L16.0078 16.3102C16.0077 16.3101 16.008 16.3102 16.0078 16.3102C15.9816 16.3042 15.9548 16.2987 15.9285 16.2937C14.8923 16.0986 13.8637 16.6716 13.4836 17.6519C13.4709 17.6846 13.459 17.7177 13.4478 17.7512C13.4477 17.7514 13.4478 17.751 13.4478 17.7512L13.1146 18.75H10.3855L10.0525 17.7518C10.0524 17.7516 10.0526 17.752 10.0525 17.7518C10.0312 17.6881 10.007 17.6253 9.98056 17.5648C9.60397 16.7048 8.71784 16.1835 7.78913 16.2639C7.69062 16.2724 7.59163 16.2877 7.49273 16.31C7.49256 16.3101 7.49289 16.31 7.49273 16.31L6.46538 16.5426L5.05161 14.2097L5.90237 13.2095C5.93774 13.1788 5.97169 13.1471 6.00422 13.1144C6.00952 13.1091 6.01479 13.1038 6.02002 13.0984C6.35223 12.757 6.53189 12.3175 6.55909 11.87C6.59036 11.3556 6.42012 10.8305 6.04851 10.4316C6.03913 10.4216 6.02961 10.4116 6.01997 10.4016C5.9827 10.3633 5.94351 10.3263 5.9024 10.2906L5.05158 9.29027L6.46535 6.95739L7.49223 7.18988C7.49207 7.18985 7.4924 7.18992 7.49223 7.18988C7.68068 7.2325 7.8699 7.24953 8.05506 7.2429C8.77334 7.21719 9.43789 6.83725 9.82374 6.22979C9.91743 6.08229 9.99469 5.92138 10.0523 5.74886C10.0522 5.74908 10.0524 5.74864 10.0523 5.74886L10.3855 4.75ZM11.875 13.87C12.9796 13.87 13.875 12.9746 13.875 11.87C13.875 10.7654 12.9796 9.87 11.875 9.87C10.7704 9.87 9.875 10.7654 9.875 11.87C9.875 12.9746 10.7704 13.87 11.875 13.87Z" fill="currentColor"/>
</svg>
