<svg viewBox="0 0 24 24" fill="none" xmlns="http://www.w3.org/2000/svg">
<path d="M3.5 3C3.22386 3 3 3.22386 3 3.5V9.5C3 9.77614 3.22386 10 3.5 10H4.5C4.77614 10 5 9.77614 5 9.5V6.41422L8.818 10.2322C9.01326 10.4275 9.32984 10.4275 9.52511 10.2322L10.2322 9.52511C10.4275 9.32985 10.4275 9.01327 10.2322 8.818L6.41421 5L9.5 5C9.77614 5 10 4.77614 10 4.5V3.5C10 3.22386 9.77614 3 9.5 3H3.5Z" fill="currentColor"/>
<path d="M20.5 3C20.7761 3 21 3.22386 21 3.5V9.5C21 9.77614 20.7761 10 20.5 10H19.5C19.2239 10 19 9.77614 19 9.5V6.41419L15.182 10.2322C14.9867 10.4275 14.6701 10.4275 14.4749 10.2322L13.7678 9.5251C13.5725 9.32983 13.5725 9.01325 13.7678 8.81799L17.5858 5L14.5 5C14.2239 5 14 4.77614 14 4.5V3.5C14 3.22386 14.2239 3 14.5 3H20.5Z" fill="currentColor"/>
<path d="M3 20.5C3 20.7761 3.22386 21 3.5 21H9.5C9.77614 21 10 20.7761 10 20.5V19.5C10 19.2239 9.77614 19 9.5 19H6.41419L10.2322 15.1819C10.4275 14.9867 10.4275 14.6701 10.2322 14.4748L9.52513 13.7677C9.32987 13.5725 9.01329 13.5725 8.81802 13.7677L5 17.5858V14.5C5 14.2239 4.77614 14 4.5 14H3.5C3.22386 14 3 14.2239 3 14.5V20.5Z" fill="currentColor"/>
<path d="M20.5 21C20.7761 21 21 20.7761 21 20.5V14.5C21 14.2239 20.7761 14 20.5 14H19.5C19.2239 14 19 14.2239 19 14.5V17.5858L15.182 13.7678C14.9867 13.5725 14.6701 13.5725 14.4749 13.7678L13.7677 14.4749C13.5725 14.6701 13.5725 14.9867 13.7677 15.182L17.5858 19H14.5C14.2239 19 14 19.2239 14 19.5V20.5C14 20.7761 14.2239 21 14.5 21H20.5Z" fill="currentColor"/>
</svg>
