<svg viewBox="0 0 24 24" fill="none" xmlns="http://www.w3.org/2000/svg">
<path fill-rule="evenodd" clip-rule="evenodd" d="M16 7C16.5523 7 17 6.55228 17 6C17 5.44772 16.5523 5 16 5C15.4477 5 15 5.44772 15 6C15 6.55228 15.4477 7 16 7ZM16 9C17.3062 9 18.4175 8.16519 18.8293 7C18.9398 6.68722 19 6.35064 19 6C19 5.64936 18.9398 5.31278 18.8293 5C18.4175 3.83481 17.3062 3 16 3C14.6938 3 13.5825 3.83481 13.1707 5C13.0602 5.31278 13 5.64936 13 6C13 6.35064 13.0602 6.68722 13.1707 7C13.5825 8.16519 14.6938 9 16 9Z" fill="currentColor"/>
<path fill-rule="evenodd" clip-rule="evenodd" d="M8 13C8.55228 13 9 12.5523 9 12C9 11.4477 8.55228 11 8 11C7.44772 11 7 11.4477 7 12C7 12.5523 7.44772 13 8 13ZM8 15C9.30622 15 10.4175 14.1652 10.8293 13C10.9398 12.6872 11 12.3506 11 12C11 11.6494 10.9398 11.3128 10.8293 11C10.4175 9.83481 9.30622 9 8 9C6.69378 9 5.58254 9.83481 5.17071 11C5.06015 11.3128 5 11.6494 5 12C5 12.3506 5.06015 12.6872 5.17071 13C5.58254 14.1652 6.69378 15 8 15Z" fill="currentColor"/>
<path fill-rule="evenodd" clip-rule="evenodd" d="M14 19C14.5523 19 15 18.5523 15 18C15 17.4477 14.5523 17 14 17C13.4477 17 13 17.4477 13 18C13 18.5523 13.4477 19 14 19ZM14 21C15.3062 21 16.4175 20.1652 16.8293 19C16.9398 18.6872 17 18.3506 17 18C17 17.6494 16.9398 17.3128 16.8293 17C16.4175 15.8348 15.3062 15 14 15C12.6938 15 11.5825 15.8348 11.1707 17C11.0602 17.3128 11 17.6494 11 18C11 18.3506 11.0602 18.6872 11.1707 19C11.5825 20.1652 12.6938 21 14 21Z" fill="currentColor"/>
<path fill-rule="evenodd" clip-rule="evenodd" d="M18.8293 5H20.775C20.8993 5 21 5.11193 21 5.25V6.75C21 6.88807 20.8993 7 20.775 7H18.8293C18.4175 8.16519 17.3062 9 16 9C14.6938 9 13.5825 8.16519 13.1707 7H3.225C3.10074 7 3 6.88807 3 6.75V5.25C3 5.11193 3.10074 5 3.225 5H13.1707C13.5825 3.83481 14.6938 3 16 3C17.3062 3 18.4175 3.83481 18.8293 5ZM17 6C17 6.55228 16.5523 7 16 7C15.4477 7 15 6.55228 15 6C15 5.44772 15.4477 5 16 5C16.5523 5 17 5.44772 17 6Z" fill="currentColor"/>
<path fill-rule="evenodd" clip-rule="evenodd" d="M10.8293 11H20.775C20.8993 11 21 11.1119 21 11.25V12.75C21 12.8881 20.8993 13 20.775 13H10.8293C10.4175 14.1652 9.30622 15 8 15C6.69378 15 5.58254 14.1652 5.17071 13H3.225C3.10074 13 3 12.8881 3 12.75V11.25C3 11.1119 3.10074 11 3.225 11H5.17071C5.58254 9.83481 6.69378 9 8 9C9.30622 9 10.4175 9.83481 10.8293 11ZM9 12C9 12.5523 8.55228 13 8 13C7.44772 13 7 12.5523 7 12C7 11.4477 7.44772 11 8 11C8.55228 11 9 11.4477 9 12Z" fill="currentColor"/>
<path fill-rule="evenodd" clip-rule="evenodd" d="M16.8293 17H20.775C20.8993 17 21 17.1119 21 17.25V18.75C21 18.8881 20.8993 19 20.775 19H16.8293C16.4175 20.1652 15.3062 21 14 21C12.6938 21 11.5825 20.1652 11.1707 19H3.225C3.10074 19 3 18.8881 3 18.75V17.25C3 17.1119 3.10074 17 3.225 17H11.1707C11.5825 15.8348 12.6938 15 14 15C15.3062 15 16.4175 15.8348 16.8293 17ZM15 18C15 18.5523 14.5523 19 14 19C13.4477 19 13 18.5523 13 18C13 17.4477 13.4477 17 14 17C14.5523 17 15 17.4477 15 18Z" fill="currentColor"/>
</svg>
