<svg viewBox="0 0 24 24" fill="none" xmlns="http://www.w3.org/2000/svg">
<path d="M16.0049 10.4231C16.0049 10.5344 15.8703 10.5902 15.7915 10.5115L13.0049 7.72485V15.6607C13.0049 15.7987 12.893 15.9107 12.7549 15.9107H11.2549C11.1169 15.9107 11.0049 15.7987 11.0049 15.6607V7.72485L8.21339 10.5164C8.13464 10.5951 8 10.5394 8 10.428V8.10845C8 7.97585 8.05268 7.84867 8.14645 7.7549L11.8281 4.07322C11.9258 3.97559 12.084 3.97559 12.1817 4.07322L15.8585 7.74997C15.9522 7.84374 16.0049 7.97092 16.0049 8.10353V10.4231Z" fill="currentColor"/>
<path d="M6 18H18V15.25C18 15.1119 18.1119 15 18.25 15H19.75C19.8881 15 20 15.1119 20 15.25V19C20 19.5523 19.5523 20 19 20H5C4.44772 20 4 19.5523 4 19V15.25C4 15.1119 4.11193 15 4.25 15H5.75C5.88807 15 6 15.1119 6 15.25V18Z" fill="currentColor"/>
</svg>
