<svg viewBox="0 0 24 24" fill="none" xmlns="http://www.w3.org/2000/svg">
<mask id="path-1-inside-1_79_481" fill="white">
<path fill-rule="evenodd" clip-rule="evenodd" d="M4.5 2C4.22386 2 4 2.22386 4 2.5V21C4 21.412 4.47038 21.6472 4.8 21.4L7.7 19.225C7.87778 19.0917 8.12222 19.0917 8.3 19.225L11.7 21.775C11.8778 21.9083 12.1222 21.9083 12.3 21.775L15.7 19.225C15.8778 19.0917 16.1222 19.0917 16.3 19.225L19.2 21.4C19.5296 21.6472 20 21.412 20 21V2.5C20 2.22386 19.7761 2 19.5 2H4.5ZM11 6.13C11 6.0582 11.0582 6 11.13 6H12.87C12.9418 6 13 6.0582 13 6.13V7.16716C13.756 7.44166 14.2615 8.03629 14.365 8.81657C14.3834 8.9554 14.2691 9.07101 14.1291 9.07101H13.2152C13.084 9.07101 12.9793 8.96698 12.9342 8.84373C12.8081 8.49943 12.4568 8.27482 12.0145 8.27482C11.481 8.27482 11.1294 8.55556 11.1294 8.99737C11.1294 9.36095 11.3941 9.57265 12.0227 9.71072L12.792 9.8764C13.9706 10.1295 14.5 10.7232 14.5 11.7771C14.5 12.8302 13.9503 13.5667 13 13.8595V14.87C13 14.9418 12.9418 15 12.87 15H11.13C11.0582 15 11 14.9418 11 14.87V13.8673C10.1557 13.6165 9.62105 13.0216 9.51782 12.1833C9.50072 12.0444 9.61493 11.929 9.7549 11.929H10.716C10.8466 11.929 10.9506 12.0324 10.9977 12.1542C11.1339 12.5059 11.5231 12.7206 12.0476 12.7206C12.6141 12.7206 13.0029 12.4168 13.0029 11.9796C13.0029 11.6114 12.7423 11.4135 12.06 11.2617L11.2742 11.0868C10.1824 10.8567 9.61993 10.194 9.61993 9.14924C9.61993 8.18175 10.1394 7.46234 11 7.1588V6.13Z"/>
</mask>
<path fill-rule="evenodd" clip-rule="evenodd" d="M4.5 2C4.22386 2 4 2.22386 4 2.5V21C4 21.412 4.47038 21.6472 4.8 21.4L7.7 19.225C7.87778 19.0917 8.12222 19.0917 8.3 19.225L11.7 21.775C11.8778 21.9083 12.1222 21.9083 12.3 21.775L15.7 19.225C15.8778 19.0917 16.1222 19.0917 16.3 19.225L19.2 21.4C19.5296 21.6472 20 21.412 20 21V2.5C20 2.22386 19.7761 2 19.5 2H4.5ZM11 6.13C11 6.0582 11.0582 6 11.13 6H12.87C12.9418 6 13 6.0582 13 6.13V7.16716C13.756 7.44166 14.2615 8.03629 14.365 8.81657C14.3834 8.9554 14.2691 9.07101 14.1291 9.07101H13.2152C13.084 9.07101 12.9793 8.96698 12.9342 8.84373C12.8081 8.49943 12.4568 8.27482 12.0145 8.27482C11.481 8.27482 11.1294 8.55556 11.1294 8.99737C11.1294 9.36095 11.3941 9.57265 12.0227 9.71072L12.792 9.8764C13.9706 10.1295 14.5 10.7232 14.5 11.7771C14.5 12.8302 13.9503 13.5667 13 13.8595V14.87C13 14.9418 12.9418 15 12.87 15H11.13C11.0582 15 11 14.9418 11 14.87V13.8673C10.1557 13.6165 9.62105 13.0216 9.51782 12.1833C9.50072 12.0444 9.61493 11.929 9.7549 11.929H10.716C10.8466 11.929 10.9506 12.0324 10.9977 12.1542C11.1339 12.5059 11.5231 12.7206 12.0476 12.7206C12.6141 12.7206 13.0029 12.4168 13.0029 11.9796C13.0029 11.6114 12.7423 11.4135 12.06 11.2617L11.2742 11.0868C10.1824 10.8567 9.61993 10.194 9.61993 9.14924C9.61993 8.18175 10.1394 7.46234 11 7.1588V6.13Z" fill="currentColor"/>
<path d="M4.8 21.4L6 23H6L4.8 21.4ZM7.7 19.225L6.5 17.625H6.5L7.7 19.225ZM8.3 19.225L9.5 17.625L9.5 17.625L8.3 19.225ZM11.7 21.775L10.5 23.375H10.5L11.7 21.775ZM12.3 21.775L13.5 23.375L13.5 23.375L12.3 21.775ZM15.7 19.225L14.5 17.625L14.5 17.625L15.7 19.225ZM16.3 19.225L17.5 17.625L17.5 17.625L16.3 19.225ZM19.2 21.4L18 23H18L19.2 21.4ZM13 7.16716H11V8.56874L12.3174 9.04708L13 7.16716ZM14.365 8.81657L16.3476 8.55357V8.55357L14.365 8.81657ZM12.9342 8.84373L14.8123 8.15623L14.8123 8.15623L12.9342 8.84373ZM12.0227 9.71072L11.5937 11.6642L11.6016 11.6659L12.0227 9.71072ZM12.792 9.8764L12.3709 11.8316L12.372 11.8318L12.792 9.8764ZM13 13.8595L12.4112 11.9481L11 12.3828V13.8595H13ZM11 13.8673H13V12.3752L11.5696 11.9502L11 13.8673ZM9.51782 12.1833L7.53282 12.4278L7.53282 12.4278L9.51782 12.1833ZM10.9977 12.1542L9.13262 12.8762L9.13262 12.8762L10.9977 12.1542ZM12.06 11.2617L12.4945 9.30944L12.4945 9.30944L12.06 11.2617ZM11.2742 11.0868L11.7087 9.13455L11.6977 9.1321L11.6867 9.12978L11.2742 11.0868ZM11 7.1588L11.6652 9.04493L13 8.57416V7.1588H11ZM6 2.5C6 3.32843 5.32842 4 4.5 4V0C3.11929 0 2 1.11929 2 2.5H6ZM6 21V2.5H2V21H6ZM3.6 19.8C4.58885 19.0584 6 19.7639 6 21H2C2 23.0601 4.35192 24.2361 6 23L3.6 19.8ZM6.5 17.625L3.6 19.8L6 23L8.9 20.825L6.5 17.625ZM9.5 17.625C8.61111 16.9583 7.38889 16.9583 6.5 17.625L8.9 20.825C8.36667 21.225 7.63333 21.225 7.1 20.825L9.5 17.625ZM12.9 20.175L9.5 17.625L7.1 20.825L10.5 23.375L12.9 20.175ZM11.1 20.175C11.6333 19.775 12.3667 19.775 12.9 20.175L10.5 23.375C11.3889 24.0417 12.6111 24.0417 13.5 23.375L11.1 20.175ZM14.5 17.625L11.1 20.175L13.5 23.375L16.9 20.825L14.5 17.625ZM17.5 17.625C16.6111 16.9583 15.3889 16.9583 14.5 17.625L16.9 20.825C16.3667 21.225 15.6333 21.225 15.1 20.825L17.5 17.625ZM20.4 19.8L17.5 17.625L15.1 20.825L18 23L20.4 19.8ZM18 21C18 19.7639 19.4111 19.0584 20.4 19.8L18 23C19.6481 24.2361 22 23.0601 22 21H18ZM18 2.5V21H22V2.5H18ZM19.5 4C18.6716 4 18 3.32843 18 2.5H22C22 1.11929 20.8807 0 19.5 0V4ZM4.5 4H19.5V0H4.5V4ZM11.13 4C9.95363 4 9 4.95363 9 6.13H13C13 7.16277 12.1628 8 11.13 8V4ZM12.87 4H11.13V8H12.87V4ZM15 6.13C15 4.95364 14.0464 4 12.87 4V8C11.8372 8 11 7.16277 11 6.13H15ZM15 7.16716V6.13H11V7.16716H15ZM16.3476 8.55357C16.1389 6.98033 15.087 5.79716 13.6826 5.28724L12.3174 9.04708C12.3557 9.06098 12.3771 9.07391 12.3864 9.08025C12.3953 9.08639 12.3952 9.08789 12.3909 9.08274C12.3864 9.07737 12.3824 9.0707 12.38 9.06524C12.3777 9.05984 12.3802 9.06312 12.3824 9.07958L16.3476 8.55357ZM14.1291 11.071C15.3203 11.071 16.5451 10.0423 16.3476 8.55357L12.3824 9.07958C12.2217 7.86849 13.218 7.07101 14.1291 7.07101V11.071ZM13.2152 11.071H14.1291V7.07101H13.2152V11.071ZM11.0561 9.53123C11.2705 10.117 11.9438 11.071 13.2152 11.071V7.07101C13.7051 7.07101 14.0944 7.2707 14.3455 7.4864C14.5855 7.69254 14.731 7.93427 14.8123 8.15623L11.0561 9.53123ZM12.0145 10.2748C11.7922 10.2748 11.2744 10.1277 11.0561 9.53123L14.8123 8.15623C14.3419 6.87119 13.1214 6.27482 12.0145 6.27482V10.2748ZM13.1294 8.99737C13.1294 9.35594 12.9633 9.75474 12.632 10.0235C12.3428 10.2582 12.0797 10.2748 12.0145 10.2748V6.27482C11.4157 6.27482 10.7101 6.43185 10.1118 6.91732C9.47138 7.43691 9.12945 8.19699 9.12945 8.99737H13.1294ZM12.4518 7.75728C12.3648 7.73816 12.3402 7.727 12.3559 7.73326C12.3701 7.73888 12.4653 7.77745 12.5887 7.87599C12.7224 7.98285 12.8763 8.15053 12.9882 8.38674C13.0992 8.62124 13.1294 8.83993 13.1294 8.99737H9.12945C9.12945 9.76915 9.4583 10.4949 10.0921 11.0012C10.5993 11.4064 11.1855 11.5745 11.5937 11.6642L12.4518 7.75728ZM13.2131 7.92123L12.4439 7.75555L11.6016 11.6659L12.3709 11.8316L13.2131 7.92123ZM16.5 11.7771C16.5 10.9065 16.2733 9.9675 15.5768 9.19104C14.9106 8.44823 14.0285 8.09635 13.2119 7.92098L12.372 11.8318C12.5446 11.8689 12.6311 11.9056 12.6615 11.9207C12.6865 11.9332 12.6511 11.9198 12.5991 11.8619C12.5743 11.8342 12.5518 11.803 12.5331 11.7703C12.5147 11.7379 12.5039 11.7109 12.4982 11.6934C12.4873 11.6602 12.5 11.6782 12.5 11.7771H16.5ZM13.5888 15.7708C14.4206 15.5146 15.1805 15.027 15.724 14.2796C16.266 13.5342 16.5 12.6582 16.5 11.7771H12.5C12.5 11.8664 12.4884 11.9148 12.4833 11.9319C12.4787 11.9473 12.4782 11.9418 12.4888 11.9272C12.4995 11.9125 12.5087 11.9061 12.5061 11.908C12.502 11.9108 12.4748 11.9285 12.4112 11.9481L13.5888 15.7708ZM15 14.87V13.8595H11V14.87H15ZM12.87 17C14.0464 17 15 16.0464 15 14.87H11C11 13.8372 11.8372 13 12.87 13V17ZM11.13 17H12.87V13H11.13V17ZM9 14.87C9 16.0464 9.95364 17 11.13 17V13C12.1628 13 13 13.8372 13 14.87H9ZM9 13.8673V14.87H13V13.8673H9ZM7.53282 12.4278C7.74177 14.1246 8.89275 15.3276 10.4304 15.7845L11.5696 11.9502C11.5101 11.9325 11.4796 11.9158 11.4694 11.9096C11.4602 11.9039 11.4664 11.9062 11.4787 11.9201C11.4914 11.9345 11.5009 11.9502 11.506 11.9619C11.5108 11.9729 11.5064 11.968 11.5028 11.9389L7.53282 12.4278ZM9.7549 9.92899C8.55901 9.92899 7.35161 10.9563 7.53282 12.4278L11.5028 11.9389C11.6498 13.1325 10.6708 13.929 9.7549 13.929V9.92899ZM10.716 9.92899H9.7549V13.929H10.716V9.92899ZM12.8629 11.4322C12.6489 10.8794 11.9847 9.92899 10.716 9.92899V13.929C10.2261 13.929 9.83905 13.7294 9.59137 13.5185C9.35507 13.3172 9.21314 13.0842 9.13262 12.8762L12.8629 11.4322ZM12.0476 10.7206C12.048 10.7206 12.1618 10.7196 12.3311 10.8115C12.5147 10.9112 12.739 11.1121 12.8629 11.4322L9.13262 12.8762C9.67836 14.286 11.0561 14.7206 12.0476 14.7206V10.7206ZM11.0029 11.9796C11.0029 11.5473 11.218 11.1622 11.5103 10.935C11.7676 10.735 11.9906 10.7206 12.0476 10.7206V14.7206C12.6711 14.7206 13.3718 14.5543 13.9651 14.0932C14.5934 13.6048 15.0029 12.8492 15.0029 11.9796H11.0029ZM11.6255 13.2139C11.6797 13.226 11.7196 13.2363 11.7477 13.2443C11.776 13.2524 11.7875 13.2567 11.7859 13.2561C11.7845 13.2556 11.7636 13.2477 11.7292 13.2297C11.6947 13.2116 11.6406 13.1801 11.5761 13.1311C11.4387 13.0265 11.2717 12.8542 11.1503 12.6028C11.0306 12.3547 11.0029 12.1281 11.0029 11.9796H15.0029C15.0029 11.2025 14.6705 10.4594 13.9985 9.94797C13.4873 9.55898 12.8936 9.39827 12.4945 9.30944L11.6255 13.2139ZM10.8397 13.039L11.6255 13.2139L12.4945 9.30944L11.7087 9.13455L10.8397 13.039ZM7.61993 9.14924C7.61993 10.0404 7.86716 10.9603 8.51563 11.721C9.1536 12.4693 10.0102 12.8643 10.8617 13.0438L11.6867 9.12978C11.5672 9.10461 11.5128 9.07806 11.5016 9.07203C11.4966 9.06933 11.5019 9.07168 11.5139 9.08119C11.5261 9.09089 11.5424 9.10571 11.5596 9.12599C11.577 9.14634 11.592 9.16815 11.6039 9.1896C11.6157 9.21088 11.6221 9.22755 11.6251 9.23668C11.6311 9.25477 11.6199 9.23192 11.6199 9.14924H7.61993ZM10.3348 5.27266C8.66048 5.86317 7.61993 7.34836 7.61993 9.14924H11.6199C11.6199 9.08684 11.6282 9.05419 11.631 9.04467C11.6336 9.03599 11.6331 9.04136 11.625 9.05301C11.6214 9.05813 11.6175 9.06269 11.614 9.06631C11.6104 9.06991 11.6084 9.0714 11.6088 9.07107C11.6091 9.07084 11.6248 9.05916 11.6652 9.04493L10.3348 5.27266ZM9 6.13V7.1588H13V6.13H9Z" fill="currentColor" mask="url(#path-1-inside-1_79_481)"/>
</svg>
