<svg viewBox="0 0 24 24" fill="none" xmlns="http://www.w3.org/2000/svg">
<path fill-rule="evenodd" clip-rule="evenodd" d="M14 15V20V22H20V3.5C20 3.22386 19.7761 3 19.5 3H4.5C4.22386 3 4 3.22386 4 3.5V22H10V20V15H14ZM6 5H18V20H15V14.5C15 14.2239 14.7761 14 14.5 14H9.5C9.22386 14 9 14.2239 9 14.5V20H6V5Z" fill="currentColor"/>
<path fill-rule="evenodd" clip-rule="evenodd" d="M18 5H6V20H9V14.5C9 14.2239 9.22386 14 9.5 14H14.5C14.7761 14 15 14.2239 15 14.5V20H18V5ZM13 7.25C13 7.11193 13.1119 7 13.25 7H15.75C15.8881 7 16 7.11193 16 7.25V8.75C16 8.88807 15.8881 9 15.75 9H13.25C13.1119 9 13 8.88807 13 8.75V7.25ZM8.25 7C8.11193 7 8 7.11193 8 7.25V8.75C8 8.88807 8.11193 9 8.25 9H10.75C10.8881 9 11 8.88807 11 8.75V7.25C11 7.11193 10.8881 7 10.75 7H8.25ZM13 10.25C13 10.1119 13.1119 10 13.25 10H15.75C15.8881 10 16 10.1119 16 10.25V11.75C16 11.8881 15.8881 12 15.75 12H13.25C13.1119 12 13 11.8881 13 11.75V10.25ZM8.25 10C8.11193 10 8 10.1119 8 10.25V11.75C8 11.8881 8.11193 12 8.25 12H10.75C10.8881 12 11 11.8881 11 11.75V10.25C11 10.1119 10.8881 10 10.75 10H8.25Z" fill="currentColor"/>
</svg>
