<svg viewBox="0 0 18 18" fill="none" xmlns="http://www.w3.org/2000/svg">
<path d="M3.75 14.25V3.75H7.25C7.38807 3.75 7.5 3.63807 7.5 3.5V2.5C7.5 2.36193 7.38807 2.25 7.25 2.25H2.75C2.47386 2.25 2.25 2.47386 2.25 2.75V15.25C2.25 15.5261 2.47386 15.75 2.75 15.75H15.25C15.5261 15.75 15.75 15.5261 15.75 15.25V10.75C15.75 10.6119 15.6381 10.5 15.5 10.5H14.5C14.3619 10.5 14.25 10.6119 14.25 10.75V14.25H3.75Z" fill="currentColor"/>
<path d="M14.25 4.81073L9.48751 9.57322C9.38988 9.67085 9.23158 9.67085 9.13395 9.57322L8.42685 8.86612C8.32922 8.76849 8.32922 8.61019 8.42685 8.51256L13.1894 3.75H9.25C9.11193 3.75 9 3.63807 9 3.5V2.5C9 2.36193 9.11193 2.25 9.25 2.25H15.25C15.5261 2.25 15.75 2.47386 15.75 2.75V8.75C15.75 8.88807 15.6381 9 15.5 9H14.5C14.3619 9 14.25 8.88807 14.25 8.75V4.81073Z" fill="currentColor"/>
</svg>
