<svg viewBox="0 0 24 24" fill="none" xmlns="http://www.w3.org/2000/svg">
<path fill-rule="evenodd" clip-rule="evenodd" d="M16 16V4H4V16H16ZM17.5 2H2.5C2.22386 2 2 2.22386 2 2.5V17.5C2 17.7761 2.22386 18 2.5 18H6V21.5C6 21.7761 6.22386 22 6.5 22H21.5C21.7761 22 22 21.7761 22 21.5V6.5C22 6.22386 21.7761 6 21.5 6H18V2.5C18 2.22386 17.7761 2 17.5 2ZM8 18V20H20V8H18V18H8Z" fill="currentColor"/>
<path fill-rule="evenodd" clip-rule="evenodd" d="M17.5 2H2.5C2.22386 2 2 2.22386 2 2.5V17.5C2 17.7761 2.22386 18 2.5 18H6V21.5C6 21.7761 6.22386 22 6.5 22H21.5C21.7761 22 22 21.7761 22 21.5V6.5C22 6.22386 21.7761 6 21.5 6H18V2.5C18 2.22386 17.7761 2 17.5 2ZM18 18H8V20H20V8H18V18ZM16 4H4V16H16V4Z" fill="currentColor"/>
</svg>
