<svg viewBox="0 0 24 24" fill="none" xmlns="http://www.w3.org/2000/svg">
<path d="M18.5542 7L5.44579 7L9.48159 10.3295L11.0384 11.6139L12 12.4072L12.9616 11.6139L14.5184 10.3295L18.5542 7Z" fill="currentColor"/>
<path d="M12.3182 14.7375C12.1334 14.8899 11.8666 14.8899 11.6818 14.7375L9.55682 12.9844L5.2156 17H18.7844L14.4432 12.9844L12.3182 14.7375Z" fill="currentColor"/>
<path d="M20 8.4L16 11.7L20 15.4V8.4Z" fill="currentColor"/>
<path d="M8 11.7L4 15.4V8.4L8 11.7Z" fill="currentColor"/>
<path fill-rule="evenodd" clip-rule="evenodd" d="M2 5.5C2 5.22386 2.22386 5 2.5 5H21.5C21.7761 5 22 5.22386 22 5.5V18.5C22 18.7761 21.7761 19 21.5 19H2.5C2.22386 19 2 18.7761 2 18.5V5.5ZM20 8.4V15.4V17H18.7844H5.2156H4V15.4V8.4V7L5.44579 7L18.5542 7H20V8.4Z" fill="currentColor"/>
</svg>
