<svg viewBox="0 0 18 18" fill="none" xmlns="http://www.w3.org/2000/svg">
<path fill-rule="evenodd" clip-rule="evenodd" d="M11 7.5C9.89543 7.5 9 6.60457 9 5.5V3H4.5V15H13.5V7.5H11ZM14.4142 6.16421C14.7893 6.53929 15 7.04799 15 7.57843V14.5C15 15.6046 14.1046 16.5 13 16.5H5C3.89543 16.5 3 15.6046 3 14.5V3.5C3 2.39543 3.89543 1.5 5 1.5H8.92157C9.45201 1.5 9.96071 1.71071 10.3358 2.08579L14.4142 6.16421ZM12.1287 6L10.5 4.37132V6H12.1287Z" fill="currentColor"/>
<path fill-rule="evenodd" clip-rule="evenodd" d="M6.375 11.625C6.99632 11.625 7.5 12.1287 7.5 12.75C7.5 13.3713 6.99632 13.875 6.375 13.875C5.75368 13.875 5.25 13.3713 5.25 12.75C5.25 12.1287 5.75368 11.625 6.375 11.625ZM6.06607 12.6262C5.96993 12.6262 5.91807 12.739 5.98064 12.8119L6.1247 12.98C6.20572 13.0745 6.35245 13.0728 6.4313 12.9765L6.78086 12.5495C6.84092 12.4761 6.78872 12.3659 6.6939 12.3659C6.66019 12.3659 6.62827 12.381 6.60693 12.4071L6.27634 12.8111L6.15149 12.6655C6.13011 12.6405 6.09891 12.6262 6.06607 12.6262Z" fill="currentColor"/>
<path fill-rule="evenodd" clip-rule="evenodd" d="M6.375 8.625C6.99632 8.625 7.5 9.12868 7.5 9.75C7.5 10.3713 6.99632 10.875 6.375 10.875C5.75368 10.875 5.25 10.3713 5.25 9.75C5.25 9.12868 5.75368 8.625 6.375 8.625ZM6.06607 9.62618C5.96993 9.62618 5.91807 9.73895 5.98064 9.81194L6.1247 9.97998C6.20572 10.0745 6.35245 10.0728 6.4313 9.97649L6.78086 9.54948C6.84092 9.47611 6.78872 9.36592 6.6939 9.36592C6.66019 9.36592 6.62827 9.38104 6.60693 9.40712L6.27634 9.81108L6.15149 9.66546C6.13011 9.64053 6.09891 9.62618 6.06607 9.62618Z" fill="currentColor"/>
<path d="M8.25 9.75C8.25 9.33579 8.58579 9 9 9H12C12.4142 9 12.75 9.33579 12.75 9.75C12.75 10.1642 12.4142 10.5 12 10.5H9C8.58579 10.5 8.25 10.1642 8.25 9.75Z" fill="currentColor"/>
<path d="M8.25 12.75C8.25 12.3358 8.58579 12 9 12H12C12.4142 12 12.75 12.3358 12.75 12.75C12.75 13.1642 12.4142 13.5 12 13.5H9C8.58579 13.5 8.25 13.1642 8.25 12.75Z" fill="currentColor"/>
</svg>
