<svg viewBox="0 0 18 18" fill="none" xmlns="http://www.w3.org/2000/svg">
<path d="M8.99976 12.4644C9.56089 12.4644 10.1227 12.5172 10.6763 12.6233C11.3348 12.7495 11.983 12.9512 12.6077 13.2275C12.6821 13.2605 12.7563 13.2946 12.8308 13.3289C13.2236 13.5097 13.4998 13.8994 13.4998 14.3318V15.5C13.4998 16.0523 13.052 16.5 12.4998 16.5H5.49976C4.94747 16.5 4.49976 16.0523 4.49976 15.5V14.3319C4.49976 13.8994 4.77601 13.5098 5.16891 13.3291C5.24354 13.2947 5.31802 13.2605 5.39258 13.2275C6.01727 12.9511 6.66535 12.7495 7.32397 12.6233C7.8775 12.5172 8.43872 12.4644 8.99976 12.4644ZM8.99976 13.9644C8.53331 13.9644 8.06692 14.0087 7.60669 14.0969C7.05903 14.2019 6.51985 14.3692 5.99976 14.5994V15H11.9998V14.5986C11.4799 14.3687 10.9409 14.2018 10.3936 14.0969C9.93319 14.0087 9.46634 13.9644 8.99976 13.9644ZM11.8511 4.17773L13.6865 4.29259C14.0173 4.31329 14.3163 4.49655 14.4849 4.7819L15.4719 6.45214C15.6455 6.74586 15.6573 7.1078 15.5033 7.41224L14.7002 9L15.5031 10.5869C15.6572 10.8914 15.6454 11.2535 15.4717 11.5473L15.0388 12.2795C14.9215 12.478 14.6794 12.5648 14.4627 12.486L14.3295 12.4376C13.8348 12.2578 13.6251 11.6727 13.8931 11.2197C13.9661 11.0962 13.9711 10.944 13.9063 10.816L13.4445 9.90286C13.1573 9.33521 13.1574 8.66482 13.4446 8.09721L13.763 7.46783C13.9171 7.16343 13.9053 6.80152 13.7318 6.50778L13.5664 6.2278C13.3978 5.94239 13.0988 5.75907 12.7679 5.73833L11.9707 5.68836C11.355 5.64977 10.7915 5.32919 10.4438 4.81961L10.0116 4.18633C9.82532 3.91332 9.51614 3.75 9.18562 3.75H8.81553C8.48491 3.75 8.17566 3.91341 7.98937 4.18655L7.55792 4.81917C7.21021 5.32901 6.6466 5.64977 6.03069 5.68836L5.23317 5.73833C4.90227 5.75907 4.60315 5.94246 4.43459 6.22796L4.26983 6.50702C4.09639 6.80078 4.08467 7.16268 4.23873 7.46704L4.55748 8.09679C4.8449 8.66463 4.8449 9.33537 4.55748 9.90321L4.09539 10.8162C4.03063 10.9441 4.03554 11.0962 4.1084 11.2197C4.3758 11.6729 4.16596 12.2576 3.67139 12.4373L3.53793 12.4859C3.32103 12.5647 3.07874 12.4778 2.96136 12.2791L2.52919 11.5475C2.35557 11.2536 2.34387 10.8914 2.49816 10.5869L3.30225 9L2.4981 7.41242C2.34385 7.10789 2.3556 6.74571 2.52926 6.45182L3.51605 4.78191C3.68467 4.49655 3.98373 4.31329 4.31454 4.2926L6.15063 4.17773L7.1676 2.68657C7.35388 2.41342 7.66314 2.25 7.99376 2.25H10.0074C10.3379 2.25 10.6471 2.41333 10.8334 2.68635L11.8511 4.17773ZM8.99976 6.75C10.3977 6.75 11.531 7.90137 11.531 9.32153C11.531 10.1924 11.105 10.9621 10.4529 11.4272C10.0417 11.7205 9.54035 11.8931 8.99976 11.8931C8.45928 11.893 7.9585 11.7205 7.54736 11.4272C6.89523 10.9621 6.46854 10.1925 6.46851 9.32153C6.46851 7.90147 7.60191 6.75015 8.99976 6.75ZM8.99976 8.25C8.45251 8.25015 7.96851 8.70755 7.96851 9.32153C7.96854 9.69329 8.1489 10.0142 8.41821 10.2063C8.58487 10.3252 8.78334 10.393 8.99976 10.3931C9.21629 10.3931 9.4153 10.3252 9.58203 10.2063C9.8513 10.0142 10.031 9.69325 10.031 9.32153C10.031 8.70744 9.54712 8.25 8.99976 8.25Z" fill="currentColor"/>
</svg>
