<svg viewBox="0 0 104 104" fill="none" xmlns="http://www.w3.org/2000/svg">
<path fill-rule="evenodd" clip-rule="evenodd" d="M92.9905 8.66504C93.9138 8.66505 94.4174 9.74727 93.82 10.4509L22.6389 94.1882C22.0214 94.9146 21.1165 95.3349 20.1632 95.335H11.0095C10.086 95.335 9.58621 94.2528 10.1843 93.5492L23.4006 78.001H12.9985L12.5542 77.9799C12.2863 77.9526 12.0267 77.8971 11.7755 77.8233C11.5636 77.761 11.3589 77.683 11.1619 77.5905C11.1287 77.575 11.0973 77.5561 11.0645 77.5398C10.8735 77.4441 10.6881 77.3399 10.5144 77.2181C10.4864 77.1985 10.4615 77.1749 10.434 77.1546C10.08 76.8939 9.76749 76.5822 9.50719 76.2279C9.48699 76.2004 9.46328 76.1754 9.44371 76.1475C9.32227 75.9737 9.21741 75.7884 9.12209 75.5973C9.10576 75.5646 9.08683 75.5332 9.0713 75.5C8.9792 75.3029 8.90051 75.0982 8.83855 74.8863C8.7655 74.6367 8.71329 74.3779 8.6862 74.1119L8.66504 73.6675V30.3325C8.66504 30.1926 8.67323 30.0544 8.6862 29.9178C8.69282 29.8481 8.70171 29.7791 8.71159 29.7104C8.74153 29.5023 8.78435 29.2986 8.84278 29.101C8.90285 28.8981 8.97927 28.7022 9.06707 28.5128C9.10137 28.4388 9.13459 28.3644 9.17287 28.2927C9.19375 28.2537 9.21855 28.2168 9.24058 28.1785C9.27594 28.1169 9.31236 28.0562 9.35061 27.9965C9.3885 27.9375 9.42848 27.88 9.46911 27.823C9.67979 27.5271 9.92455 27.2574 10.2012 27.0232C10.2241 27.0038 10.2457 26.9828 10.2689 26.9639C10.3401 26.9062 10.4142 26.8521 10.489 26.7989C10.532 26.7683 10.576 26.7391 10.6202 26.71C10.6999 26.6575 10.7823 26.6091 10.8656 26.5619C10.897 26.5441 10.9269 26.5239 10.9587 26.5069C11.0321 26.4677 11.1073 26.4319 11.183 26.3968C11.2367 26.372 11.289 26.3433 11.3439 26.3207C11.4433 26.2796 11.5456 26.2444 11.6486 26.2106C11.6697 26.2037 11.6907 26.1961 11.712 26.1895C11.9822 26.1056 12.2643 26.0497 12.5542 26.0202L12.9985 25.999H67.6032L81.3612 9.81189C81.9785 9.08561 82.8837 8.66528 83.8369 8.66504H92.9905ZM28.5255 34.666C26.3417 39.6633 22.3293 43.6756 17.332 45.8595V58.1363C22.33 60.32 26.3414 64.3363 28.5255 69.334H30.7684L45.7537 51.6953C44.7576 50.7498 44.2577 49.4854 44.2641 47.8951C44.2572 46.5537 44.6167 45.3784 45.339 44.3741C46.0678 43.3637 47.0752 42.5765 48.3606 42.0127C49.1424 41.6717 49.9965 41.445 50.9167 41.3102V38.9995H55.2502V40.5273L60.2354 34.666H28.5255Z" fill="currentColor"/>
<path d="M93.1302 26.5619C93.2136 26.6091 93.2958 26.6575 93.3756 26.71C93.4199 26.739 93.4638 26.7683 93.5068 26.7989C93.5817 26.8521 93.6557 26.9062 93.7269 26.9639C93.7502 26.9828 93.7717 27.0038 93.7946 27.0232C93.8717 27.0884 93.9465 27.1559 94.0189 27.2263C94.0475 27.2541 94.0757 27.2823 94.1035 27.3109C94.2582 27.4698 94.3977 27.642 94.5267 27.823C94.5674 27.8801 94.6073 27.9374 94.6452 27.9965C94.6835 28.0562 94.7198 28.1169 94.7553 28.1785C94.7773 28.2169 94.8021 28.2536 94.823 28.2927C94.8613 28.3645 94.8944 28.4387 94.9288 28.5128C95.0167 28.7023 95.0929 28.8979 95.1531 29.101C95.2116 29.2988 95.2543 29.5021 95.2843 29.7104C95.2942 29.7793 95.3072 29.8479 95.3139 29.9178C95.3269 30.0544 95.335 30.1926 95.335 30.3325V73.6675L95.3139 74.1119C95.2867 74.3783 95.2305 74.6363 95.1573 74.8863C95.0952 75.0984 95.0168 75.3028 94.9245 75.5C94.909 75.5332 94.8901 75.5645 94.8738 75.5973C94.7783 75.7885 94.6738 75.9736 94.5521 76.1475C94.5325 76.1755 94.5089 76.2003 94.4886 76.2279C94.228 76.5823 93.9163 76.894 93.5619 77.1546C93.5343 77.1749 93.5095 77.1985 93.4815 77.2181C93.3076 77.3398 93.1225 77.4443 92.9313 77.5398C92.8985 77.5561 92.8672 77.575 92.834 77.5905C92.6368 77.6828 92.4324 77.7612 92.2203 77.8233C91.9703 77.8965 91.7124 77.9527 91.4459 77.9799C91.2998 77.9948 91.1515 78.001 91.0015 78.001H49.3974L56.7652 69.334H75.4746C77.6587 64.3363 81.6701 60.32 86.668 58.1363V45.8595C84.302 44.8255 82.1593 43.3791 80.3244 41.6149L93.1217 26.5577L93.1302 26.5619Z" fill="currentColor"/>
</svg>
