<svg viewBox="0 0 24 24" fill="none" xmlns="http://www.w3.org/2000/svg">
<path fill-rule="evenodd" clip-rule="evenodd" d="M21 12C21 16.9706 16.9706 21 12 21C7.02944 21 3 16.9706 3 12C3 7.02944 7.02944 3 12 3C16.9706 3 21 7.02944 21 12ZM8.64124 9.7019L9.7019 8.64124C9.79953 8.54361 9.95783 8.54361 10.0555 8.64124L12 10.5858L13.9445 8.64124C14.0422 8.54361 14.2005 8.54361 14.2981 8.64124L15.3588 9.7019C15.4564 9.79953 15.4564 9.95783 15.3588 10.0555L13.4142 12L15.3588 13.9445C15.4564 14.0422 15.4564 14.2005 15.3588 14.2981L14.2981 15.3588C14.2005 15.4564 14.0422 15.4564 13.9445 15.3588L12 13.4142L10.0555 15.3588C9.95783 15.4564 9.79953 15.4564 9.7019 15.3588L8.64124 14.2981C8.54361 14.2005 8.54361 14.0422 8.64124 13.9445L10.5858 12L8.64124 10.0555C8.54361 9.95783 8.54361 9.79953 8.64124 9.7019Z" fill="currentColor"/>
</svg>
