<svg viewBox="0 0 24 24" fill="none" xmlns="http://www.w3.org/2000/svg">
<path fill-rule="evenodd" clip-rule="evenodd" d="M12 3C16.9706 3 21 7.02944 21 12C21 16.9706 16.9706 21 12 21C7.02944 21 3 16.9706 3 12C3 7.02944 7.02944 3 12 3ZM12.1065 11.0692C11.7305 11.2809 11.4351 11.5221 11.249 11.8418C11.0624 12.1623 11.0048 12.5284 11.0392 12.9547C11.0395 12.9589 11.0407 12.963 11.0426 12.9667C11.0534 12.9872 11.0746 13 11.0978 13H12.936C12.9616 13 12.9823 12.9792 12.9823 12.9537C12.9823 12.7629 13.0185 12.6534 13.1002 12.5508C13.1953 12.4314 13.37 12.2991 13.7063 12.1124L13.7079 12.1116C14.0946 11.8933 14.4078 11.6351 14.6238 11.3155C14.8422 10.9922 14.95 10.6224 14.95 10.2022C14.95 9.54626 14.667 8.98541 14.1743 8.59483C13.6868 8.20833 13.0103 8 12.2286 8C11.3917 8 10.7026 8.22512 10.2149 8.64528C9.72376 9.06839 9.46513 9.66549 9.45082 10.3485L9.44728 10.5179C9.44587 10.5851 9.49999 10.6404 9.56725 10.6404H11.2852C11.3488 10.6404 11.4014 10.5907 11.405 10.5272L11.4139 10.3706C11.4254 10.1676 11.5017 10.0195 11.6133 9.92074C11.7263 9.82066 11.8989 9.75109 12.1363 9.75109C12.3767 9.75109 12.5516 9.81771 12.6605 9.90601C12.7652 9.99093 12.8224 10.1054 12.8224 10.2464C12.8224 10.4247 12.7863 10.53 12.7037 10.6318C12.6071 10.7507 12.433 10.8822 12.1065 11.0692ZM13 15.75C13 15.8881 12.8881 16 12.75 16H11.25C11.1119 16 11 15.8881 11 15.75V14.25C11 14.1119 11.1119 14 11.25 14H12.75C12.8881 14 13 14.1119 13 14.25V15.75Z" fill="currentColor"/>
</svg>
