<svg viewBox="0 0 24 24" fill="none" xmlns="http://www.w3.org/2000/svg">
<path fill-rule="evenodd" clip-rule="evenodd" d="M3.29693 6.86803C3.11637 6.94828 3 7.12734 3 7.32494L3.00001 16.191C3.00001 16.3804 3.10701 16.5535 3.2764 16.6382L11.5528 20.7764C11.8343 20.9172 12.1657 20.9172 12.4472 20.7764L20.7236 16.6382C20.893 16.5535 21 16.3804 21 16.191V7.32494C21 7.12734 20.8836 6.94828 20.7031 6.86803L12.4061 3.18051C12.1476 3.06559 11.8524 3.06559 11.5939 3.18051L3.29693 6.86803ZM5 9.25507L5.00001 15.2639L11 18.2639L11 12.5884L5 9.25507ZM13 12.5884L13 18.2639L19 15.2639V9.25507L13 12.5884ZM17.6674 7.70748L12 5.18863L6.33259 7.70748L12 10.856L17.6674 7.70748Z" fill="currentColor"/>
</svg>
