<svg viewBox="0 0 24 24" fill="none" xmlns="http://www.w3.org/2000/svg">
<path fill-rule="evenodd" clip-rule="evenodd" d="M19.8336 20.8943C19.736 20.9919 19.5777 20.9919 19.4801 20.8943L3.10569 4.51991C3.00806 4.42228 3.00806 4.26399 3.10569 4.16636L4.16635 3.1057C4.26399 3.00807 4.42228 3.00807 4.51991 3.1057L20.8943 19.4801C20.9919 19.5777 20.9919 19.736 20.8943 19.8336L19.8336 20.8943Z" fill="currentColor"/>
<path fill-rule="evenodd" clip-rule="evenodd" d="M3.10569 19.8336C3.00806 19.736 3.00806 19.5777 3.10569 19.4801L19.4801 3.10569C19.5777 3.00806 19.736 3.00806 19.8336 3.10569L20.8943 4.16635C20.9919 4.26399 20.9919 4.42228 20.8943 4.51991L4.51991 20.8943C4.42228 20.9919 4.26398 20.9919 4.16635 20.8943L3.10569 19.8336Z" fill="currentColor"/>
</svg>
