<svg viewBox="0 0 24 24" fill="none" xmlns="http://www.w3.org/2000/svg">
<path d="M4 2.5C4 2.22386 4.22386 2 4.5 2H11.2549C11.1169 2 11.0049 2.11193 11.0049 2.25V10.1858L8.21339 7.39428C8.13464 7.31554 8 7.37131 8 7.48267V9.80221C8 9.93482 8.05268 10.062 8.14645 10.1558L11.8281 13.8374C11.9258 13.9351 12.084 13.9351 12.1817 13.8374L15.8585 10.1607C15.9522 10.0669 16.0049 9.93975 16.0049 9.80714V7.4876C16.0049 7.37624 15.8703 7.32046 15.7915 7.39921L13.0049 10.1858V2.25C13.0049 2.11193 12.893 2 12.7549 2H19.5C19.7761 2 20 2.22386 20 2.5V21C20 21.412 19.5296 21.6472 19.2 21.4L16.3 19.225C16.1222 19.0917 15.8778 19.0917 15.7 19.225L12.3 21.775C12.1222 21.9083 11.8778 21.9083 11.7 21.775L8.3 19.225C8.12222 19.0917 7.87778 19.0917 7.7 19.225L4.8 21.4C4.47038 21.6472 4 21.412 4 21V2.5Z" fill="currentColor"/>
</svg>
