<svg viewBox="0 0 24 24" fill="none" xmlns="http://www.w3.org/2000/svg">
<path d="M13.1111 20.8889V19V15.0439V13.1111H13.8869H14.7778V12H12.2778C12.1244 12 12 12.1244 12 12.2778V15V19V21V21.7222C12 21.8756 12.1244 22 12.2778 22H21.7222C21.8756 22 22 21.8756 22 21.7222V12.2778C22 12.1244 21.8756 12 21.7222 12H19.2222V13.1111H20.8889V20.8889H19.4595H13.1111Z" fill="currentColor"/>
<path d="M19.2222 13.1111V12H14.7778V13.1111H19.2222Z" fill="currentColor"/>
<path fill-rule="evenodd" clip-rule="evenodd" d="M9.41721 11.1855C10.1482 11.6987 11.0389 12 12 12C12.9611 12 13.8518 11.6987 14.5828 11.1855C15.7422 10.3714 16.5 9.02422 16.5 7.5C16.5 5.01472 14.4853 3 12 3C9.51472 3 7.5 5.01472 7.5 7.5C7.5 9.02422 8.25781 10.3714 9.41721 11.1855ZM12 10C13.3807 10 14.5 8.88071 14.5 7.5C14.5 6.11929 13.3807 5 12 5C10.6193 5 9.5 6.11929 9.5 7.5C9.5 8.88071 10.6193 10 12 10Z" fill="currentColor"/>
<path d="M20 20.0044C20 20.3893 19.7806 20.7232 19.4595 20.8889H20.8889V13.1111H19.2222V14.6879L19.4008 14.7657C19.7648 14.9242 20 15.2823 20 15.6778V20.0044Z" fill="currentColor"/>
<path d="M20 20.0044V15.6778C20 15.2823 19.7648 14.9242 19.4008 14.7657L19.2222 14.6879V18C19.2222 18.2289 18.9609 18.3596 18.7778 18.2222L17 16.8889L15.2222 18.2222C15.0391 18.3596 14.7778 18.2289 14.7778 18V15.2768C14.2263 15.1658 13.6697 15.0882 13.1111 15.0439V19V20.8889H19.4595C19.7806 20.7232 20 20.3893 20 20.0044Z" fill="currentColor"/>
<path d="M13.8869 13.1111H13.1111V15.0439C13.6697 15.0882 14.2263 15.1658 14.7778 15.2768V13.2418C14.4818 13.1899 14.1847 13.1463 13.8869 13.1111Z" fill="currentColor"/>
<path d="M6 19V16.3371L6.38561 16.1691C8.17509 15.3897 10.0875 15 12 15V13C11.0024 13 10.0049 13.0928 9.02066 13.2785C7.84968 13.4994 6.69762 13.8517 5.58697 14.3355L4.59919 14.7657C4.2352 14.9242 4 15.2823 4 15.6778V20.0044C4 20.5543 4.44771 21 5 21H12V19H6Z" fill="currentColor"/>
<path d="M14 12H21V14H14V12Z" fill="currentColor"/>
</svg>
