<svg viewBox="0 0 24 24" fill="none" xmlns="http://www.w3.org/2000/svg">
<path fill-rule="evenodd" clip-rule="evenodd" d="M15 9H21.5C21.7761 9 22 9.22386 22 9.5V12.882C22 12.9596 21.9819 13.0361 21.9472 13.1056L18.1382 20.7236C18.0535 20.893 17.8804 21 17.691 21H2.5C2.22386 21 2 20.7761 2 20.5V9.5C2 9.22386 2.22386 9 2.5 9H6.79289C6.9255 9 7.05268 8.94732 7.14645 8.85355L12.8536 3.14645C12.9473 3.05268 13.0745 3 13.2071 3H15.4098C15.7187 3 15.9538 3.27743 15.903 3.5822L15 9ZM9 9.82843L13.6012 5.22722L12.6391 11H20V12.5279L16.7639 19H9V9.82843ZM7 11H4V19H7V11Z" fill="currentColor"/>
</svg>
