<svg viewBox="0 0 24 24" fill="none" xmlns="http://www.w3.org/2000/svg">
<path fill-rule="evenodd" clip-rule="evenodd" d="M6 5V2.5C6 2.22386 6.22386 2 6.5 2H17.5C17.7761 2 18 2.22386 18 2.5V5H21.75C21.8881 5 22 5.11193 22 5.25V6.75C22 6.88807 21.8881 7 21.75 7H19.8824L19.0277 21.5294C19.0121 21.7936 18.7933 22 18.5285 22H5.47145C5.20671 22 4.98786 21.7936 4.97232 21.5294L4.11765 7H2.25C2.11193 7 2 6.88807 2 6.75V5.25C2 5.11193 2.11193 5 2.25 5H6ZM8 4H16V5H8V4ZM6.1211 7L6.88581 20H17.1142L17.8789 7H6.1211Z" fill="currentColor"/>
<path fill-rule="evenodd" clip-rule="evenodd" d="M6.88581 20L6.1211 7H17.8789L17.1142 20H6.88581ZM9 17L9 10H11V17H9ZM13 10V17H15V10H13Z" fill="currentColor"/>
</svg>
