<svg viewBox="0 0 24 24" fill="none" xmlns="http://www.w3.org/2000/svg">
<path fill-rule="evenodd" clip-rule="evenodd" d="M6 3.4C6 3.17909 6.17909 3 6.4 3H17.6C17.8209 3 18 3.17909 18 3.4V7H21.5C21.7761 7 22 7.22386 22 7.5V18.5C22 18.7761 21.7761 19 21.5 19H18V20.6C18 20.8209 17.8209 21 17.6 21H6.4C6.17909 21 6 20.8209 6 20.6V19H2.5C2.22386 19 2 18.7761 2 18.5V7.5C2 7.22386 2.22386 7 2.5 7H6V3.4ZM20 17H18V13.4C18 13.1791 17.8209 13 17.6 13H6.4C6.17909 13 6 13.1791 6 13.4V17H4V9H20V17ZM16 7V5H8V7H16ZM16 15H8V19H16V15Z" fill="currentColor"/>
<path fill-rule="evenodd" clip-rule="evenodd" d="M18 11H17.6C17.7361 11 17.8695 11.0113 17.9995 11.0331C17.9998 11.0221 18 11.0111 18 11Z" fill="currentColor"/>
<path d="M17 10C16.4477 10 16 10.4477 16 11C16 11.5523 16.4477 12 17 12C17.2251 12 17.4329 11.9256 17.6 11.8001C17.6017 11.7988 17.6033 11.7976 17.605 11.7963C17.61 11.7925 17.6149 11.7887 17.6198 11.7848L17.6314 11.7755L17.6361 11.7716C17.8504 11.5948 17.9898 11.3303 17.9995 11.0331C17.8695 11.0113 17.7361 11 17.6 11H18C18 10.4477 17.5523 10 17 10Z" fill="currentColor"/>
</svg>
