<svg viewBox="0 0 24 24" fill="none" xmlns="http://www.w3.org/2000/svg">
<path fill-rule="evenodd" clip-rule="evenodd" d="M16 10L20 13.5V6H4V15L7 13L10 15L16 10ZM7.67371 11.4137C7.33467 11.0518 7.125 10.552 7.125 10C7.125 8.89543 7.96447 8 9 8C10.0355 8 10.875 8.89543 10.875 10C10.875 10.552 10.6653 11.0518 10.3263 11.4137C10.029 11.7311 9.63211 11.9424 9.18995 11.9899C9.12748 11.9966 9.06412 12 9 12C8.93588 12 8.87252 11.9966 8.81005 11.9899C8.36789 11.9424 7.97105 11.7311 7.67371 11.4137Z" fill="currentColor"/>
<path fill-rule="evenodd" clip-rule="evenodd" d="M2.5 4C2.22386 4 2 4.22386 2 4.5V19.5C2 19.7761 2.22386 20 2.5 20H21.5C21.7761 20 22 19.7761 22 19.5V4.5C22 4.22386 21.7761 4 21.5 4H2.5ZM20 13.5V6H4V15V18H20V13.5Z" fill="currentColor"/>
</svg>
