<svg viewBox="0 0 64 64" fill="none" xmlns="http://www.w3.org/2000/svg">
<path fill-rule="evenodd" clip-rule="evenodd" d="M53.3346 55.2764C53.3346 57.6913 50.3812 58.8626 48.7261 57.1041L44.3022 52.4037C43.3716 51.4149 41.8466 51.2833 40.7604 52.098L33.6013 57.4673C32.6532 58.1784 31.3495 58.1784 30.4013 57.4673L23.2422 52.098C22.156 51.2833 20.631 51.4149 19.7004 52.4037L15.2765 57.1041C13.6214 58.8626 10.668 57.6913 10.668 55.2764V6.66732C10.668 5.93094 11.2649 5.33398 12.0013 5.33398H52.0013C52.7377 5.33398 53.3346 5.93094 53.3346 6.66732V55.2764ZM16.0013 48.0007L18.1346 46.4007C20.0309 44.9784 22.6383 44.9784 24.5346 46.4007L30.4013 50.8007C31.3495 51.5118 32.6532 51.5118 33.6013 50.8007L39.468 46.4007C41.3643 44.9784 43.9717 44.9784 45.868 46.4007L48.0013 48.0007V10.6673H16.0013V48.0007Z" fill="currentColor"/>
<path fill-rule="evenodd" clip-rule="evenodd" d="M41.7811 35.7811C40.7397 36.8225 39.0513 36.8225 38.0099 35.7811L22.8856 20.6569C21.8442 19.6155 21.8442 17.927 22.8856 16.8856C23.927 15.8442 25.6155 15.8442 26.6569 16.8856L41.7811 32.0098C42.8225 33.0512 42.8225 34.7397 41.7811 35.7811Z" fill="currentColor"/>
<path fill-rule="evenodd" clip-rule="evenodd" d="M22.8857 35.781C21.8443 34.7396 21.8443 33.0512 22.8857 32.0098L38.0098 16.8856C39.0512 15.8442 40.7396 15.8442 41.781 16.8856C42.8224 17.927 42.8224 19.6155 41.781 20.6569L26.657 35.781C25.6156 36.8224 23.9271 36.8224 22.8857 35.781Z" fill="currentColor"/>
</svg>
