<svg viewBox="0 0 20 20" fill="none" xmlns="http://www.w3.org/2000/svg">
<path d="M15.8333 3.33333C15.8333 2.8731 16.2064 2.5 16.6666 2.5V2.5C17.1269 2.5 17.5 2.8731 17.5 3.33333V7.33333C17.5 7.88562 17.0522 8.33333 16.5 8.33333H12.5C12.0397 8.33333 11.6666 7.96024 11.6666 7.5V7.5C11.6666 7.03976 12.0397 6.66667 12.5 6.66667H14.7872C14.1846 5.80132 13.3542 5.10927 12.3784 4.67354C11.052 4.08128 9.55233 4.00521 8.17282 4.46022C6.79331 4.91523 5.63319 5.86856 4.91943 7.13373C4.20568 8.39889 3.98964 9.88484 4.31358 11.3009C4.63753 12.7169 5.47814 13.9611 6.67098 14.7901C7.86381 15.6191 9.32303 15.9732 10.7632 15.7832C12.2033 15.5931 13.5207 14.8726 14.4577 13.7626C15.0061 13.1128 15.4011 12.3569 15.6235 11.5507C15.7354 11.1449 16.0859 10.8333 16.5068 10.8333V10.8333C17.0118 10.8333 17.4082 11.2743 17.2893 11.7651C17.0176 12.8874 16.488 13.941 15.7313 14.8376C14.5266 16.2648 12.8328 17.1912 10.9812 17.4355C9.12961 17.6799 7.25347 17.2246 5.71983 16.1587C4.18618 15.0929 3.10539 13.4932 2.68889 11.6725C2.27239 9.85194 2.55016 7.94143 3.46784 6.31479C4.38553 4.68816 5.87711 3.46244 7.65077 2.87743C9.42442 2.29242 11.3525 2.39022 13.0579 3.1517C14.147 3.63802 15.0953 4.3727 15.8333 5.28589V3.33333Z" fill="currentColor"/>
</svg>
