<svg viewBox="0 0 24 24" fill="none" xmlns="http://www.w3.org/2000/svg">
<path fill-rule="evenodd" clip-rule="evenodd" d="M20.5 20C20.7761 20 21 19.7761 21 19.5V10H3V19.5C3 19.7761 3.22386 20 3.5 20H20.5ZM14.25 13C14.1119 13 14 13.1119 14 13.25V16.75C14 16.8881 14.1119 17 14.25 17H17.75C17.8881 17 18 16.8881 18 16.75V13.25C18 13.1119 17.8881 13 17.75 13H14.25Z" fill="currentColor"/>
<path d="M7.5 2C7.22386 2 7 2.22386 7 2.5V4H3.5C3.22386 4 3 4.22386 3 4.5V8H21V4.5C21 4.22386 20.7761 4 20.5 4H17V2.5C17 2.22386 16.7761 2 16.5 2H15.5C15.2239 2 15 2.22386 15 2.5V4H9V2.5C9 2.22386 8.77614 2 8.5 2H7.5Z" fill="currentColor"/>
</svg>
