<svg viewBox="0 0 24 24" fill="none" xmlns="http://www.w3.org/2000/svg">
<path d="M2.5406 22C2.3275 22 2.2121 21.7505 2.35011 21.5881L6.08214 17.1975C4.41671 16.0792 3.06681 14.4892 2.24256 12.566L2 12L2.24256 11.434C3.91538 7.53076 7.75339 4.99999 12 4.99999C13.3388 4.99999 14.6369 5.25152 15.8395 5.71828L18.7754 2.26426C18.9179 2.09661 19.1268 2 19.3468 2L21.4594 2.00002C21.6725 2.00003 21.7879 2.24957 21.6499 2.41194L14.6677 10.6263C14.308 9.9291 13.683 9.39108 12.9262 9.14569C12.6345 9.05111 12.3232 9 12 9C10.3431 9 9 10.3431 9 12C9 12.4951 9.11993 12.9622 9.33231 13.3738C9.69205 14.0709 10.3171 14.6089 11.0739 14.8543L5.22464 21.7357C5.08214 21.9034 4.87321 22 4.65319 22L2.5406 22Z" fill="currentColor"/>
<path d="M10.9137 18.5597C10.7854 18.7106 10.8754 18.9424 11.0728 18.9596C11.3792 18.9864 11.6885 19 12 19C16.2466 19 20.0846 16.4692 21.7574 12.566L22 12L21.7574 11.434C21.2829 10.3266 20.634 9.32975 19.851 8.46977C19.7513 8.36026 19.5786 8.36562 19.4827 8.47846L18.6439 9.4653C18.4807 9.65728 18.4872 9.9397 18.6475 10.1341C19.1106 10.6955 19.5064 11.3208 19.8204 12C18.4797 14.9008 15.6441 16.8164 12.4651 16.9875C12.3235 16.9951 12.1898 17.0583 12.098 17.1664L10.9137 18.5597Z" fill="currentColor"/>
<path d="M14.6677 10.6263C14.308 9.9291 13.683 9.39108 12.9262 9.14569L9.33231 13.3738C9.69205 14.0709 10.3171 14.6089 11.0739 14.8543L14.6677 10.6263Z" fill="currentColor"/>
</svg>
