<svg viewBox="0 0 24 24" fill="none" xmlns="http://www.w3.org/2000/svg">
<path d="M11.0049 11.5266C11.0049 11.638 10.8703 11.6938 10.7915 11.615L8.00493 8.8284V18.7642C8.00493 18.9023 7.893 19.0142 7.75493 19.0142H6.25493C6.11686 19.0142 6.00493 18.9023 6.00493 18.7642V8.8284L3.21339 11.6199C3.13464 11.6987 3 11.6429 3 11.5316V9.21201C3 9.0794 3.05268 8.95222 3.14645 8.85845L6.82812 5.17678C6.92575 5.07915 7.08404 5.07915 7.18168 5.17678L10.8585 8.85353C10.9522 8.94729 11.0049 9.07447 11.0049 9.20708V11.5266Z" fill="currentColor"/>
<path d="M21 12.4876C21 12.3762 20.8654 12.3205 20.7866 12.3992L18 15.1858V5.25C18 5.11193 17.8881 5 17.75 5H16.25C16.1119 5 16 5.11193 16 5.25V15.1858L13.2085 12.3943C13.1297 12.3155 12.9951 12.3713 12.9951 12.4827V14.8022C12.9951 14.9348 13.0477 15.062 13.1415 15.1558L16.8232 18.8374C16.9208 18.9351 17.0791 18.9351 17.1767 18.8374L20.8535 15.1607C20.9473 15.0669 21 14.9397 21 14.8071V12.4876Z" fill="currentColor"/>
</svg>
