<svg viewBox="0 0 24 24" fill="none" xmlns="http://www.w3.org/2000/svg">
<path d="M15 14.5C15 14.2239 14.7761 14 14.5 14H9.5C9.22386 14 9 14.2239 9 14.5V20H11V16H13V20H15V14.5Z" fill="currentColor"/>
<path d="M13 22H15V20H13V22Z" fill="currentColor"/>
<path d="M9 22H11V20H9V22Z" fill="currentColor"/>
<path d="M21 22V10.2245C21 10.0817 20.9389 9.94571 20.8322 9.85083L12.3322 2.29527C12.1427 2.12688 11.8573 2.12688 11.6678 2.29527L3.16782 9.85083C3.06107 9.94571 3 10.0817 3 10.2245V22H9V20H5V10.8981L12 4.67591L19 10.8981V20H15V22H21Z" fill="currentColor"/>
</svg>
