<svg viewBox="0 0 64 64" fill="none" xmlns="http://www.w3.org/2000/svg">
<path fill-rule="evenodd" clip-rule="evenodd" d="M51.9273 22.5938C52.8275 23.494 53.3332 24.7149 53.3332 25.9879V26.6663H36.7998C34.1489 26.6663 31.9998 24.5173 31.9998 21.8663V10.6663H15.9998V53.333H26.6665C28.1393 53.333 29.3332 54.5269 29.3332 55.9997V55.9997C29.3332 57.4724 28.1393 58.6663 26.6665 58.6663H15.4665C12.8155 58.6663 10.6665 56.5173 10.6665 53.8663V10.133C10.6665 7.48204 12.8155 5.33301 15.4665 5.33301H32.6783C33.9513 5.33301 35.1722 5.83872 36.0724 6.7389L51.9273 22.5938ZM37.3332 21.333H43.1248L37.3332 15.5413V21.333Z" fill="currentColor"/>
<path d="M41.3336 57.3321L33.5838 58.4406C32.7917 58.5539 32.1127 57.8749 32.226 57.0827L33.3344 49.333L43.2192 39.4482L51.2183 47.4474L41.3336 57.3321Z" fill="currentColor"/>
<path d="M54.9896 43.6761L46.9904 35.677L48.9707 33.6967C49.908 32.7595 51.4276 32.7595 52.3648 33.6967L56.9699 38.3018C57.9071 39.239 57.9071 40.7586 56.9699 41.6959L54.9896 43.6761Z" fill="currentColor"/>
</svg>
