<svg viewBox="0 0 64 64" fill="none" xmlns="http://www.w3.org/2000/svg">
<path d="M10.6667 8C12.1394 8 13.3333 9.19391 13.3333 10.6667V16.9141C15.6947 13.9924 18.7289 11.6421 22.2135 10.0859C27.6707 7.64921 33.8425 7.33631 39.5182 9.20833C45.1936 11.0805 49.9672 15.0033 52.9036 20.2083C55.8397 25.4132 56.7283 31.5262 55.3958 37.3516C54.063 43.1775 50.603 48.2976 45.6953 51.7083C40.7878 55.1185 34.7841 56.5761 28.8594 55.7943C22.9345 55.0123 17.5136 52.046 13.6589 47.4792C11.2272 44.598 9.52888 41.2098 8.66272 37.6015C8.29156 36.0553 9.53976 34.6667 11.1299 34.6667H11.2167C12.5423 34.6667 13.6465 35.6476 13.9962 36.9262C14.7054 39.5192 15.9717 41.9505 17.7344 44.0391C20.7325 47.591 24.9492 49.8969 29.5573 50.5052C34.1657 51.1133 38.8366 49.9809 42.6536 47.3281C46.47 44.6756 49.1585 40.6945 50.1953 36.1641C51.2319 31.6328 50.5418 26.8766 48.2578 22.8281C45.9738 18.7796 42.2608 15.7295 37.8464 14.2734C33.432 12.8175 28.6324 13.0606 24.388 14.9557C21.2661 16.35 18.6102 18.5648 16.6823 21.3333H24C25.4728 21.3333 26.6667 22.5272 26.6667 24C26.6667 25.4728 25.4728 26.6667 24 26.6667H10.6667C9.1939 26.6667 8 25.4728 8 24V10.6667C8 9.1939 9.19391 8 10.6667 8Z" fill="currentColor"/>
<path d="M34.6667 31.5885L39.7375 34.5158C41.0129 35.252 41.4497 36.8829 40.7132 38.1581C39.977 39.4329 38.3468 39.8696 37.0718 39.1336L30.6669 35.4364C29.8417 34.9601 29.3333 34.0797 29.3333 33.1269V24C29.3333 22.5272 30.5272 21.3333 32 21.3333C33.4728 21.3333 34.6667 22.5272 34.6667 24V31.5885Z" fill="currentColor"/>
</svg>
