<svg viewBox="0 0 64 64" fill="none" xmlns="http://www.w3.org/2000/svg">
<path d="M31.7656 36.285C30.7143 37.5693 28.7579 37.5915 27.6776 36.3315L22.651 30.468C21.1681 28.7383 22.3981 26.0658 24.6765 26.0658C25.4549 26.0658 26.1946 26.4058 26.7012 26.9967L29.6608 30.4486L37.4969 20.8733C38.0028 20.255 38.7595 19.8965 39.5584 19.8965C41.806 19.8965 43.0434 22.5085 41.6196 24.2477L31.7656 36.285Z" fill="currentColor"/>
<path fill-rule="evenodd" clip-rule="evenodd" d="M53.3327 55.2764C53.3327 57.6913 50.3792 58.8626 48.7242 57.1041L44.3003 52.4037C43.3697 51.4149 41.8447 51.2833 40.7584 52.098L33.5993 57.4673C32.6512 58.1784 31.3475 58.1784 30.3993 57.4673L23.2403 52.098C22.154 51.2833 20.629 51.4149 19.6984 52.4037L15.2746 57.1041C13.6195 58.8626 10.666 57.6913 10.666 55.2764V6.66732C10.666 5.93094 11.263 5.33398 11.9993 5.33398H51.9994C52.7357 5.33398 53.3327 5.93094 53.3327 6.66732V55.2764ZM15.9993 48.0007L18.1327 46.4007C20.029 44.9784 22.6364 44.9784 24.5327 46.4007L30.3994 50.8007C31.3475 51.5118 32.6512 51.5118 33.5993 50.8007L39.466 46.4007C41.3623 44.9784 43.9697 44.9784 45.866 46.4007L47.9994 48.0007V10.6673H15.9993V48.0007Z" fill="currentColor"/>
</svg>
