<svg viewBox="0 0 24 24" fill="none" xmlns="http://www.w3.org/2000/svg">
<path fill-rule="evenodd" clip-rule="evenodd" d="M11.25 21C11.1119 21 11 20.8881 11 20.75L11 3.25C11 3.11193 11.1119 3 11.25 3L12.75 3C12.8881 3 13 3.11193 13 3.25L13 20.75C13 20.8881 12.8881 21 12.75 21H11.25Z" fill="currentColor"/>
<path fill-rule="evenodd" clip-rule="evenodd" d="M3 11.25C3 11.1119 3.11193 11 3.25 11L12 11L20.75 11C20.8881 11 21 11.1119 21 11.25V12.75C21 12.8881 20.8881 13 20.75 13L3.25 13C3.11193 13 3 12.8881 3 12.75L3 11.25Z" fill="currentColor"/>
</svg>
