<svg viewBox="0 0 64 64" fill="none" xmlns="http://www.w3.org/2000/svg">
<path d="M31.9989 44.3177C33.994 44.3177 35.9914 44.5056 37.9598 44.8828C40.3014 45.3317 42.606 46.0486 44.827 47.0312C45.2862 47.2345 45.7445 47.4509 46.2061 47.6598C47.2567 48.1353 47.9989 49.1601 47.9989 50.3132V56C47.9989 57.4728 46.805 58.6667 45.3322 58.6667H18.6655C17.1928 58.6667 15.9989 57.4728 15.9989 56V50.3135C15.9989 49.1602 16.7412 48.1354 17.7921 47.6604C18.2545 47.4513 18.7135 47.2347 19.1733 47.0312C21.3945 46.0485 23.6988 45.3316 26.0405 44.8828C28.0086 44.5056 30.0041 44.3178 31.9989 44.3177ZM31.9989 49.651C30.3404 49.6511 28.6821 49.8088 27.0457 50.1224C25.0985 50.4956 23.1814 51.0907 21.3322 51.9089V53.3333H42.6655V51.9062C40.8172 51.0887 38.9009 50.4954 36.9546 50.1224C35.3177 49.8087 33.6578 49.651 31.9989 49.651ZM42.1369 14.8542L49.1328 15.292C50.0149 15.3472 50.8124 15.8359 51.262 16.5968L55.2586 23.36C55.7214 24.1432 55.753 25.1084 55.3423 25.9203L52.2671 32L55.3419 38.0767C55.7528 38.8888 55.7212 39.8543 55.258 40.6378L53.471 43.6605C53.0538 44.3662 52.1931 44.6747 51.4227 44.3946L50.9489 44.2225C49.19 43.5832 48.4446 41.503 49.3973 39.8921C49.6569 39.4532 49.6747 38.9121 49.4445 38.457L47.3963 34.4076C46.6307 32.8939 46.6308 31.1062 47.3967 29.5926L49.1547 26.118C49.5654 25.3063 49.534 24.3412 49.0714 23.5579L47.9963 21.7377C47.5467 20.9766 46.7492 20.4877 45.867 20.4324L41.6947 20.1709C40.0528 20.068 38.5503 19.2131 37.623 17.8542L35.3319 14.4969C34.8351 13.7689 34.0107 13.3333 33.1293 13.3333H30.8741C29.9925 13.3333 29.1678 13.7691 28.671 14.4975L26.3825 17.8531C25.4552 19.2126 23.9523 20.068 22.3099 20.1709L18.1363 20.4324C17.2539 20.4877 16.4562 20.9768 16.0067 21.7381L14.9339 23.5552C14.4714 24.3385 14.4401 25.3036 14.851 26.1152L16.6105 29.5914C17.3769 31.1057 17.3769 32.8943 16.6105 34.4086L14.5611 38.4574C14.3309 38.9123 14.3483 39.4531 14.6074 39.8922C15.5581 41.5037 14.812 43.5826 13.0536 44.2217L12.5791 44.3941C11.8078 44.6744 10.9464 44.3655 10.529 43.659L8.74466 40.6383C8.28167 39.8546 8.25048 38.8888 8.66193 38.0767L11.741 32L8.66176 25.9208C8.25042 25.1087 8.28175 24.1429 8.74486 23.3592L12.7409 16.5968C13.1905 15.8359 13.988 15.3472 14.8702 15.292L21.8687 14.8542L25.7492 9.16418C26.2459 8.43578 27.0706 8 27.9523 8H36.0511C36.9325 8 37.757 8.43554 38.2538 9.1636L42.1369 14.8542ZM31.9989 24C36.9694 24 40.9989 28.0938 40.9989 33.1432C40.9987 36.2398 39.4841 38.9764 37.1655 40.6302C35.7035 41.673 33.921 42.2865 31.9989 42.2865C30.0772 42.2863 28.2966 41.6728 26.8348 40.6302C24.5161 38.9764 22.999 36.2399 22.9989 33.1432C22.9989 28.0941 27.0288 24.0005 31.9989 24ZM31.9989 29.3333C30.0531 29.3339 28.3322 30.9602 28.3322 33.1432C28.3323 34.465 28.9736 35.6061 29.9312 36.2891C30.5237 36.7117 31.2294 36.9529 31.9989 36.9531C32.7688 36.9531 33.4763 36.7119 34.0692 36.2891C35.0266 35.6061 35.6654 34.4649 35.6655 33.1432C35.6655 30.9598 33.945 29.3333 31.9989 29.3333Z" fill="currentColor"/>
</svg>
