<svg viewBox="0 0 19 18" fill="none" xmlns="http://www.w3.org/2000/svg">
<path fill-rule="evenodd" clip-rule="evenodd" d="M14.9697 6.21967C15.3092 6.55923 15.5 7.01978 15.5 7.5V7.5H11.5C10.3954 7.5 9.5 6.60457 9.5 5.5V3H5V15H8C8.41421 15 8.75 15.3358 8.75 15.75V15.75C8.75 16.1642 8.41421 16.5 8 16.5H5.5C4.39543 16.5 3.5 15.6046 3.5 14.5V3.5C3.5 2.39543 4.39543 1.5 5.5 1.5H9.42157C9.95201 1.5 10.4607 1.71071 10.8358 2.08579L14.9697 6.21967ZM11 6H12.6289L11 4.37109V6Z" fill="currentColor"/>
<path fill-rule="evenodd" clip-rule="evenodd" d="M12.875 9C14.739 9 16.25 10.511 16.25 12.375C16.25 13.0355 16.0586 13.6506 15.7307 14.1709L16.7803 15.2205C17.0731 15.5133 17.0731 15.9881 16.7803 16.281V16.281C16.4874 16.5739 16.0126 16.5739 15.7197 16.281L14.6702 15.2314C14.15 15.559 13.5351 15.75 12.875 15.75C11.011 15.75 9.5 14.239 9.5 12.375C9.5 10.511 11.011 9 12.875 9ZM12.875 10.5C11.8395 10.5 11 11.3395 11 12.375C11 13.4105 11.8395 14.25 12.875 14.25C13.9105 14.25 14.75 13.4105 14.75 12.375C14.75 11.3395 13.9105 10.5 12.875 10.5Z" fill="currentColor"/>
</svg>
