<svg viewBox="0 0 24 24" fill="none" xmlns="http://www.w3.org/2000/svg">
<path fill-rule="evenodd" clip-rule="evenodd" d="M9.5 10.5C9.5 11.19 9.77957 11.8148 10.2316 12.2671C10.6281 12.6639 11.1572 12.928 11.7467 12.9873C11.83 12.9957 11.9145 13 12 13C12.0855 13 12.17 12.9957 12.2533 12.9873C12.8428 12.928 13.3719 12.6639 13.7684 12.2671C14.2204 11.8148 14.5 11.19 14.5 10.5C14.5 9.11929 13.3807 8 12 8C10.6193 8 9.5 9.11929 9.5 10.5ZM12.5 10.5C12.5 10.7761 12.2761 11 12 11C11.7239 11 11.5 10.7761 11.5 10.5C11.5 10.2239 11.7239 10 12 10C12.2761 10 12.5 10.2239 12.5 10.5Z" fill="currentColor"/>
<path fill-rule="evenodd" clip-rule="evenodd" d="M8 15.327C8 15.1283 8.1176 14.9485 8.29959 14.8689L8.79349 14.6528C10.8376 13.7585 13.1624 13.7585 15.2065 14.6528L15.7004 14.8689C15.8824 14.9485 16 15.1283 16 15.327V17.5C16 17.7761 15.7761 18 15.5 18H8.5C8.22386 18 8 17.7761 8 17.5V15.327ZM11.5372 16C11.8453 15.9761 12.1547 15.9761 12.4628 16H11.5372Z" fill="currentColor"/>
<path fill-rule="evenodd" clip-rule="evenodd" d="M4 4.5C4 4.22386 4.22386 4 4.5 4H9.5505C9.64782 3.52328 9.88304 3.08142 10.2322 2.73223C10.7011 2.26339 11.337 2 12 2C12.663 2 13.2989 2.26339 13.7678 2.73223C14.117 3.08142 14.3522 3.52328 14.4495 4H19.5C19.7761 4 20 4.22386 20 4.5V21.5C20 21.7761 19.7761 22 19.5 22H4.5C4.22386 22 4 21.7761 4 21.5V4.5ZM6 20V6H18V20H6Z" fill="currentColor"/>
</svg>
