<svg viewBox="0 0 24 24" fill="none" xmlns="http://www.w3.org/2000/svg">
<path d="M11.5747 19.8478C11.7699 20.0509 12.0942 20.0528 12.2917 19.852L17.7143 14.3389C17.8982 14.1519 18.0013 13.9001 18.0013 13.6377V11.8299C18.0013 11.6061 17.7298 11.4951 17.573 11.6548L12.9413 16.3702L12.9413 4.24866C12.9413 4.11059 12.8294 3.99866 12.6913 3.99866L11.1913 3.99866C11.0532 3.99866 10.9413 4.11059 10.9413 4.24866L10.9413 16.3875L6.43208 11.6693C6.2763 11.5064 6.00134 11.6166 6.00134 11.8421L6.00134 13.6445C6.00134 13.9028 6.10129 14.1511 6.28025 14.3374L11.5747 19.8478Z" fill="currentColor"/>
</svg>
