<svg viewBox="0 0 24 24" fill="none" xmlns="http://www.w3.org/2000/svg">
<path fill-rule="evenodd" clip-rule="evenodd" d="M6 16.3371V19H18V16.3371L17.6144 16.1691C14.0354 14.6103 9.96457 14.6103 6.38561 16.1691L6 16.3371ZM9.02066 13.2785C7.84968 13.4994 6.69762 13.8517 5.58697 14.3355L4.59919 14.7657C4.2352 14.9242 4 15.2823 4 15.6778V20.0044C4 20.5543 4.44771 21 5 21H19C19.5523 21 20 20.5543 20 20.0044V15.6778C20 15.2823 19.7648 14.9242 19.4008 14.7657L18.413 14.3355C17.3024 13.8517 16.1503 13.4994 14.9793 13.2785C13.9951 13.0928 12.9976 13 12 13C11.0024 13 10.0049 13.0928 9.02066 13.2785ZM9.41721 11.1855C10.1482 11.6987 11.0389 12 12 12C12.9611 12 13.8518 11.6987 14.5828 11.1855C15.7422 10.3714 16.5 9.02422 16.5 7.5C16.5 5.01472 14.4853 3 12 3C9.51472 3 7.5 5.01472 7.5 7.5C7.5 9.02422 8.25781 10.3714 9.41721 11.1855ZM12 10C13.3807 10 14.5 8.88071 14.5 7.5C14.5 6.11929 13.3807 5 12 5C10.6193 5 9.5 6.11929 9.5 7.5C9.5 8.88071 10.6193 10 12 10Z" fill="currentColor"/>
</svg>
