<svg viewBox="0 0 24 24" fill="none" xmlns="http://www.w3.org/2000/svg">
<path fill-rule="evenodd" clip-rule="evenodd" d="M20 15.9367L16 12.6034L10.1331 17.4925L6.94369 15.3662L4 17.1324V18H20V15.9367ZM20 13.3333V6H4V14.8L7 13L10 15L16 10L20 13.3333ZM7.27201 10.7776C7.17734 10.5386 7.125 10.2758 7.125 10C7.125 8.89543 7.96447 8 9 8C10.0355 8 10.875 8.89543 10.875 10C10.875 10.552 10.6653 11.0518 10.3263 11.4137C10.029 11.7311 9.63211 11.9424 9.18995 11.9899C9.16058 11.993 9.13101 11.9955 9.10127 11.9971C9.06774 11.999 9.03397 12 9 12C8.93588 12 8.87252 11.9966 8.81005 11.9899C8.47791 11.9542 8.17134 11.8261 7.9133 11.63C7.82783 11.5651 7.74769 11.4927 7.67371 11.4137C7.50407 11.2326 7.36681 11.017 7.27201 10.7776ZM2 4.5C2 4.22386 2.22386 4 2.5 4H21.5C21.7761 4 22 4.22386 22 4.5V19.5C22 19.7761 21.7761 20 21.5 20H2.5C2.22386 20 2 19.7761 2 19.5V4.5Z" fill="currentColor"/>
</svg>
