<svg viewBox="0 0 24 24" fill="none" xmlns="http://www.w3.org/2000/svg">
<path d="M14.12 10.3786C13.8439 10.3786 13.62 10.1548 13.62 9.87865V3.87865C13.62 3.60251 13.8439 3.37865 14.12 3.37865H15.12C15.3961 3.37865 15.62 3.60251 15.62 3.87865V6.96446L19.438 3.14645C19.6333 2.95118 19.9499 2.95118 20.1451 3.14645L20.8522 3.85355C21.0475 4.04882 21.0475 4.3654 20.8522 4.56066L17.0342 8.37865L20.12 8.37865C20.3961 8.37865 20.62 8.60251 20.62 8.87865V9.87865C20.62 10.1548 20.3961 10.3786 20.12 10.3786H14.12Z" fill="currentColor"/>
<path d="M14.12 13.62C13.8439 13.62 13.62 13.8439 13.62 14.12V20.12C13.62 20.3961 13.8439 20.62 14.12 20.62H15.12C15.3961 20.62 15.62 20.3961 15.62 20.12V17.0342L19.438 20.8522C19.6333 21.0475 19.9499 21.0475 20.1451 20.8522L20.8522 20.1451C21.0475 19.9498 21.0475 19.6333 20.8522 19.438L17.0342 15.62L20.12 15.62C20.3961 15.62 20.62 15.3961 20.62 15.12V14.12C20.62 13.8439 20.3961 13.62 20.12 13.62H14.12Z" fill="currentColor"/>
<path d="M9.87867 10.3786C10.1548 10.3786 10.3787 10.1548 10.3787 9.87865V3.87865C10.3787 3.60251 10.1548 3.37865 9.87867 3.37865H8.87867C8.60253 3.37865 8.37867 3.60251 8.37867 3.87865V6.96446L4.56066 3.14645C4.3654 2.95118 4.04882 2.95118 3.85355 3.14645L3.14645 3.85355C2.95118 4.04882 2.95118 4.3654 3.14645 4.56066L6.96444 8.37865L3.87867 8.37865C3.60253 8.37865 3.37867 8.60251 3.37867 8.87865V9.87865C3.37867 10.1548 3.60253 10.3786 3.87867 10.3786H9.87867Z" fill="currentColor"/>
<path d="M9.87867 13.6C10.1548 13.6 10.3787 13.8238 10.3787 14.1V20.1C10.3787 20.3761 10.1548 20.6 9.87867 20.6H8.87867C8.60253 20.6 8.37867 20.3761 8.37867 20.1V17.0142L4.56066 20.8322C4.3654 21.0274 4.04882 21.0274 3.85355 20.8322L3.14645 20.1251C2.95118 19.9298 2.95118 19.6132 3.14645 19.418L6.96444 15.6H3.87867C3.60253 15.6 3.37867 15.3761 3.37867 15.1V14.1C3.37867 13.8238 3.60253 13.6 3.87867 13.6H9.87867Z" fill="currentColor"/>
</svg>
