<svg viewBox="0 0 18 18" fill="none" xmlns="http://www.w3.org/2000/svg">
<path fill-rule="evenodd" clip-rule="evenodd" d="M16.5 6.75C16.5 7.7293 15.8734 8.55975 15 8.8689V13.75C15 14.8546 14.1046 15.75 13 15.75H5C3.89543 15.75 3 14.8546 3 13.75V8.8689C2.12661 8.55975 1.5 7.7293 1.5 6.75L3.19721 3.35557C3.536 2.678 4.22852 2.25 4.98607 2.25H13.0139C13.7715 2.25 14.464 2.678 14.8028 3.35557L16.5 6.75ZM4.5 12.75V14.25H13.5V12.75H4.5ZM9 8.16211C8.58759 8.67257 7.95758 8.99992 7.25024 9C6.54296 9 5.91223 8.67317 5.49976 8.16284C5.24076 8.48319 4.8958 8.73081 4.5 8.87109V11.25H13.5V8.87109C13.1039 8.73086 12.7586 8.48339 12.4995 8.16284C12.087 8.67296 11.4569 9 10.7498 9C10.0424 8.99992 9.41241 8.67257 9 8.16211ZM3.02197 6.92725C3.10168 7.25581 3.39692 7.5 3.75 7.5C3.98341 7.5 4.19198 7.39392 4.33301 7.21948L4.72197 6.73846C5.12228 6.24342 5.87712 6.24352 6.2773 6.73866L6.6665 7.22021C6.80705 7.39396 7.01618 7.5 7.25024 7.5C7.48326 7.49992 7.69204 7.39426 7.83325 7.21948L8.2221 6.73812C8.62235 6.24264 9.37765 6.24264 9.7779 6.73812L10.1667 7.21948C10.308 7.39426 10.5167 7.49992 10.7498 7.5C10.983 7.5 11.1917 7.39397 11.3328 7.21948L11.7217 6.73846C12.122 6.24342 12.8769 6.24352 13.2771 6.73866L13.6663 7.22021C13.8067 7.39395 14.0158 7.5 14.25 7.5C14.603 7.5 14.8975 7.25573 14.9773 6.92725L13.1689 3.75H4.83105L3.02197 6.92725Z" fill="currentColor"/>
</svg>
