<svg viewBox="0 0 24 24" fill="none" xmlns="http://www.w3.org/2000/svg">
<path fill-rule="evenodd" clip-rule="evenodd" d="M9.99996 4C9.99996 2.89543 10.8954 2 12 2C13.1045 2 14 2.89543 14 4V4.34141C16.3303 5.16508 18 7.38756 18 10V16L19.8762 18.1733C20.1559 18.4972 19.9258 19 19.4977 19H4.50219C4.07418 19 3.84402 18.4972 4.12372 18.1733L5.99996 16V10C5.99996 7.38756 7.66958 5.16508 9.99996 4.34141V4ZM16 10V17H7.99996V10C7.99996 7.79086 9.79083 6 12 6C14.2091 6 16 7.79086 16 10Z" fill="currentColor"/>
<path d="M14 20C14 20.2626 13.9482 20.5227 13.8477 20.7654C13.7472 21.008 13.5999 21.2285 13.4142 21.4142C13.2285 21.5999 13.008 21.7472 12.7653 21.8478C12.5227 21.9483 12.2626 22 12 22C11.7373 22 11.4772 21.9483 11.2346 21.8478C10.9919 21.7472 10.7715 21.5999 10.5858 21.4142C10.4 21.2285 10.2527 21.008 10.1522 20.7654C10.0517 20.5227 9.99996 20.2626 9.99996 20H14Z" fill="currentColor"/>
</svg>
