<svg viewBox="0 0 24 24" fill="none" xmlns="http://www.w3.org/2000/svg">
<path fill-rule="evenodd" clip-rule="evenodd" d="M18.8336 19.8943C18.736 19.9919 18.5777 19.9919 18.4801 19.8943L4.10569 5.51991C4.00806 5.42228 4.00806 5.26399 4.10569 5.16636L5.16635 4.1057C5.26399 4.00807 5.42228 4.00807 5.51991 4.1057L19.8943 18.4801C19.9919 18.5777 19.9919 18.736 19.8943 18.8336L18.8336 19.8943Z" fill="currentColor"/>
<path fill-rule="evenodd" clip-rule="evenodd" d="M4.10569 18.8336C4.00806 18.736 4.00806 18.5777 4.10569 18.4801L18.4801 4.10569C18.5777 4.00806 18.736 4.00806 18.8336 4.10569L19.8943 5.16635C19.9919 5.26399 19.9919 5.42228 19.8943 5.51991L5.51991 19.8943C5.42228 19.9919 5.26398 19.9919 5.16635 19.8943L4.10569 18.8336Z" fill="currentColor"/>
</svg>
