<svg viewBox="0 0 18 18" fill="none" xmlns="http://www.w3.org/2000/svg">
<path d="M9.10693 8.625C9.3104 8.625 9.47534 8.78994 9.47534 8.99341C9.92615 9.08611 10.2644 9.32696 10.4246 9.66357C10.532 9.88952 10.321 10.1045 10.0708 10.1045C9.83802 10.1044 9.64356 9.89352 9.44824 9.76685C9.34508 9.69998 9.21051 9.66144 9.05859 9.66138C8.72791 9.66138 8.51001 9.81738 8.51001 10.0635C8.51001 10.266 8.67407 10.3843 9.06372 10.4612L9.54053 10.5535C10.2708 10.6945 10.5989 11.0249 10.5989 11.6118C10.5989 12.2599 10.1826 12.691 9.47534 12.813C9.47534 12.9853 9.33565 13.125 9.16333 13.125H9.01904C8.85684 13.125 8.72534 12.9935 8.72534 12.8313C8.17561 12.7659 7.78117 12.5254 7.604 12.1545C7.49221 11.9204 7.71368 11.6968 7.97314 11.6968C8.21309 11.6969 8.4184 11.9141 8.62646 12.0337C8.74291 12.1005 8.898 12.1377 9.0791 12.1377C9.4301 12.1376 9.6709 11.9681 9.6709 11.7246C9.6709 11.5195 9.5094 11.4093 9.08643 11.3247L8.59937 11.2273C7.92275 11.0991 7.57412 10.7301 7.57397 10.1484C7.57397 9.51612 8.01724 9.07376 8.72534 8.9729C8.72534 8.78076 8.8811 8.625 9.07324 8.625H9.10693Z" fill="currentColor"/>
<path fill-rule="evenodd" clip-rule="evenodd" d="M12.75 3C12.75 4.08716 12.2865 5.06532 11.5474 5.75024C12.3723 6.08648 13.1311 6.58468 13.7732 7.22681C15.0391 8.49268 15.75 10.2098 15.75 12V12.75C15.75 13.7446 15.3546 14.6981 14.6514 15.4014C13.9481 16.1046 12.9946 16.5 12 16.5H6C5.00544 16.5 4.05189 16.1046 3.34863 15.4014C2.64537 14.6981 2.25 13.7446 2.25 12.75V12C2.25 10.2098 2.96094 8.49268 4.22681 7.22681C4.86884 6.58477 5.62705 6.08569 6.4519 5.74951C5.75724 5.10533 5.30621 4.20208 5.25513 3.19263L5.25 3C5.25 2.17157 5.92157 1.5 6.75 1.5H11.25C12.0784 1.5 12.75 2.17157 12.75 3ZM9 6.75C7.60761 6.75 6.27192 7.30279 5.28735 8.28735C4.30279 9.27192 3.75 10.6076 3.75 12V12.75C3.75 13.3467 3.98722 13.9189 4.40918 14.3408C4.83114 14.7628 5.40326 15 6 15H12C12.5967 15 13.1689 14.7628 13.5908 14.3408C14.0128 13.9189 14.25 13.3467 14.25 12.75V12C14.25 10.6076 13.6972 9.27192 12.7126 8.28735C11.7895 7.36425 10.5577 6.82089 9.26001 6.75659L9 6.75ZM6.75 3C6.75 4.24264 7.75736 5.25 9 5.25C10.2426 5.25 11.25 4.24264 11.25 3H6.75Z" fill="currentColor"/>
</svg>
