<svg viewBox="0 0 24 24" fill="none" xmlns="http://www.w3.org/2000/svg">
<path d="M6 4V18L6.5 17.625C7.38889 16.9583 8.61111 16.9583 9.5 17.625L12 19.5L14.5 17.625C15.3889 16.9583 16.6111 16.9583 17.5 17.625L18 18V4H15.25C15.1119 4 15 3.88807 15 3.75V2.25C15 2.11193 15.1119 2 15.25 2H19.5C19.7761 2 20 2.22386 20 2.5V21C20 21.412 19.5296 21.6472 19.2 21.4L16.3 19.225C16.1222 19.0917 15.8778 19.0917 15.7 19.225L12.3 21.775C12.1222 21.9083 11.8778 21.9083 11.7 21.775L8.3 19.225C8.12222 19.0917 7.87778 19.0917 7.7 19.225L4.8 21.4C4.47038 21.6472 4 21.412 4 21V2.5C4 2.22386 4.22386 2 4.5 2H8.75C8.88807 2 9 2.11193 9 2.25V3.75C9 3.88807 8.88807 4 8.75 4H6Z" fill="currentColor"/>
<path d="M15.7915 7.39921C15.8703 7.32046 16.0049 7.37624 16.0049 7.4876V9.80714C16.0049 9.93975 15.9522 10.0669 15.8585 10.1607L12.1817 13.8374C12.084 13.9351 11.9258 13.9351 11.8281 13.8374L8.14645 10.1558C8.05268 10.062 8 9.93482 8 9.80221V7.48267C8 7.37131 8.13464 7.31554 8.21339 7.39428L11.0049 10.1858V2.25C11.0049 2.11193 11.1169 2 11.2549 2H12.7549C12.893 2 13.0049 2.11193 13.0049 2.25V10.1858L15.7915 7.39921Z" fill="currentColor"/>
</svg>
