<svg viewBox="0 0 18 18" fill="none" xmlns="http://www.w3.org/2000/svg">
<path fill-rule="evenodd" clip-rule="evenodd" d="M7.86768 1.50806C11.0677 1.67015 13.6128 4.31607 13.6128 7.5564L13.6047 7.86768C13.5398 9.14967 13.0747 10.3254 12.334 11.2756L15.9705 14.9128C16.2634 15.2057 16.2633 15.6805 15.9705 15.9734V15.9734C15.6776 16.2662 15.2028 16.2662 14.9099 15.9734L11.2734 12.3369C10.2473 13.136 8.95769 13.6128 7.5564 13.6128L7.24438 13.6047C4.14769 13.4477 1.66492 10.9644 1.50806 7.86768L1.5 7.5564C1.5 4.21162 4.21162 1.5 7.5564 1.5L7.86768 1.50806ZM7.5564 3C5.04005 3 3 5.04005 3 7.5564C3.00008 10.0727 5.0401 12.1128 7.5564 12.1128C10.0726 12.1127 12.1127 10.0726 12.1128 7.5564C12.1128 5.0401 10.0727 3.00008 7.5564 3Z" fill="currentColor"/>
<path fill-rule="evenodd" clip-rule="evenodd" d="M7.5 10.5C7.08579 10.5 6.75 10.1642 6.75 9.75L6.75 5.25C6.75 4.83579 7.08579 4.5 7.5 4.5V4.5C7.91421 4.5 8.25 4.83579 8.25 5.25L8.25 9.75C8.25 10.1642 7.91421 10.5 7.5 10.5V10.5Z" fill="currentColor"/>
<path fill-rule="evenodd" clip-rule="evenodd" d="M4.5 7.5C4.5 7.08579 4.83579 6.75 5.25 6.75L9.75 6.75C10.1642 6.75 10.5 7.08579 10.5 7.5V7.5C10.5 7.91421 10.1642 8.25 9.75 8.25L5.25 8.25C4.83579 8.25 4.5 7.91421 4.5 7.5V7.5Z" fill="currentColor"/>
</svg>
