<svg viewBox="0 0 64 64" fill="none" xmlns="http://www.w3.org/2000/svg">
<path d="M19.5557 33.8099C19.5558 35.8791 21.1391 37.5777 23.1602 37.7621C23.299 37.8002 23.4505 37.8357 23.6152 37.8685L25.0723 38.1537C27.3038 38.589 28.3066 39.6088 28.3066 41.4203C28.3066 43.4205 27.0343 44.7508 24.873 45.1273C24.873 45.6592 24.442 46.0902 23.9102 46.0902H23.4883C22.9876 46.0902 22.5811 45.6846 22.5811 45.184C20.884 44.98 19.6727 44.2237 19.1396 43.059C18.8158 42.3508 19.4781 41.682 20.2568 41.682H20.3037C21.0248 41.682 21.6354 42.3341 22.2529 42.7064C22.6115 42.9225 23.095 43.0433 23.6621 43.0433C24.7346 43.043 25.4707 42.5193 25.4707 41.7679C25.4705 41.1352 24.9768 40.7946 23.6846 40.5336L22.1963 40.2338C20.1289 39.8382 19.064 38.6989 19.0635 36.9037C19.0635 36.7369 19.0733 36.5743 19.0928 36.4164C15.716 35.1483 20.0981 32.4505 19.4424 29.8861H15.165C14.759 31.4739 13.941 32.9392 12.7734 34.1185C11.606 35.2978 10.1558 36.1244 8.58398 36.5345V41.7592C10.1556 42.1694 11.6061 42.9941 12.7734 44.1732C13.941 45.3526 14.759 46.8178 15.165 48.4056H31.7246C32.1306 46.8178 32.9496 45.3526 34.1172 44.1732C35.2846 42.9941 36.735 42.1693 38.3066 41.7592V37.8685C38.1805 37.8356 38.0249 37.8073 37.8438 37.7797H42.8896V50.2572C42.8896 51.7913 41.6464 53.0354 40.1123 53.0355H6.77832C5.24416 53.0355 4 51.7914 4 50.2572V28.0345C4.00002 26.5004 5.24417 25.2572 6.77832 25.2572H19.5557V33.8099ZM42.8896 28.0287V28.0345C42.8896 28.0051 42.8857 27.9759 42.8848 27.9467C42.8856 27.9739 42.8896 28.0012 42.8896 28.0287ZM21.9814 36.975C26.7953 37.4941 35.1659 37.3709 37.8438 37.7797H23.5254C23.4022 37.7797 23.2805 37.7731 23.1602 37.7621C22.4894 37.5781 22.1156 37.329 21.9814 36.975ZM42.876 27.7504C42.8826 27.8151 42.8827 27.8807 42.8848 27.9467C42.8828 27.8787 42.8818 27.8112 42.875 27.7445L42.876 27.7504ZM40.1123 25.2513C41.5441 25.2516 42.7215 26.3351 42.8721 27.7269C42.7189 26.3377 41.5423 25.2573 40.1123 25.2572H19.5557V25.2513H40.1123Z" fill="#909090"/>
<path fill-rule="evenodd" clip-rule="evenodd" d="M19.5244 9.83966C17.332 9.83966 15.5547 11.617 15.5547 13.8094V33.6484C15.5547 35.8408 17.332 37.6181 19.5244 37.6181H50.4767C52.6691 37.6181 54.4465 35.8408 54.4465 33.6484V13.8094C54.4465 11.617 52.6691 9.83966 50.4767 9.83966H19.5244ZM50.4767 33.6581H19.5244V21.7489H50.4767V33.6581ZM50.4767 17.7791H19.5244V13.8094H50.4767V17.7791Z" fill="#3A3A3A"/>
<path d="M21.5093 28.6959C21.5093 27.0516 22.8423 25.7186 24.4866 25.7186H26.4715C28.1158 25.7186 29.4488 27.0516 29.4488 28.6959C29.4488 30.3402 28.1158 31.6732 26.4715 31.6732H24.4866C22.8423 31.6732 21.5093 30.3402 21.5093 28.6959Z" fill="#3A3A3A"/>
<rect x="36" y="24.1115" width="24" height="24" rx="12" fill="#366EE6"/>
<path d="M53.4444 29.8892C53.4444 29.4597 53.7927 29.1115 54.2222 29.1115C54.6518 29.1115 55 29.4597 55 29.8892V33.6485C55 34.1496 54.5937 34.5559 54.0926 34.5559H50.3333C49.9038 34.5559 49.5555 34.2077 49.5555 33.7781C49.5555 33.3486 49.9038 33.0003 50.3333 33.0003H52.468C51.9056 32.1927 51.1306 31.5468 50.2198 31.1401C48.9819 30.5873 47.5822 30.5163 46.2946 30.941C45.0071 31.3657 43.9243 32.2554 43.2581 33.4363C42.592 34.6171 42.3903 36.004 42.6927 37.3256C42.995 38.6472 43.7796 39.8085 44.8929 40.5822C46.0062 41.3559 47.3682 41.6865 48.7123 41.5091C50.0564 41.3317 51.286 40.6592 52.1605 39.6232C52.6724 39.0167 53.0411 38.3113 53.2486 37.5587C53.353 37.18 53.6802 36.8892 54.0731 36.8892C54.5444 36.8892 54.9143 37.3008 54.8034 37.7589C54.5498 38.8063 54.0555 39.7897 53.3492 40.6265C52.2249 41.9586 50.644 42.8232 48.9158 43.0513C47.1877 43.2793 45.4366 42.8544 44.0052 41.8596C42.5738 40.8648 41.565 39.3717 41.1763 37.6725C40.7876 35.9733 41.0468 34.1901 41.9033 32.6719C42.7598 31.1537 44.152 30.0097 45.8074 29.4637C47.4628 28.9177 49.2624 29.009 50.8541 29.7197C51.8706 30.1736 52.7556 30.8593 53.4444 31.7116V29.8892Z" fill="white"/>
</svg>
