<svg viewBox="0 0 24 24" fill="none" xmlns="http://www.w3.org/2000/svg">
<path fill-rule="evenodd" clip-rule="evenodd" d="M12 22C17.5228 22 22 17.5228 22 12C22 6.47715 17.5228 2 12 2C6.47715 2 2 6.47715 2 12C2 17.5228 6.47715 22 12 22ZM14.5639 8.58501C14.4131 8.58501 14.2704 8.65305 14.1754 8.7702L11.1084 12.5547L9.84706 11.069C9.75206 10.9571 9.61269 10.8926 9.4659 10.8926H7.64348C7.43044 10.8926 7.31502 11.142 7.4529 11.3044L10.7522 15.1905C10.9549 15.4292 11.3246 15.425 11.5218 15.1818L16.5404 8.99246C16.6729 8.82904 16.5566 8.58501 16.3462 8.58501H14.5639Z" fill="currentColor"/>
</svg>
