<svg viewBox="0 0 64 64" fill="none" xmlns="http://www.w3.org/2000/svg">
<path fill-rule="evenodd" clip-rule="evenodd" d="M32 5.33301C46.7276 5.33301 58.6667 17.2721 58.6667 31.9997C58.6667 46.7273 46.7276 58.6663 32 58.6663C17.2724 58.6663 5.33333 46.7273 5.33333 31.9997C5.33333 17.2721 17.2724 5.33301 32 5.33301ZM18.2656 48.32C21.977 51.4465 26.7674 53.333 32 53.333C43.7821 53.333 53.3333 43.7818 53.3333 31.9997C53.3333 26.7671 51.4468 21.9767 48.3203 18.2653L18.2656 48.32ZM32 10.6663C20.2179 10.6663 10.6667 20.2176 10.6667 31.9997C10.6667 36.6253 12.1444 40.9031 14.6458 44.3981L44.3984 14.6455C40.9035 12.1441 36.6257 10.6663 32 10.6663Z" fill="currentColor"/>
</svg>
