<svg viewBox="0 0 24 24" fill="none" xmlns="http://www.w3.org/2000/svg">
<path fill-rule="evenodd" clip-rule="evenodd" d="M5 15V19H9V15H5ZM11 20.5V13.5C11 13.2239 10.7761 13 10.5 13H3.5C3.22386 13 3 13.2239 3 13.5V20.5C3 20.7761 3.22386 21 3.5 21H10.5C10.7761 21 11 20.7761 11 20.5ZM11 10.5V3.5C11 3.22386 10.7761 3 10.5 3H3.5C3.22386 3 3 3.22386 3 3.5V10.5C3 10.7761 3.22386 11 3.5 11H10.5C10.7761 11 11 10.7761 11 10.5ZM20.5 13H13.5C13.2239 13 13 13.2239 13 13.5V20.5C13 20.7761 13.2239 21 13.5 21H20.5C20.7761 21 21 20.7761 21 20.5V13.5C21 13.2239 20.7761 13 20.5 13ZM5 5H9V9H5V5ZM15 15V19H19V15H15ZM15 5V9H19V5H15ZM13.5 3C13.2239 3 13 3.22386 13 3.5V10.5C13 10.7761 13.2239 11 13.5 11H20.5C20.7761 11 21 10.7761 21 10.5V3.5C21 3.22386 20.7761 3 20.5 3H13.5Z" fill="currentColor"/>
<path d="M15 9V5H19V9H15Z" fill="currentColor"/>
<path d="M15 19V15H19V19H15Z" fill="currentColor"/>
<path d="M5 19V15H9V19H5Z" fill="currentColor"/>
<path d="M5 5H9V9H5V5Z" fill="currentColor"/>
</svg>
