<svg viewBox="0 0 24 24" fill="none" xmlns="http://www.w3.org/2000/svg">
<path fill-rule="evenodd" clip-rule="evenodd" d="M10 3C14.4183 3 18 6.58172 18 11C18 12.7263 17.4532 14.3248 16.5234 15.632L21.8131 20.3339C21.9163 20.4256 21.9256 20.5837 21.8339 20.6868L20.8373 21.808C20.7456 21.9112 20.5876 21.9205 20.4844 21.8287L15.1702 17.105C13.7758 18.2871 11.9712 19 10 19C5.58172 19 2 15.4183 2 11C2 6.58172 5.58172 3 10 3ZM10 17C13.3137 17 16 14.3137 16 11C16 7.68629 13.3137 5 10 5C6.68629 5 4 7.68629 4 11C4 14.3137 6.68629 17 10 17Z" fill="currentColor"/>
</svg>
