<svg viewBox="0 0 24 24" fill="none" xmlns="http://www.w3.org/2000/svg">
<path fill-rule="evenodd" clip-rule="evenodd" d="M11.7929 2C11.9255 2 12.0527 2.05268 12.1464 2.14645L21.6464 11.6464C21.8417 11.8417 21.8417 12.1583 21.6464 12.3536L12.3536 21.6464C12.1583 21.8417 11.8417 21.8417 11.6464 21.6464L2.14645 12.1464C2.05268 12.0527 2 11.9255 2 11.7929V2.5C2 2.22386 2.22386 2 2.5 2H11.7929ZM10 8C10 9.10457 9.10457 10 8 10C6.89543 10 6 9.10457 6 8C6 6.89543 6.89543 6 8 6C9.10457 6 10 6.89543 10 8Z" fill="currentColor"/>
</svg>
