<svg width="24" height="24" viewBox="0 0 24 24" fill="none" xmlns="http://www.w3.org/2000/svg">
<path d="M5 19V5H9.75C9.88807 5 10 4.88807 10 4.75V3.25C10 3.11193 9.88807 3 9.75 3H3.5C3.22386 3 3 3.22386 3 3.5V20.5C3 20.7761 3.22386 21 3.5 21H20.5C20.7761 21 21 20.7761 21 20.5V14.25C21 14.1119 20.8881 14 20.75 14H19.25C19.1119 14 19 14.1119 19 14.25V19H5Z" fill="black"/>
<path d="M19 6.41431L13.5911 11.8232C13.4935 11.9209 13.3352 11.9209 13.2375 11.8232L12.1769 10.7626C12.0792 10.6649 12.0792 10.5066 12.1769 10.409L17.5859 5H12.25C12.1119 5 12 4.88807 12 4.75V3.25C12 3.11193 12.1119 3 12.25 3H20.5C20.7761 3 21 3.22386 21 3.5V11.75C21 11.8881 20.8881 12 20.75 12H19.25C19.1119 12 19 11.8881 19 11.75V6.41431Z" fill="black"/>
</svg>
