<svg viewBox="0 0 18 18" fill="none" xmlns="http://www.w3.org/2000/svg">
<path fill-rule="evenodd" clip-rule="evenodd" d="M12 3.25C12 3.52614 11.7761 3.75 11.5 3.75H9.75V4.5542C9.76839 4.55685 9.78657 4.56087 9.80493 4.56372C9.87695 4.5749 9.94879 4.58691 10.0203 4.60107C10.0469 4.60635 10.0735 4.6115 10.1001 4.61719C10.1944 4.6374 10.2882 4.65991 10.3813 4.6853C10.3924 4.68831 10.4033 4.69174 10.4143 4.69482C10.4994 4.71864 10.5838 4.74507 10.6677 4.77319C10.6885 4.78016 10.7093 4.78721 10.73 4.79443C10.8238 4.82718 10.917 4.86179 11.009 4.8999C11.646 5.16374 12.2252 5.54986 12.7126 6.03735C13.2001 6.52485 13.5863 7.10403 13.8501 7.74097C13.9192 7.90775 13.9796 8.07765 14.031 8.25H15.75C16.1642 8.25 16.5 8.58579 16.5 9C16.5 9.41421 16.1642 9.75 15.75 9.75V15C16.1642 15 16.5 15.3358 16.5 15.75C16.5 16.1642 16.1642 16.5 15.75 16.5H2.25C1.83579 16.5 1.5 16.1642 1.5 15.75C1.5 15.3358 1.83579 15 2.25 15V9.75C1.83579 9.75 1.5 9.41421 1.5 9C1.5 8.58579 1.83579 8.25 2.25 8.25H3.96899C3.97235 8.23875 3.97582 8.22754 3.97925 8.21631C3.99418 8.16744 4.01049 8.11901 4.02686 8.07056C4.06437 7.95958 4.10495 7.84949 4.1499 7.74097C4.41374 7.10403 4.79986 6.52485 5.28735 6.03735C5.34236 5.98235 5.39851 5.92861 5.45581 5.87622C5.48109 5.8531 5.507 5.83071 5.53271 5.80811C5.57148 5.77404 5.61018 5.73991 5.6499 5.70703C5.67534 5.68597 5.70172 5.66608 5.72754 5.64551C5.76087 5.61897 5.79393 5.59211 5.82788 5.56641C5.86031 5.54184 5.89304 5.51769 5.92603 5.4939C5.95987 5.46949 5.99415 5.44571 6.02856 5.42212C6.06207 5.39914 6.09561 5.3762 6.12964 5.354C6.1596 5.33447 6.1901 5.31579 6.22046 5.29688C6.25979 5.27235 6.29913 5.24784 6.33911 5.22437C6.36634 5.20837 6.39435 5.19373 6.42188 5.17822C6.46329 5.15489 6.50433 5.13086 6.54639 5.10864C6.61508 5.07236 6.6848 5.03791 6.75513 5.00464L6.99097 4.8999C7.08519 4.86087 7.18051 4.82491 7.27661 4.7915C7.29988 4.78342 7.32355 4.77655 7.34692 4.7688C7.41712 4.74549 7.48755 4.72318 7.55859 4.70288C7.59124 4.69356 7.62393 4.68446 7.65674 4.67578C7.72449 4.65783 7.7927 4.64193 7.86108 4.62671C7.89138 4.61998 7.92149 4.6124 7.9519 4.6062C8.04811 4.58658 8.14476 4.56913 8.24194 4.55493C8.24461 4.55454 8.24733 4.55458 8.25 4.5542V2C8.25 1.72386 8.47386 1.5 8.75 1.5H11.5C11.7761 1.5 12 1.72386 12 2V3.25ZM3.75 9.75V15H5.25V11.25C5.25 10.8358 5.58579 10.5 6 10.5C6.41421 10.5 6.75 10.8358 6.75 11.25V15H8.25V11.25C8.25 10.8358 8.58579 10.5 9 10.5C9.41421 10.5 9.75 10.8358 9.75 11.25V15H11.25V11.25C11.25 10.8358 11.5858 10.5 12 10.5C12.4142 10.5 12.75 10.8358 12.75 11.25V15H14.25V9.75H3.75ZM9 6C8.81844 6 8.63758 6.01342 8.45874 6.03955C8.15247 6.08425 7.85212 6.16681 7.56519 6.28564C7.50835 6.30919 7.4522 6.33414 7.39673 6.36035C7.00799 6.54426 6.65336 6.7939 6.34863 7.09863C6.01716 7.4301 5.7516 7.82077 5.56421 8.25H12.4358C12.2484 7.82077 11.9828 7.4301 11.6514 7.09863C11.3466 6.7939 10.992 6.54426 10.6033 6.36035C10.5478 6.33414 10.4916 6.30919 10.4348 6.28564C10.1477 6.16672 9.84704 6.08423 9.54053 6.03955C9.36192 6.01349 9.18132 6 9 6Z" fill="currentColor"/>
</svg>
