<svg viewBox="0 0 24 24" fill="none" xmlns="http://www.w3.org/2000/svg">
<path fill-rule="evenodd" clip-rule="evenodd" d="M12 21C16.9706 21 21 16.9706 21 12C21 7.02944 16.9706 3 12 3C7.02944 3 3 7.02944 3 12C3 16.9706 7.02944 21 12 21ZM12 19C15.866 19 19 15.866 19 12C19 8.13401 15.866 5 12 5C8.13401 5 5 8.13401 5 12C5 15.866 8.13401 19 12 19Z" fill="currentColor"/>
<path d="M12.75 13C12.8881 13 13 12.8881 13 12.75V8.25C13 8.11193 12.8881 8 12.75 8H11.25C11.1119 8 11 8.11193 11 8.25V12.75C11 12.8881 11.1119 13 11.25 13H12.75Z" fill="currentColor"/>
<path d="M13 15.75C13 15.8881 12.8881 16 12.75 16H11.25C11.1119 16 11 15.8881 11 15.75V14.25C11 14.1119 11.1119 14 11.25 14H12.75C12.8881 14 13 14.1119 13 14.25V15.75Z" fill="currentColor"/>
</svg>
