<svg viewBox="0 0 24 24" fill="none" xmlns="http://www.w3.org/2000/svg">
<path d="M6 2.5C6 2.22386 6.22386 2 6.5 2H9.5C9.77614 2 10 2.22386 10 2.5V5.5C10 5.77614 9.77614 6 9.5 6H6.5C6.22386 6 6 5.77614 6 5.5V2.5Z" fill="currentColor"/>
<path d="M6 10.5C6 10.2239 6.22386 10 6.5 10H9.5C9.77614 10 10 10.2239 10 10.5V13.5C10 13.7761 9.77614 14 9.5 14H6.5C6.22386 14 6 13.7761 6 13.5V10.5Z" fill="currentColor"/>
<path d="M6 18.5C6 18.2239 6.22386 18 6.5 18H9.5C9.77614 18 10 18.2239 10 18.5V21.5C10 21.7761 9.77614 22 9.5 22H6.5C6.22386 22 6 21.7761 6 21.5V18.5Z" fill="currentColor"/>
<path d="M14 2.5C14 2.22386 14.2239 2 14.5 2H17.5C17.7761 2 18 2.22386 18 2.5V5.5C18 5.77614 17.7761 6 17.5 6H14.5C14.2239 6 14 5.77614 14 5.5V2.5Z" fill="currentColor"/>
<path d="M14 10.5C14 10.2239 14.2239 10 14.5 10H17.5C17.7761 10 18 10.2239 18 10.5V13.5C18 13.7761 17.7761 14 17.5 14H14.5C14.2239 14 14 13.7761 14 13.5V10.5Z" fill="currentColor"/>
<path d="M14 18.5C14 18.2239 14.2239 18 14.5 18H17.5C17.7761 18 18 18.2239 18 18.5V21.5C18 21.7761 17.7761 22 17.5 22H14.5C14.2239 22 14 21.7761 14 21.5V18.5Z" fill="currentColor"/>
</svg>
