<svg viewBox="0 0 24 24" fill="none" xmlns="http://www.w3.org/2000/svg">
<path fill-rule="evenodd" clip-rule="evenodd" d="M11.6524 2.33631C11.8463 2.1488 12.1539 2.1488 12.3477 2.33631L14.4722 4.39155L17.399 3.97757C17.666 3.9398 17.9149 4.12062 17.9615 4.38626L18.4722 7.29772L21.0833 8.68312C21.3216 8.80953 21.4166 9.10209 21.2982 9.34439L20.0001 12L21.2982 14.6556C21.4166 14.8979 21.3216 15.1905 21.0833 15.3169L18.4722 16.7023L17.9615 19.6137C17.9149 19.8794 17.666 20.0602 17.399 20.0224L14.4722 19.6085L12.3477 21.6637C12.1539 21.8512 11.8463 21.8512 11.6524 21.6637L9.52793 19.6085L6.60115 20.0224C6.33411 20.0602 6.08524 19.8794 6.03864 19.6137L5.52793 16.7023L2.91679 15.3169C2.67855 15.1905 2.58349 14.8979 2.70193 14.6556L4.00007 12L2.70193 9.34439C2.58349 9.1021 2.67855 8.80953 2.91679 8.68312L5.52793 7.29772L6.03864 4.38626C6.08524 4.12062 6.33411 3.9398 6.60115 3.97757L9.52793 4.39155L11.6524 2.33631ZM16.2841 6.3993C16.2608 6.26648 16.1363 6.17607 16.0028 6.19496L13.7843 6.50876L12.1739 4.95086C12.077 4.85711 11.9232 4.85711 11.8262 4.95086L10.2159 6.50876L7.99732 6.19496C7.8638 6.17607 7.73936 6.26648 7.71606 6.3993L7.32894 8.60623L5.34966 9.65638C5.23054 9.71958 5.18301 9.86587 5.24223 9.98701L6.22623 12L5.24223 14.013C5.18301 14.1341 5.23054 14.2804 5.34966 14.3436L7.32894 15.3938L7.71606 17.6007C7.73936 17.7335 7.8638 17.8239 7.99732 17.805L10.2159 17.4912L11.8262 19.0491C11.9232 19.1429 12.077 19.1429 12.1739 19.0491L13.7843 17.4912L16.0028 17.805C16.1363 17.8239 16.2608 17.7335 16.2841 17.6007L16.6712 15.3938L18.6505 14.3436C18.7696 14.2804 18.8171 14.1341 18.7579 14.013L17.7739 12L18.7579 9.98701C18.8171 9.86587 18.7696 9.71958 18.6505 9.65638L16.6712 8.60623L16.2841 6.3993Z" fill="currentColor"/>
<path fill-rule="evenodd" clip-rule="evenodd" d="M13.7843 6.50876L16.0028 6.19496C16.1363 6.17607 16.2608 6.26648 16.2841 6.3993L16.6712 8.60623L18.6505 9.65638C18.7696 9.71958 18.8171 9.86587 18.7579 9.98701L17.7739 12L18.7579 14.013C18.8171 14.1341 18.7696 14.2804 18.6505 14.3436L16.6712 15.3938L16.2841 17.6007C16.2608 17.7335 16.1363 17.8239 16.0028 17.805L13.7843 17.4912L12.1739 19.0491C12.077 19.1429 11.9232 19.1429 11.8262 19.0491L10.2159 17.4912L7.99732 17.805C7.8638 17.8239 7.73936 17.7335 7.71606 17.6007L7.32894 15.3938L5.34966 14.3436C5.23054 14.2804 5.18301 14.1341 5.24223 14.013L6.22623 12L5.24223 9.98701C5.18301 9.86587 5.23054 9.71958 5.34966 9.65638L7.32894 8.60623L7.71606 6.3993C7.73936 6.26648 7.8638 6.17607 7.99732 6.19496L10.2159 6.50876L11.8262 4.95086C11.9232 4.85711 12.077 4.85711 12.1739 4.95086L13.7843 6.50876ZM14.564 8.58496C14.4132 8.58496 14.2705 8.65301 14.1755 8.77015L11.1085 12.5546L9.84714 11.069C9.75214 10.9571 9.61277 10.8926 9.46598 10.8926H7.64355C7.43052 10.8926 7.3151 11.142 7.45298 11.3044L10.7523 15.1905C10.955 15.4291 11.3246 15.425 11.5218 15.1818L16.5405 8.99242C16.673 8.829 16.5567 8.58496 16.3463 8.58496H14.564Z" fill="currentColor"/>
</svg>
