<svg width="24" height="24" viewBox="0 0 24 24" fill="none" xmlns="http://www.w3.org/2000/svg">
<path fill-rule="evenodd" clip-rule="evenodd" d="M10.3955 10.8209L6.51743 11.375L9.18454 13.7754L8.36146 17.8907L12 15.6516L15.6385 17.8907L14.8155 13.7754L17.4826 11.375L13.6045 10.8209L12 7.07718L10.3955 10.8209ZM9 9L3.05865 9.84876C2.63868 9.90876 2.47954 10.4316 2.79488 10.7154L7 14.5L5.72508 20.8746C5.63942 21.3029 6.10546 21.6274 6.47741 21.3985L12 18L17.5226 21.3985C17.8945 21.6274 18.3606 21.3029 18.2749 20.8746L17 14.5L21.2051 10.7154C21.5205 10.4316 21.3613 9.90876 20.9414 9.84876L15 9L12.4596 3.07234C12.2864 2.66828 11.7136 2.66828 11.5404 3.07234L9 9Z" fill="black"/>
</svg>
