<svg viewBox="0 0 24 24" fill="none" xmlns="http://www.w3.org/2000/svg">
<path d="M3.37141 8.34426C3.20478 8.25168 3 8.37217 3 8.56279L3 16.191C3 16.3804 3.10701 16.5535 3.2764 16.6382L10.6381 20.319C10.8043 20.4021 10.9999 20.2813 10.9999 20.0954L10.9999 12.8823C10.9999 12.7008 10.9016 12.5336 10.743 12.4454L5 9.24906L3.37141 8.34426Z" fill="currentColor"/>
<path d="M12.9999 20.0955C12.9999 20.2814 13.1955 20.4023 13.3617 20.3191L20.7236 16.6382C20.893 16.5535 21 16.3804 21 16.191L21 8.56656C21 8.37582 20.795 8.25534 20.6284 8.34815L19 9.25505L13.2572 12.4455C13.0984 12.5337 13 12.701 13 12.8826L12.9999 20.0955Z" fill="currentColor"/>
<path d="M12.4061 3.18049C12.1476 3.06557 11.8524 3.06557 11.5939 3.18049L4.60801 6.28531C4.41955 6.36907 4.40785 6.63214 4.58813 6.7323L11.7601 10.7169C11.9111 10.8008 12.0947 10.8008 12.2458 10.7169L19.4151 6.73375C19.5954 6.63359 19.5837 6.37052 19.3952 6.28676L12.4061 3.18049Z" fill="currentColor"/>
</svg>
