<svg viewBox="0 0 24 24" fill="none" xmlns="http://www.w3.org/2000/svg">
<path fill-rule="evenodd" clip-rule="evenodd" d="M6 4V18L6.5 17.625C7.38889 16.9583 8.61111 16.9583 9.5 17.625L12 19.5L14.5 17.625C15.3889 16.9583 16.6111 16.9583 17.5 17.625L18 18V4H6ZM20 2.5C20 2.22386 19.7761 2 19.5 2H4.5C4.22386 2 4 2.22386 4 2.5V21C4 21.412 4.47038 21.6472 4.8 21.4L7.7 19.225C7.87778 19.0917 8.12222 19.0917 8.3 19.225L11.7 21.775C11.8778 21.9083 12.1222 21.9083 12.3 21.775L15.7 19.225C15.8778 19.0917 16.1222 19.0917 16.3 19.225L19.2 21.4C19.5296 21.6472 20 21.412 20 21V2.5Z" fill="currentColor"/>
<path d="M9.51782 12.1833C9.50072 12.0444 9.61493 11.929 9.7549 11.929H10.716C10.8466 11.929 10.9506 12.0324 10.9977 12.1542C11.1339 12.5059 11.5231 12.7206 12.0476 12.7206C12.6141 12.7206 13.0029 12.4168 13.0029 11.9796C13.0029 11.6114 12.7423 11.4135 12.06 11.2617L11.2742 11.0868C10.1824 10.8567 9.61993 10.194 9.61993 9.14924C9.61993 7.85141 10.5546 7 11.9938 7C13.2929 7 14.2205 7.72744 14.365 8.81657C14.3834 8.9554 14.2691 9.07101 14.1291 9.07101H13.2152C13.084 9.07101 12.9793 8.96698 12.9342 8.84373C12.8081 8.49943 12.4568 8.27482 12.0145 8.27482C11.481 8.27482 11.1294 8.55556 11.1294 8.99737C11.1294 9.36095 11.3941 9.57265 12.0227 9.71072L12.792 9.8764C13.9706 10.1295 14.5 10.7232 14.5 11.7771C14.5 13.1624 13.5488 14 11.9855 14C10.5787 14 9.65687 13.3125 9.51782 12.1833Z" fill="currentColor"/>
<path d="M11 6.13C11 6.0582 11.0582 6 11.13 6H12.87C12.9418 6 13 6.0582 13 6.13V8H11V6.13Z" fill="currentColor"/>
<path d="M11 13H13V14.87C13 14.9418 12.9418 15 12.87 15H11.13C11.0582 15 11 14.9418 11 14.87V13Z" fill="currentColor"/>
</svg>
