<svg viewBox="0 0 24 24" fill="none" xmlns="http://www.w3.org/2000/svg">
<path d="M3 5.25C3 5.11193 3.10074 5 3.225 5H20.775C20.8993 5 21 5.11193 21 5.25V6.75C21 6.88807 20.8993 7 20.775 7H3.225C3.10074 7 3 6.88807 3 6.75V5.25Z" fill="currentColor"/>
<path d="M3 11.25C3 11.1119 3.10074 11 3.225 11H20.775C20.8993 11 21 11.1119 21 11.25V12.75C21 12.8881 20.8993 13 20.775 13H3.225C3.10074 13 3 12.8881 3 12.75V11.25Z" fill="currentColor"/>
<path d="M3 17.25C3 17.1119 3.10074 17 3.225 17H20.775C20.8993 17 21 17.1119 21 17.25V18.75C21 18.8881 20.8993 19 20.775 19H3.225C3.10074 19 3 18.8881 3 18.75V17.25Z" fill="currentColor"/>
</svg>
