<svg  viewBox="0 0 24 25" fill="none" xmlns="http://www.w3.org/2000/svg">
<path fill-rule="evenodd" clip-rule="evenodd" d="M14 10.5C12.8954 10.5 12 9.60457 12 8.5V4.5H6V20.5H18V10.5H14ZM19.4142 8.91421C19.7893 9.28929 20 9.79799 20 10.3284V20.5C20 21.6046 19.1046 22.5 18 22.5H6C4.89543 22.5 4 21.6046 4 20.5V4.5C4 3.39543 4.89543 2.5 6 2.5H12.1716C12.702 2.5 13.2107 2.71071 13.5858 3.08579L19.4142 8.91421ZM16.1716 8.5L14 6.32843V8.5H16.1716Z" fill="currentColor"/>
<path fill-rule="evenodd" clip-rule="evenodd" d="M8.5 16C9.32843 16 10 16.6716 10 17.5C10 18.3284 9.32843 19 8.5 19C7.67157 19 7 18.3284 7 17.5C7 16.6716 7.67157 16 8.5 16ZM8.08809 17.3349C7.95991 17.3349 7.89076 17.4853 7.97419 17.5826L8.21806 17.867C8.29908 17.9615 8.44581 17.9599 8.52466 17.8636L9.04114 17.2326C9.12123 17.1348 9.05162 16.9879 8.9252 16.9879C8.88026 16.9879 8.8377 17.0081 8.80924 17.0428L8.36846 17.5814L8.20199 17.3873C8.17348 17.354 8.13188 17.3349 8.08809 17.3349Z" fill="currentColor"/>
<path fill-rule="evenodd" clip-rule="evenodd" d="M8.5 12C9.32843 12 10 12.6716 10 13.5C10 14.3284 9.32843 15 8.5 15C7.67157 15 7 14.3284 7 13.5C7 12.6716 7.67157 12 8.5 12ZM8.08809 13.3349C7.95991 13.3349 7.89076 13.4853 7.97419 13.5826L8.21806 13.867C8.29908 13.9615 8.44581 13.9599 8.52466 13.8636L9.04114 13.2326C9.12123 13.1348 9.05162 12.9879 8.9252 12.9879C8.88026 12.9879 8.8377 13.0081 8.80924 13.0428L8.36846 13.5814L8.20199 13.3873C8.17348 13.354 8.13188 13.3349 8.08809 13.3349Z" fill="currentColor"/>
<path d="M11 13.5C11 12.9477 11.4477 12.5 12 12.5H16C16.5523 12.5 17 12.9477 17 13.5C17 14.0523 16.5523 14.5 16 14.5H12C11.4477 14.5 11 14.0523 11 13.5Z" fill="currentColor"/>
<path d="M11 17.5C11 16.9477 11.4477 16.5 12 16.5H16C16.5523 16.5 17 16.9477 17 17.5C17 18.0523 16.5523 18.5 16 18.5H12C11.4477 18.5 11 18.0523 11 17.5Z" fill="currentColor"/>
</svg>
