<svg width="80" height="81" viewBox="0 0 80 81" fill="none" xmlns="http://www.w3.org/2000/svg">
<path d="M53.3332 27.1667H44.9998C44.0794 27.1667 43.3332 26.4205 43.3332 25.5V22.1667C43.3332 21.2462 44.0794 20.5 44.9998 20.5H53.3332C64.3789 20.5 73.3332 29.4543 73.3332 40.5C73.3332 51.5457 64.3789 60.5 53.3332 60.5H44.9998C44.0794 60.5 43.3332 59.7538 43.3332 58.8333V55.5C43.3332 54.5795 44.0794 53.8333 44.9998 53.8333H53.3332C60.697 53.8333 66.6665 47.8638 66.6665 40.5C66.6665 33.1362 60.697 27.1667 53.3332 27.1667Z" fill="#808487"/>
<path d="M36.6665 55.5C36.6665 54.5795 35.9203 53.8333 34.9998 53.8333H26.6665C19.3027 53.8333 13.3332 47.8638 13.3332 40.5C13.3332 33.1362 19.3027 27.1667 26.6665 27.1667H34.9998C35.9203 27.1667 36.6665 26.4205 36.6665 25.5V22.1667C36.6665 21.2462 35.9203 20.5 34.9998 20.5H26.6665C15.6208 20.5 6.6665 29.4543 6.6665 40.5C6.6665 51.5457 15.6208 60.5 26.6665 60.5H34.9998C35.9203 60.5 36.6665 59.7538 36.6665 58.8333V55.5Z" fill="#808487"/>
<path d="M29.9998 37.1667H49.9998C51.8408 37.1667 53.3332 38.659 53.3332 40.5C53.3332 42.3409 51.8408 43.8333 49.9998 43.8333H29.9998C28.1589 43.8333 26.6665 42.3409 26.6665 40.5C26.6665 38.659 28.1589 37.1667 29.9998 37.1667Z" fill="#808487"/>
</svg>
