<svg viewBox="0 0 24 24" fill="none" xmlns="http://www.w3.org/2000/svg">
<path fill-rule="evenodd" clip-rule="evenodd" d="M12 19.2C15.9764 19.2 19.2 15.9764 19.2 12C19.2 8.02355 15.9764 4.8 12 4.8C8.02355 4.8 4.8 8.02355 4.8 12C4.8 15.9764 8.02355 19.2 12 19.2ZM12 21C16.9706 21 21 16.9706 21 12C21 7.02944 16.9706 3 12 3C7.02944 3 3 7.02944 3 12C3 16.9706 7.02944 21 12 21Z" fill="currentColor"/>
<path d="M8.64124 10.0555C8.54361 9.95783 8.54361 9.79953 8.64124 9.7019L9.7019 8.64124C9.79953 8.54361 9.95783 8.54361 10.0555 8.64124L15.3588 13.9445C15.4564 14.0422 15.4564 14.2005 15.3588 14.2981L14.2981 15.3588C14.2005 15.4564 14.0422 15.4564 13.9445 15.3588L8.64124 10.0555Z" fill="currentColor"/>
<path d="M13.9445 8.64124C14.0422 8.54361 14.2005 8.54361 14.2981 8.64124L15.3588 9.7019C15.4564 9.79953 15.4564 9.95783 15.3588 10.0555L10.0555 15.3588C9.95783 15.4564 9.79953 15.4564 9.7019 15.3588L8.64124 14.2981C8.54361 14.2005 8.54361 14.0422 8.64124 13.9445L13.9445 8.64124Z" fill="currentColor"/>
</svg>
