<svg viewBox="0 0 33 32" xmlns="http://www.w3.org/2000/svg">
<path d="M8.50016 24.0002H24.5002V21.3335C24.5002 20.5971 25.0971 20.0002 25.8335 20.0002V20.0002C26.5699 20.0002 27.1668 20.5971 27.1668 21.3335V24.0002C27.1668 25.4729 25.9729 26.6668 24.5002 26.6668H8.50017C7.02741 26.6668 5.8335 25.4729 5.8335 24.0002V21.3335C5.8335 20.5971 6.43045 20.0002 7.16683 20.0002V20.0002C7.90321 20.0002 8.50016 20.5971 8.50016 21.3335V24.0002Z" fill="currentColor"/>
<path d="M21.4391 10.2314C21.6915 10.4818 21.8335 10.8225 21.8335 11.178V11.178C21.8335 12.3629 20.4034 12.9589 19.5619 12.1248L17.8374 10.4155V20.0002C17.8374 20.7365 17.2398 21.3335 16.5034 21.3335V21.3335C15.767 21.3335 15.1694 20.7365 15.1694 20.0002V10.409L13.4384 12.1248C12.5969 12.9589 11.1668 12.3629 11.1668 11.178V11.178C11.1668 10.8225 11.3088 10.4818 11.5612 10.2314L15.5613 6.26457C16.0811 5.7491 16.9192 5.7491 17.439 6.26457L21.4391 10.2314Z" fill="currentColor"/>
</svg>
