<svg viewBox="0 0 24 24" fill="none" xmlns="http://www.w3.org/2000/svg">
<path fill-rule="evenodd" clip-rule="evenodd" d="M12 21C16.9706 21 21 16.9706 21 12C21 7.02944 16.9706 3 12 3C7.02944 3 3 7.02944 3 12C3 16.9706 7.02944 21 12 21ZM13 11.25C13 11.1119 12.8881 11 12.75 11H11.25C11.1119 11 11 11.1119 11 11.25V15.75C11 15.8881 11.1119 16 11.25 16H12.75C12.8881 16 13 15.8881 13 15.75V11.25ZM13 8.25C13 8.11193 12.8881 8 12.75 8H11.25C11.1119 8 11 8.11193 11 8.25V9.75C11 9.88807 11.1119 10 11.25 10H12.75C12.8881 10 13 9.88807 13 9.75V8.25Z" fill="currentColor"/>
</svg>
