<svg viewBox="0 0 24 24" fill="none" xmlns="http://www.w3.org/2000/svg">
<path fill-rule="evenodd" clip-rule="evenodd" d="M12 21C16.9706 21 21 16.9706 21 12C21 7.02944 16.9706 3 12 3C7.02944 3 3 7.02944 3 12C3 16.9706 7.02944 21 12 21ZM11.25 8C11.1119 8 11 8.11193 11 8.25V11H8.25C8.11193 11 8 11.1119 8 11.25V12.75C8 12.8881 8.11193 13 8.25 13H11V15.75C11 15.8881 11.1119 16 11.25 16H12.75C12.8881 16 13 15.8881 13 15.75V13H15.75C15.8881 13 16 12.8881 16 12.75V11.25C16 11.1119 15.8881 11 15.75 11H13V8.25C13 8.11193 12.8881 8 12.75 8H11.25Z" fill="currentColor"/>
</svg>
