<svg viewBox="0 0 24 24" fill="none" xmlns="http://www.w3.org/2000/svg">
<path fill-rule="evenodd" clip-rule="evenodd" d="M2.5406 22C2.3275 22 2.2121 21.7505 2.35011 21.5881L18.7754 2.26426C18.9179 2.09661 19.1268 2 19.3468 2L21.4594 2.00002C21.6725 2.00003 21.7879 2.24957 21.6499 2.41194L5.22464 21.7357C5.08214 21.9034 4.87321 22 4.65319 22L2.5406 22Z" fill="currentColor"/>
<path d="M10.9137 18.5597C10.7854 18.7106 10.8754 18.9424 11.0728 18.9596C11.3792 18.9864 11.6885 19 12 19C16.2466 19 20.0846 16.4692 21.7574 12.566L22 12L21.7574 11.434C21.2829 10.3266 20.634 9.32975 19.851 8.46977C19.7513 8.36026 19.5786 8.36562 19.4827 8.47846L18.6439 9.4653C18.4807 9.65728 18.4872 9.9397 18.6475 10.1341C19.1106 10.6955 19.5064 11.3208 19.8204 12C18.4797 14.9008 15.6441 16.8164 12.4651 16.9875C12.3235 16.9951 12.1898 17.0583 12.098 17.1664L10.9137 18.5597Z" fill="currentColor"/>
<path d="M15.3491 9.81207C14.6348 8.72086 13.4016 7.99999 12 7.99999C9.79086 7.99999 8 9.79086 8 12C8 13.6324 8.97789 15.0365 10.3798 15.6583L11.798 13.9899C10.7883 13.8886 10 13.0364 10 12C10 10.8954 10.8954 9.99999 12 9.99999C12.9246 9.99999 13.7026 10.6274 13.9316 11.4797L15.3491 9.81207Z" fill="currentColor"/>
<path d="M16.6054 8.33413C15.2552 7.48012 13.6663 6.99999 12 6.99999C8.63458 6.99999 5.58536 8.95841 4.17964 12C5.232 14.277 7.20546 15.947 9.54313 16.6427L8.15257 18.2786C5.54427 17.2638 3.38685 15.236 2.24256 12.566L2 12L2.24256 11.434C3.91538 7.53076 7.75339 4.99999 12 4.99999C14.1514 4.99999 16.1979 5.64952 17.9111 6.79797L16.6054 8.33413Z" fill="currentColor"/>
</svg>
