<svg viewBox="0 0 18 18" fill="none" xmlns="http://www.w3.org/2000/svg">
<path fill-rule="evenodd" clip-rule="evenodd" d="M9 12.4644C9.56109 12.4644 10.1222 12.5172 10.6758 12.6233C11.3344 12.7495 11.9825 12.9511 12.6072 13.2275C12.7365 13.2848 12.8656 13.3457 12.9957 13.4045C13.2912 13.5381 13.5 13.8263 13.5 14.1506V15.75C13.5 16.1642 13.1642 16.5 12.75 16.5H5.25C4.83579 16.5 4.5 16.1642 4.5 15.75V14.1506C4.5 13.8263 4.70878 13.5381 5.00432 13.4045C5.13438 13.3457 5.26348 13.2848 5.39282 13.2275C6.01754 12.9511 6.66557 12.7495 7.32422 12.6233C7.87779 12.5172 8.43891 12.4644 9 12.4644ZM9 13.9644C8.53341 13.9644 8.06656 14.0087 7.6062 14.0969C7.05882 14.2019 6.51984 14.3687 6 14.5986V15H12V14.5986C11.4802 14.3687 10.9412 14.2019 10.3938 14.0969C9.93344 14.0087 9.46659 13.9644 9 13.9644Z" fill="currentColor"/>
<path d="M9 2.25C10.1848 2.25005 11.3489 2.56215 12.375 3.15454C13.401 3.74695 14.2531 4.599 14.8455 5.625C15.4378 6.65108 15.75 7.8152 15.75 9C15.75 9.93408 15.556 10.8552 15.1836 11.7061C15.0176 12.0855 14.5546 12.2071 14.1959 12C13.8371 11.7929 13.7197 11.3355 13.8737 10.9509C14.1213 10.3326 14.25 9.67055 14.25 9C14.25 8.07858 14.0075 7.173 13.5469 6.375C13.0861 5.57695 12.4231 4.91389 11.625 4.45312C10.8269 3.99237 9.92151 3.75003 9 3.75C8.07856 3.75 7.17302 3.99247 6.375 4.45312C5.57695 4.91391 4.91389 5.57693 4.45312 6.375C3.99237 7.17306 3.75002 8.07848 3.75 9C3.75001 9.67062 3.8784 10.3328 4.12589 10.9512C4.27973 11.3356 4.1625 11.7929 3.80395 11.9999C3.44531 12.2071 2.98242 12.0855 2.81637 11.7061C2.44401 10.8552 2.25001 9.93404 2.25 9C2.25002 7.81517 2.56213 6.65109 3.15454 5.625C3.74696 4.59897 4.59896 3.74694 5.625 3.15454C6.65108 2.56216 7.8152 2.25002 9 2.25Z" fill="currentColor"/>
<path fill-rule="evenodd" clip-rule="evenodd" d="M9 6.75C10.398 6.75 11.5312 7.90137 11.5312 9.32153C11.5312 10.1923 11.1051 10.9621 10.4531 11.4272C10.0419 11.7205 9.5406 11.8931 9 11.8931C8.4594 11.8931 7.95808 11.7205 7.54688 11.4272C6.89489 10.9621 6.46878 10.1923 6.46875 9.32153C6.46875 7.90137 7.60203 6.75 9 6.75ZM9 8.25C8.45264 8.25 7.96875 8.70744 7.96875 9.32153C7.96878 9.69329 8.14914 10.0142 8.41846 10.2063C8.58514 10.3251 8.78356 10.3931 9 10.3931C9.21644 10.3931 9.41486 10.3251 9.58154 10.2063C9.85086 10.0142 10.0312 9.69329 10.0312 9.32153C10.0312 8.70744 9.54736 8.25 9 8.25Z" fill="currentColor"/>
</svg>
