<svg viewBox="0 0 104 104" fill="none" xmlns="http://www.w3.org/2000/svg">
<path d="M55.2498 58.7301C55.9656 58.8727 56.628 59.0784 57.2345 59.3564C58.4793 59.9273 59.438 60.7343 60.1121 61.7727C60.6833 62.6383 61.0181 63.6268 61.115 64.7392C61.1461 65.0977 60.8527 65.3946 60.4929 65.3951H56.9044C56.1998 65.394 55.6683 64.8039 55.2752 64.2187C55.1669 64.0575 55.0346 63.9107 54.8816 63.7828C54.4277 63.3983 53.7359 63.2073 52.8081 63.2073C52.2169 63.2074 51.7306 63.2787 51.3524 63.4231C50.9817 63.5606 50.7058 63.7497 50.5272 63.9902C50.3487 64.2306 50.2591 64.5063 50.2521 64.8154C50.2384 65.069 50.2809 65.2993 50.3833 65.5051C50.4934 65.7046 50.6657 65.8902 50.8996 66.0553C51.1332 66.2132 51.4328 66.3563 51.7967 66.4869C52.1609 66.6174 52.5945 66.735 53.0959 66.8381L54.8309 67.2105C56.0001 67.4581 57.0032 67.7822 57.8354 68.188C58.6666 68.5935 59.3458 69.0731 59.8751 69.6226C60.4045 70.1658 60.7954 70.7785 61.043 71.4592C61.2975 72.1401 61.4255 72.8845 61.4324 73.6893C61.4254 75.0785 61.0791 76.2557 60.3914 77.2185C59.7037 78.1808 58.7204 78.9129 57.4418 79.4148C56.7811 79.6755 56.0496 79.865 55.2498 79.9903V82.3347H50.9165V80.0411C49.8659 79.9146 48.9073 79.6944 48.0432 79.3513C46.6815 78.808 45.6217 77.9739 44.8652 76.8461C44.2098 75.854 43.8357 74.6191 43.748 73.1434C43.7272 72.7845 44.0231 72.4917 44.3827 72.4917H47.8951C48.614 72.4928 49.1616 73.0822 49.4523 73.7401C49.5122 73.8754 49.5852 74.0009 49.6639 74.1209C49.9527 74.561 50.3559 74.8969 50.8784 75.1238C51.4077 75.3506 52.0374 75.4622 52.7658 75.4624C53.3779 75.4624 53.8934 75.3894 54.3061 75.2381C54.7185 75.0868 55.0325 74.8757 55.2456 74.6076C55.4584 74.3396 55.5687 74.0328 55.5757 73.6893C55.5688 73.3661 55.4603 73.0836 55.254 72.8429C55.0546 72.5954 54.7245 72.3753 54.2638 72.1828C53.8032 71.9834 53.1811 71.7961 52.3976 71.6242L50.2902 71.1714C48.4198 70.7656 46.9435 70.0892 45.8638 69.1402C44.7912 68.1844 44.2577 66.8801 44.2643 65.2301C44.2574 63.8888 44.6169 62.7135 45.3391 61.7093C46.0679 60.6989 47.0753 59.9118 48.3606 59.348C49.1424 59.007 49.9964 58.7803 50.9165 58.6455V56.335H55.2498V58.7301Z" fill="currentColor"/>
<path fill-rule="evenodd" clip-rule="evenodd" d="M91.4437 43.3563C91.7322 43.3857 92.0127 43.4424 92.2816 43.5256C92.3029 43.5321 92.3239 43.5398 92.3451 43.5467C92.4481 43.5804 92.5503 43.6157 92.6498 43.6567C92.7047 43.6793 92.7568 43.7081 92.8106 43.7329C92.8864 43.7679 92.9615 43.8038 93.0349 43.8429C93.0667 43.8599 93.0966 43.8802 93.128 43.8979C93.2114 43.9452 93.2936 43.9936 93.3734 44.0461C93.4176 44.0751 93.4615 44.1043 93.5046 44.1349C93.5794 44.1881 93.6534 44.2422 93.7246 44.3C93.748 44.3188 93.7694 44.3399 93.7924 44.3592C93.8695 44.4244 93.9443 44.492 94.0166 44.5623C94.0453 44.5901 94.0734 44.6184 94.1013 44.647C94.2559 44.8058 94.3954 44.978 94.5244 45.159C94.5651 45.2161 94.605 45.2734 94.6429 45.3325C94.6812 45.3922 94.7175 45.4528 94.753 45.5145C94.775 45.5528 94.7997 45.5896 94.8207 45.6287C94.859 45.7004 94.8921 45.7747 94.9265 45.8488C95.0144 46.0383 95.0906 46.2338 95.1507 46.437C95.2093 46.6347 95.2519 46.838 95.2819 47.0463C95.2918 47.1152 95.3049 47.1838 95.3115 47.2537C95.3245 47.3902 95.3327 47.5285 95.3327 47.6684V91.0013L95.3115 91.4456C95.2844 91.712 95.2282 91.97 95.155 92.22C95.0929 92.432 95.0145 92.6364 94.9222 92.8336C94.9067 92.8668 94.8878 92.8982 94.8714 92.9309C94.776 93.1222 94.6715 93.3072 94.5498 93.481C94.5302 93.509 94.5066 93.5339 94.4864 93.5615C94.2257 93.9159 93.914 94.2275 93.5596 94.4882C93.5321 94.5084 93.5072 94.5321 93.4792 94.5517C93.3054 94.6733 93.1203 94.7778 92.9291 94.8733C92.8963 94.8896 92.865 94.9085 92.8317 94.9241C92.6346 95.0163 92.4302 95.0947 92.2181 95.1568C91.9681 95.2301 91.7102 95.2863 91.4437 95.3134C91.2977 95.3283 91.1494 95.3345 90.9994 95.3345H13.0003L12.5559 95.3134C12.2881 95.2861 12.0285 95.2307 11.7773 95.1568C11.5654 95.0946 11.3608 95.0165 11.1637 94.9241C11.1305 94.9085 11.0991 94.8897 11.0664 94.8733C10.8753 94.7777 10.6899 94.6734 10.5163 94.5517C10.4883 94.5321 10.4633 94.5084 10.4359 94.4882C10.0819 94.2274 9.76939 93.9158 9.50911 93.5615C9.4889 93.534 9.46519 93.509 9.44563 93.481C9.32419 93.3073 9.21934 93.122 9.12402 92.9309C9.10769 92.8982 9.08876 92.8668 9.07324 92.8336C8.98114 92.6365 8.90245 92.4318 8.84049 92.22C8.76745 91.9704 8.71524 91.7116 8.68815 91.4456L8.66699 91.0013V47.6684C8.667 47.5285 8.67518 47.3902 8.68815 47.2537C8.69477 47.184 8.70366 47.115 8.71354 47.0463C8.74348 46.8382 8.78629 46.6345 8.84472 46.437C8.90479 46.234 8.9812 46.0381 9.06901 45.8488C9.1033 45.7748 9.13652 45.7004 9.1748 45.6287C9.19568 45.5896 9.22048 45.5528 9.24251 45.5145C9.27787 45.4529 9.31428 45.3921 9.35253 45.3325C9.39042 45.2735 9.43039 45.216 9.47102 45.159C9.6817 44.8631 9.92644 44.5935 10.2031 44.3592C10.226 44.3398 10.2475 44.3188 10.2708 44.3C10.3419 44.2422 10.4161 44.1881 10.4909 44.1349C10.5339 44.1043 10.5779 44.0751 10.622 44.0461C10.7018 43.9936 10.7842 43.9452 10.8675 43.8979C10.8988 43.8802 10.9288 43.8599 10.9606 43.8429C11.0339 43.8037 11.1091 43.7679 11.1849 43.7329C11.2386 43.7081 11.2908 43.6794 11.3457 43.6567C11.4451 43.6157 11.5474 43.5804 11.6504 43.5467C11.6715 43.5398 11.6925 43.5322 11.7138 43.5256C11.9839 43.4417 12.2661 43.3858 12.5559 43.3563L13.0003 43.3351H90.9994L91.4437 43.3563ZM28.5265 52.0017C26.3428 56.9987 22.3306 61.0109 17.3336 63.1946V75.4708C22.3313 77.6544 26.3425 81.6705 28.5265 86.668H75.4732C77.6572 81.6705 81.6684 77.6544 86.6661 75.4708V63.1946C81.6691 61.0109 77.6569 56.9987 75.4732 52.0017H28.5265Z" fill="currentColor"/>
<path d="M50.159 9.329C51.0048 8.4497 52.4095 8.44216 53.2651 9.31207L63.7598 20.2003C64.557 21.0108 65.0039 22.1019 65.0039 23.2387V31.0716C65.0039 32.0407 63.8303 32.523 63.1504 31.8333L56.0792 24.3982V37.9228C56.0792 38.5209 55.594 39.0059 54.9959 39.0061H48.496C47.8977 39.0061 47.4127 38.5211 47.4127 37.9228V24.322L40.8704 31.7698C40.1953 32.4733 39.0051 31.9963 39.0042 31.0208V23.2091C39.0043 22.0902 39.4396 21.0157 40.2145 20.2088L50.159 9.329Z" fill="currentColor"/>
</svg>
