<svg viewBox="0 0 24 24" fill="none" xmlns="http://www.w3.org/2000/svg">
<path d="M7.71429 13.8L7 13.08L5.57143 14.52L6.28571 15.24L7.71429 13.8Z" fill="currentColor"/>
<path d="M11.5055 12.8585L9.14286 15.24L9.85714 15.96L12.2198 13.5785L13.6484 15.0185L11.2857 17.4L12 18.12L17 13.08L19.1429 10.92L14.1429 5.88L13.4286 6.6L15.3968 8.58393C15.4934 8.6814 15.4934 8.8386 15.3968 8.93607L12.1775 12.1811C12.0797 12.2797 11.9203 12.2797 11.8225 12.1811L9.85714 10.2L7 13.08L7.71429 13.8L10.0769 11.4185L11.5055 12.8585Z" fill="currentColor"/>
<path d="M12 9.48L12.7143 8.76L9.85714 5.88L4.85714 10.92L5.57143 11.64L9.85714 7.32L12 9.48Z" fill="currentColor"/>
<path d="M5.57143 11.64L4.85714 10.92L3.42857 12.36L4.14286 13.08L5.57143 11.64Z" fill="currentColor"/>
<path fill-rule="evenodd" clip-rule="evenodd" d="M21.6507 11.2721C21.844 11.0772 21.844 10.7628 21.6507 10.5679L14.4978 3.3578C14.3022 3.16065 13.9835 3.16065 13.7879 3.3578L12 5.16L13.4286 6.6L14.1429 5.88L19.1429 10.92L17 13.08L12 18.12L11.2857 17.4L9.85714 18.84L11.645 20.6422C11.8406 20.8393 12.1594 20.8393 12.355 20.6422L18.4286 14.52L21.6507 11.2721ZM4.85714 10.92L9.85714 5.88L8.42857 4.44L2.34935 10.5679C2.15596 10.7628 2.15596 11.0772 2.34935 11.2721L3.42857 12.36L4.85714 10.92ZM9.85714 15.96L9.14286 15.24L7.71429 16.68L8.42857 17.4L9.85714 15.96Z" fill="currentColor"/>
</svg>
