<svg  viewBox="0 0 18 18" fill="currentColor" xmlns="http://www.w3.org/2000/svg">
<path d="M14.8974 9.75C15.3517 9.75 15.7084 10.1468 15.6015 10.5884C15.4563 11.1883 15.2283 11.7701 14.9202 12.3164C14.0943 13.7803 12.7517 14.8836 11.1555 15.4102C9.55931 15.9366 7.82407 15.8486 6.28931 15.1633C5.30911 14.7257 4.45522 14.0648 3.79102 13.2429V15C3.79102 15.4142 3.45523 15.75 3.04102 15.75C2.6268 15.75 2.29102 15.4142 2.29102 15V11.5C2.29102 10.9477 2.73873 10.5 3.29102 10.5H6.79102C7.20523 10.5 7.54102 10.8358 7.54102 11.25C7.54102 11.6642 7.20523 12 6.79102 12H4.73291C5.27521 12.7788 6.02268 13.4016 6.90088 13.7937C8.09452 14.3266 9.44387 14.395 10.6853 13.9856C11.9269 13.5761 12.9711 12.7182 13.6135 11.5796C13.8258 11.2034 13.9893 10.8055 14.1024 10.3954C14.2032 10.0303 14.5186 9.75 14.8974 9.75Z" fill="currentColor"/>
<path d="M14.9993 2.25C15.4135 2.25 15.7493 2.58579 15.7493 3V6.5C15.7493 7.05228 15.3016 7.5 14.7493 7.5H11.2493C10.8351 7.5 10.4993 7.16421 10.4993 6.75C10.4993 6.33579 10.8351 6 11.2493 6H13.3081C12.7659 5.22128 12.0183 4.59846 11.1401 4.2063C9.94641 3.67328 8.59652 3.60493 7.35498 4.0144C6.11342 4.42391 5.06914 5.28177 4.42676 6.42041C4.2146 6.79647 4.05144 7.19423 3.93847 7.60422C3.83781 7.96955 3.52224 8.25 3.1433 8.25C2.68875 8.25 2.33188 7.85299 2.43886 7.41121C2.58411 6.81143 2.81205 6.22973 3.12012 5.68359C3.94599 4.2197 5.28858 3.11638 6.88477 2.58984C8.48106 2.06334 10.2169 2.15134 11.7517 2.83667C12.7318 3.27434 13.5851 3.93535 14.2493 4.75708V3C14.2493 2.58579 14.5851 2.25 14.9993 2.25Z" fill="currentColor"/>
</svg>
