<svg xmlns="http://www.w3.org/2000/svg" width="65" height="64" viewBox="0 0 65 64" fill="none">
  <path fill-rule="evenodd" clip-rule="evenodd" d="M16.5008 10.6666V47.9999L17.8341 46.9999C20.2045 45.2221 23.4638 45.2221 25.8341 46.9999L32.5008 51.9999L39.1675 46.9999C41.5378 45.2221 44.7971 45.2221 47.1675 46.9999L48.5008 47.9999V10.6666H16.5008ZM53.8341 6.66659C53.8341 5.93021 53.2372 5.33325 52.5008 5.33325H12.5008C11.7644 5.33325 11.1675 5.9302 11.1675 6.66658V55.9999C11.1675 57.0986 12.4218 57.7258 13.3008 57.0666L21.0341 51.2666C21.5082 50.911 22.1601 50.911 22.6341 51.2666L31.7008 58.0666C32.1749 58.4221 32.8267 58.4221 33.3008 58.0666L42.3675 51.2666C42.8416 50.911 43.4934 50.911 43.9675 51.2666L51.7008 57.0666C52.5798 57.7258 53.8341 57.0986 53.8341 55.9999V6.66659Z" fill="currentColor"/>
  <path d="M25.8817 32.4888C25.8361 32.1184 26.1406 31.8106 26.5139 31.8106H29.0768C29.4251 31.8106 29.7024 32.0862 29.8281 32.411C30.1913 33.3491 31.229 33.9215 32.6276 33.9215C34.1385 33.9215 35.1752 33.1115 35.1752 31.9456C35.1752 30.9638 34.4804 30.436 32.6607 30.031L30.5653 29.5647C27.6538 28.951 26.154 27.1838 26.154 24.3979C26.154 20.937 28.6464 18.6666 32.4843 18.6666C35.9486 18.6666 38.4222 20.6064 38.8075 23.5108C38.8566 23.881 38.5519 24.1893 38.1784 24.1893H35.7414C35.3914 24.1893 35.1123 23.9119 34.9919 23.5832C34.6559 22.6651 33.7189 22.0661 32.5394 22.0661C31.1168 22.0661 30.1793 22.8147 30.1793 23.9929C30.1793 24.9624 30.8852 25.527 32.5615 25.8952L34.6128 26.337C37.7558 27.012 39.1675 28.5951 39.1675 31.4056C39.1675 35.0996 36.6309 37.3333 32.4622 37.3333C28.7108 37.3333 26.2525 35.4999 25.8817 32.4888Z" fill="currentColor"/>
  <path d="M29.8341 16.3466C29.8341 16.1551 29.9894 15.9999 30.1808 15.9999H34.8208C35.0123 15.9999 35.1675 16.1551 35.1675 16.3466V21.3333H29.8341V16.3466Z" fill="currentColor"/>
  <path d="M29.8341 34.6666H35.1675V39.6532C35.1675 39.8447 35.0123 39.9999 34.8208 39.9999H30.1808C29.9894 39.9999 29.8341 39.8447 29.8341 39.6532V34.6666Z" fill="currentColor"/>
</svg>